<svg width="20" height="21" viewBox="0 0 20 21" fill="none" xmlns="http://www.w3.org/2000/svg">
<g id="Component 3">
<path id="Vector" d="M19.1666 18.001V16.3344C19.1661 15.5958 18.9203 14.8784 18.4678 14.2946C18.0153 13.7109 17.3817 13.294 16.6666 13.1094" stroke="#034833" stroke-width="1.5" stroke-linecap="round" stroke-linejoin="round"/>
<path id="Vector_2" d="M14.1667 18V16.3333C14.1667 15.4493 13.8155 14.6014 13.1904 13.9763C12.5653 13.3512 11.7174 13 10.8334 13H4.16671C3.28265 13 2.43481 13.3512 1.80968 13.9763C1.18456 14.6014 0.833374 15.4493 0.833374 16.3333V18" stroke="#034833" stroke-width="1.5" stroke-linecap="round" stroke-linejoin="round"/>
<path id="Vector_3" d="M13.3334 3.10938C14.0504 3.29296 14.6859 3.70996 15.1397 4.29463C15.5936 4.87931 15.8399 5.5984 15.8399 6.33854C15.8399 7.07868 15.5936 7.79777 15.1397 8.38245C14.6859 8.96712 14.0504 9.38412 13.3334 9.56771" stroke="#034833" stroke-width="2" stroke-linecap="round" stroke-linejoin="round"/>
<path id="Vector_4" d="M7.49996 9.66667C9.34091 9.66667 10.8333 8.17428 10.8333 6.33333C10.8333 4.49238 9.34091 3 7.49996 3C5.65901 3 4.16663 4.49238 4.16663 6.33333C4.16663 8.17428 5.65901 9.66667 7.49996 9.66667Z" stroke="#034833" stroke-width="2" stroke-linecap="round" stroke-linejoin="round"/>
</g>
</svg>
