<svg width="20" height="21" viewBox="0 0 20 21" fill="none" xmlns="http://www.w3.org/2000/svg">
<g id="Component 3">
<path id="Vector" d="M5 2.16602L2.5 5.49935V17.166C2.5 17.608 2.67559 18.032 2.98816 18.3445C3.30072 18.6571 3.72464 18.8327 4.16667 18.8327H15.8333C16.2754 18.8327 16.6993 18.6571 17.0118 18.3445C17.3244 18.032 17.5 17.608 17.5 17.166V5.49935L15 2.16602H5Z" stroke="#034833" stroke-width="1.5" stroke-linecap="round" stroke-linejoin="round"/>
<path id="Vector_2" d="M13.3333 8.83398C13.3333 9.71804 12.9821 10.5659 12.357 11.191C11.7319 11.8161 10.884 12.1673 9.99996 12.1673C9.1159 12.1673 8.26806 11.8161 7.64294 11.191C7.01782 10.5659 6.66663 9.71804 6.66663 8.83398" stroke="#034833" stroke-width="1.5" stroke-linecap="round" stroke-linejoin="round"/>
<path id="Vector_3" d="M2.5 5.5H17.5" stroke="#034833" stroke-width="2" stroke-linecap="round" stroke-linejoin="round"/>
</g>
</svg>
