<svg width="21" height="22" viewBox="0 0 21 22" fill="none" xmlns="http://www.w3.org/2000/svg">
<g id="Group 400">
<g id="Group 30">
<path id="Vector" d="M1.97907 21.0443C1.63958 21.0443 1.29691 20.9143 1.03674 20.6541C0.516399 20.1337 0.516399 19.2898 1.03674 18.7694L18.7247 1.08459C19.2451 0.56425 20.0891 0.56425 20.6094 1.08459C21.1297 1.60494 21.1297 2.44891 20.6094 2.96925L2.9214 20.6541C2.66123 20.9143 2.32173 21.0443 1.97907 21.0443Z" fill="#034833"/>
<path id="Vector_2" d="M19.6489 17.5967C18.9128 17.5967 18.3163 17.0002 18.3163 16.2641V3.37611H5.42829C4.69219 3.37611 4.0957 2.77962 4.0957 2.04352C4.0957 1.30743 4.69537 0.710938 5.43146 0.710938H19.6489C20.385 0.710938 20.9815 1.30743 20.9815 2.04352V16.2609C20.9815 16.997 20.385 17.5935 19.6489 17.5935V17.5967Z" fill="#034833"/>
</g>
</g>
</svg>
