<svg width="18" height="14" viewBox="0 0 18 14" fill="none" xmlns="http://www.w3.org/2000/svg">
<path id="Vector" d="M1 6.40464H0.372575V7.65949H1V6.40464ZM17.3131 7.65949C17.6596 7.65949 17.9405 7.37858 17.9405 7.03206C17.9405 6.68555 17.6596 6.40464 17.3131 6.40464V7.65949ZM11.6662 0.757812V0.130387H10.4114V0.757812H11.6662ZM16.9496 7.51982C17.2538 7.68575 17.6349 7.57365 17.8008 7.26944C17.9667 6.96523 17.8546 6.58411 17.5504 6.41818L16.9496 7.51982ZM10.4113 13.2433V13.8707H11.6662V13.2433H10.4113ZM1 7.03206V7.65949H17.2499V7.03206V6.40464H1V7.03206ZM17.2499 7.03206V7.65949H17.3131V7.03206V6.40464H17.2499V7.03206ZM11.0388 0.757812H10.4114C10.4114 1.68164 10.9104 2.564 11.5229 3.31576C12.148 4.08289 12.966 4.80456 13.7608 5.41866C14.5592 6.03562 15.3545 6.55958 15.9484 6.92851C16.246 7.11335 16.4944 7.26014 16.6692 7.36116C16.7566 7.41168 16.8257 7.45081 16.8734 7.47756C16.8973 7.49094 16.9158 7.50123 16.9286 7.50832C16.935 7.51186 16.94 7.5146 16.9435 7.51652C16.9453 7.51748 16.9467 7.51824 16.9477 7.51879C16.9482 7.51907 16.9486 7.51929 16.9489 7.51946C16.9491 7.51955 16.9492 7.51964 16.9493 7.51968C16.9494 7.51976 16.9496 7.51982 17.25 6.969C17.5504 6.41818 17.5505 6.41822 17.5505 6.41825C17.5505 6.41824 17.5506 6.41825 17.5505 6.41824C17.5505 6.4182 17.5503 6.41812 17.5501 6.41798C17.5496 6.41771 17.5487 6.41723 17.5475 6.41655C17.545 6.4152 17.5411 6.41304 17.5357 6.41008C17.525 6.40417 17.5087 6.3951 17.487 6.38297C17.4438 6.35872 17.3794 6.32231 17.297 6.27468C17.1322 6.1794 16.8953 6.03947 16.6106 5.86258C16.0399 5.50807 15.2824 5.00862 14.528 4.42571C13.77 3.83994 13.0352 3.18528 12.4957 2.52311C11.9436 1.84558 11.6662 1.24569 11.6662 0.757812H11.0388ZM17.2499 7.03206C17.0149 6.45033 17.0147 6.4504 17.0145 6.45048C17.0144 6.45052 17.0142 6.45061 17.014 6.45068C17.0136 6.45084 17.0132 6.45103 17.0126 6.45127C17.0114 6.45173 17.0099 6.45235 17.008 6.45312C17.0042 6.45467 16.999 6.45683 16.9923 6.4596C16.9789 6.46514 16.9598 6.47311 16.9353 6.48349C16.8864 6.50424 16.816 6.5346 16.7272 6.57425C16.5497 6.65351 16.2982 6.77014 15.9973 6.92161C15.3971 7.22376 14.5925 7.6684 13.7838 8.23608C12.9784 8.80149 12.1472 9.50415 11.5122 10.3283C10.8766 11.1533 10.4113 12.1357 10.4113 13.2433H11.0388H11.6662C11.6662 12.5001 11.9773 11.7807 12.5063 11.0941C13.0359 10.4066 13.7574 9.78782 14.5048 9.26312C15.249 8.74069 15.9972 8.32656 16.5616 8.04246C16.8429 7.90082 17.0767 7.79246 17.2389 7.72001C17.32 7.68381 17.383 7.65664 17.4251 7.63881C17.4461 7.6299 17.4618 7.62334 17.472 7.61915C17.477 7.61706 17.4807 7.61556 17.4829 7.61467C17.4839 7.61422 17.4847 7.61392 17.485 7.61378C17.4852 7.61371 17.4853 7.61367 17.4853 7.61367C17.4853 7.61367 17.4852 7.6137 17.4852 7.61371C17.4851 7.61375 17.485 7.61379 17.2499 7.03206Z" fill="white"/>
</svg>
