<svg width="35" height="35" viewBox="0 0 35 35" fill="none" xmlns="http://www.w3.org/2000/svg">
<g id="Component 1" clip-path="url(#clip0_6797_19639)">
<path id="Vector" d="M17.5 35C27.165 35 35 27.165 35 17.5C35 7.83502 27.165 0 17.5 0C7.83502 0 0 7.83502 0 17.5C0 27.165 7.83502 35 17.5 35Z" fill="#F0F0F0"/>
<path id="Vector_2" d="M5.12562 29.8738C-1.70854 23.0396 -1.70854 11.9592 5.12562 5.125C5.12514 5.12575 15.2174 17.4994 15.2174 17.4994L5.12562 29.8738Z" fill="#1A1A1A"/>
<path id="Vector_3" d="M15.2174 17.5001L2.32103 8.78516C1.92119 9.48017 1.56859 10.2056 1.26562 10.9565L7.79456 17.5002L1.26583 24.0442C1.56853 24.7945 1.92078 25.5195 2.32034 26.214L15.2174 17.5001Z" fill="#FFDA44"/>
<path id="Vector_4" d="M34.8519 15.2166H15.2169L5.12544 5.125C4.03798 6.21246 3.09318 7.44231 2.321 8.78428L11.019 17.4991L2.32031 26.2129C3.0925 27.5552 4.0377 28.7855 5.12544 29.8732L15.2169 19.7817H34.8519C34.9491 19.0346 35 18.2728 35 17.4991C35 16.7255 34.9491 15.9637 34.8519 15.2166Z" fill="#6DA544"/>
<path id="Vector_5" d="M6.8457 31.3814C9.79671 33.6497 13.4906 34.9992 17.5003 34.9992C25.5858 34.9992 32.3893 29.5154 34.3975 22.0645H16.1627L6.8457 31.3814Z" fill="#0052B4"/>
<path id="Vector_6" d="M34.3975 12.9348C32.3893 5.48386 25.5858 0 17.5003 0C13.4906 0 9.79671 1.34948 6.8457 3.61778L16.1627 12.9348H34.3975Z" fill="#D80027"/>
</g>
<defs>
<clipPath id="clip0_6797_19639">
<rect width="35" height="35" fill="white"/>
</clipPath>
</defs>
</svg>
