<svg width="35" height="35" viewBox="0 0 35 35" fill="none" xmlns="http://www.w3.org/2000/svg">
<g id="Component 1" clip-path="url(#clip0_6797_19649)">
<path id="Vector" d="M35 17.5002C35 15.3596 34.615 13.309 33.9115 11.4133L17.5 10.6523L1.08849 11.4132C0.385068 13.309 0 15.3596 0 17.5002C0 19.6408 0.385068 21.6914 1.08849 23.5871L17.5 24.348L33.9115 23.5872C34.615 21.6914 35 19.6408 35 17.5002Z" fill="#0052B4"/>
<path id="Vector_2" d="M17.5004 35.001C25.0248 35.001 31.4393 30.2519 33.9119 23.5879H1.08887C3.56149 30.2519 9.976 35.001 17.5004 35.001Z" fill="#FF9811"/>
<path id="Vector_3" d="M1.08887 11.4131H33.912C31.4393 4.74906 25.0248 0 17.5004 0C9.976 0 3.56149 4.74906 1.08887 11.4131Z" fill="#D80027"/>
</g>
<defs>
<clipPath id="clip0_6797_19649">
<rect width="35" height="35" fill="white"/>
</clipPath>
</defs>
</svg>
