<svg width="35" height="35" viewBox="0 0 35 35" fill="none" xmlns="http://www.w3.org/2000/svg">
<g clip-path="url(#clip0_6763_195646)">
<path d="M0 17.5007C0 20.5324 0.771299 23.384 2.12782 25.8703L17.5 27.392L32.8722 25.8703C34.2287 23.384 35 20.5324 35 17.5007C35 14.469 34.2287 11.6174 32.8722 9.13112L17.5 7.60938L2.12782 9.13112C0.771299 11.6174 0 14.469 0 17.5007H0Z" fill="#D80027"/>
<path d="M2.12695 9.13042H32.8712C29.9032 3.69065 24.1324 0 17.4991 0C10.8659 0 5.09505 3.69065 2.12695 9.13042Z" fill="#0052B4"/>
<path d="M17.4991 34.9996C24.1324 34.9996 29.9032 31.3089 32.8713 25.8691H2.12695C5.09505 31.3089 10.8659 34.9996 17.4991 34.9996Z" fill="#0052B4"/>
<path d="M23.5862 20.9245V18.6419H22.0645V15.5984L20.5428 14.0767L19.021 15.5984V12.555L17.4993 11.0332L15.9775 12.555V15.5984L14.4558 14.0767L12.9341 15.5984V18.6419H11.4124V20.9245H9.89062V23.2071H25.108V20.9245H23.5862Z" fill="#F0F0F0"/>
</g>
<defs>
<clipPath id="clip0_6763_195646">
<rect width="35" height="35" fill="white"/>
</clipPath>
</defs>
</svg>
