<svg width="36" height="35" viewBox="0 0 36 35" fill="none" xmlns="http://www.w3.org/2000/svg">
<g id="Component 1" clip-path="url(#clip0_6763_195682)">
<path id="Vector" d="M17.834 35C27.499 35 35.334 27.165 35.334 17.5C35.334 7.83502 27.499 0 17.834 0C8.169 0 0.333984 7.83502 0.333984 17.5C0.333984 27.165 8.169 35 17.834 35Z" fill="#F0F0F0"/>
<path id="Vector_2" d="M5.4596 29.8738C-1.37456 23.0396 -1.37456 11.9592 5.4596 5.125C5.45913 5.12575 15.5514 17.4994 15.5514 17.4994L5.4596 29.8738Z" fill="#1A1A1A"/>
<path id="Vector_3" d="M15.5514 17.5001L2.65501 8.78516C2.25518 9.48017 1.90258 10.2056 1.59961 10.9565L8.12855 17.5002L1.59981 24.0442C1.90251 24.7945 2.25477 25.5195 2.65433 26.214L15.5514 17.5001Z" fill="#FFDA44"/>
<path id="Vector_4" d="M35.1858 15.2166H15.5509L5.45942 5.125C4.37196 6.21246 3.42717 7.44231 2.65498 8.78428L11.353 17.4991L2.6543 26.2129C3.42648 27.5552 4.37169 28.7855 5.45942 29.8732L15.5509 19.7817H35.1858C35.2831 19.0346 35.334 18.2728 35.334 17.4991C35.334 16.7255 35.2831 15.9637 35.1858 15.2166Z" fill="#6DA544"/>
<path id="Vector_5" d="M7.17969 31.3814C10.1307 33.6497 13.8246 34.9992 17.8343 34.9992C25.9198 34.9992 32.7233 29.5154 34.7315 22.0645H16.4967L7.17969 31.3814Z" fill="#0052B4"/>
<path id="Vector_6" d="M34.7315 12.9348C32.7233 5.48386 25.9198 0 17.8343 0C13.8246 0 10.1307 1.34948 7.17969 3.61778L16.4967 12.9348H34.7315Z" fill="#D80027"/>
</g>
<defs>
<clipPath id="clip0_6763_195682">
<rect width="35" height="35" fill="white" transform="translate(0.333984)"/>
</clipPath>
</defs>
</svg>
