<svg width="36" height="35" viewBox="0 0 36 35" fill="none" xmlns="http://www.w3.org/2000/svg">
<g clip-path="url(#clip0_6763_195670)">
<path d="M10.2249 33.2635C12.5256 34.376 15.1066 35 17.8335 35C20.5605 35 23.1415 34.376 25.4422 33.2635L26.964 17.5L25.4422 1.73646C23.1415 0.623984 20.5605 0 17.8335 0C15.1066 0 12.5256 0.623984 10.2249 1.73646L8.70312 17.5L10.2249 33.2635Z" fill="#FFDA44"/>
<path d="M25.4434 33.2622C31.297 30.4317 35.3347 24.4372 35.3347 17.4992C35.3347 10.5613 31.297 4.56682 25.4434 1.73633V33.2622Z" fill="#D80027"/>
<path d="M10.2253 33.2622V1.73633C4.37163 4.56682 0.333984 10.5612 0.333984 17.4992C0.333984 24.4373 4.37163 30.4317 10.2253 33.2622Z" fill="#0052B4"/>
<path d="M17.834 23.5869C17.834 20.7944 17.834 17.5 17.834 17.5H22.3992V19.7826C22.3992 20.1791 21.6384 21.6322 19.7604 22.8261C19.0491 23.2783 18.3128 23.4238 17.834 23.5869Z" fill="#D80027"/>
<path d="M13.2695 12.9355H17.8348V17.5008H13.2695V12.9355Z" fill="#D80027"/>
<path d="M20.1156 11.4124C20.1156 10.5719 19.4343 9.89062 18.5939 9.89062C18.3163 9.89062 18.057 9.96609 17.833 10.0958C17.609 9.96609 17.3497 9.89062 17.0722 9.89062C16.2318 9.89062 15.5504 10.5719 15.5504 11.4124H11.7461V19.021C11.7461 21.8535 13.9955 23.4916 15.7595 24.3408C15.6275 24.5662 15.5504 24.8278 15.5504 25.108C15.5504 25.9485 16.2318 26.6298 17.0722 26.6298C17.3497 26.6298 17.6091 26.5543 17.833 26.4246C18.057 26.5543 18.3163 26.6298 18.5939 26.6298C19.4343 26.6298 20.1156 25.9485 20.1156 25.108C20.1156 24.8278 20.0385 24.5662 19.9064 24.3408C21.6704 23.4916 23.9199 21.8536 23.9199 19.021V11.4124H20.1156ZM21.6374 19.021C21.6374 19.4175 21.6374 20.6241 19.7594 21.8181C19.048 22.2704 18.3118 22.5636 17.833 22.7267C17.3542 22.5636 16.618 22.2704 15.9067 21.8181C14.0287 20.6241 14.0287 19.4175 14.0287 19.021V13.695H21.6374V19.021Z" fill="#FF9811"/>
</g>
<defs>
<clipPath id="clip0_6763_195670">
<rect width="35" height="35" fill="white" transform="translate(0.333984)"/>
</clipPath>
</defs>
</svg>
