<svg width="35" height="35" viewBox="0 0 35 35" fill="none" xmlns="http://www.w3.org/2000/svg">
<g id="Component 1" clip-path="url(#clip0_6763_195712)">
<path id="Vector" d="M33.9115 23.5862C34.615 21.6905 35 19.6399 35 17.4993C35 15.3587 34.615 13.3081 33.9115 11.4124L17.5 9.89062L1.08849 11.4124C0.385068 13.3081 0 15.3587 0 17.4993C0 19.6399 0.385068 21.6905 1.08849 23.5862L17.5 25.108L33.9115 23.5862Z" fill="#6DA544"/>
<path id="Vector_2" d="M33.9109 11.4131C31.4383 4.74906 25.0238 0 17.4994 0C9.97502 0 3.56052 4.74906 1.08789 11.4131H33.9109Z" fill="#FFDA44"/>
<path id="Vector_3" d="M17.4994 35.001C25.0238 35.001 31.4383 30.2519 33.9109 23.5879H1.08789C3.56052 30.2519 9.97502 35.001 17.4994 35.001Z" fill="#D80027"/>
<path id="Vector_4" d="M29.5008 14.8067H20.3334L17.5004 6.08789L14.6675 14.8067H5.5L12.9167 20.1951L10.0837 28.914L17.5004 23.5879L24.9171 28.914L22.0843 20.1951L29.5008 14.8067Z" fill="#F0F0F0"/>
</g>
<defs>
<clipPath id="clip0_6763_195712">
<rect width="35" height="35" fill="white"/>
</clipPath>
</defs>
</svg>
