<svg width="36" height="35" viewBox="0 0 36 35" fill="none" xmlns="http://www.w3.org/2000/svg">
<g id="Component 1" clip-path="url(#clip0_6763_195694)">
<path id="Vector" d="M35.666 17.5002C35.666 15.3596 35.281 13.309 34.5775 11.4133L18.166 10.6523L1.7545 11.4132C1.05108 13.309 0.666016 15.3596 0.666016 17.5002C0.666016 19.6408 1.05108 21.6914 1.7545 23.5871L18.166 24.348L34.5775 23.5872C35.281 21.6914 35.666 19.6408 35.666 17.5002Z" fill="#496E2D"/>
<path id="Vector_2" d="M18.1654 35.001C25.6898 35.001 32.1043 30.2519 34.5769 23.5879H1.75391C4.22653 30.2519 10.641 35.001 18.1654 35.001Z" fill="#D80027"/>
<path id="Vector_3" d="M1.75391 11.4131H34.577C32.1043 4.74906 25.6898 0 18.1654 0C10.641 0 4.22653 4.74906 1.75391 11.4131Z" fill="#F0F0F0"/>
</g>
<defs>
<clipPath id="clip0_6763_195694">
<rect width="35" height="35" fill="white" transform="translate(0.666016)"/>
</clipPath>
</defs>
</svg>
