<svg width="35" height="35" viewBox="0 0 35 35" fill="none" xmlns="http://www.w3.org/2000/svg">
<g id="Component 1" clip-path="url(#clip0_6805_26585)">
<path id="Vector" d="M17.5 35C27.165 35 35 27.165 35 17.5C35 7.83502 27.165 0 17.5 0C7.83502 0 0 7.83502 0 17.5C0 27.165 7.83502 35 17.5 35Z" fill="#F0F0F0"/>
<path id="Vector_2" d="M9.89062 23.5879L11.4124 33.9126C13.3081 34.6161 15.3587 35.001 17.4993 35.001C25.0236 35.001 31.4382 30.2519 33.9107 23.5879H9.89062Z" fill="#1A1A1A"/>
<path id="Vector_3" d="M9.89062 11.4131L11.4124 1.08835C13.3081 0.384863 15.3587 0 17.4993 0C25.0236 0 31.4382 4.74906 33.9107 11.4131H9.89062Z" fill="#6DA544"/>
<path id="Vector_4" d="M0 17.4994C0 25.0238 4.74913 31.4383 11.4131 33.9109V1.08789C4.74913 3.56052 0 9.97502 0 17.4994Z" fill="#A2001D"/>
</g>
<defs>
<clipPath id="clip0_6805_26585">
<rect width="35" height="35" fill="white"/>
</clipPath>
</defs>
</svg>
