<svg width="36" height="35" viewBox="0 0 36 35" fill="none" xmlns="http://www.w3.org/2000/svg">
<g clip-path="url(#clip0_6763_195688)">
<path d="M18.166 35C27.831 35 35.666 27.165 35.666 17.5C35.666 7.83502 27.831 0 18.166 0C8.50103 0 0.666016 7.83502 0.666016 17.5C0.666016 27.165 8.50103 35 18.166 35Z" fill="#D80027"/>
<path d="M10.2422 10.6484L11.7529 15.2969H16.6406L12.6895 18.1748L14.2002 22.8232L10.2422 19.9521L6.28418 22.8232L7.80176 18.1748L3.84375 15.2969H8.73145L10.2422 10.6484Z" fill="#FFDA44"/>
<path d="M21.4111 27.1045L20.2559 25.6826L18.5469 26.3457L19.5381 24.8076L18.3828 23.3789L20.1533 23.8506L21.1514 22.3125L21.2471 24.1445L23.0244 24.6162L21.3086 25.2725L21.4111 27.1045Z" fill="#FFDA44"/>
<path d="M23.708 22.9346L24.2549 21.1846L22.7578 20.125L24.5898 20.0977L25.1299 18.3477L25.7246 20.084L27.5566 20.0635L26.0869 21.1572L26.6748 22.8936L25.1777 21.834L23.708 22.9346Z" fill="#FFDA44"/>
<path d="M26.8057 12.8437L25.999 14.4912L27.3115 15.7695L25.5 15.5098L24.6934 17.1504L24.3789 15.3457L22.5605 15.0859L24.1875 14.2314L23.873 12.4199L25.1855 13.6982L26.8057 12.8437Z" fill="#FFDA44"/>
<path d="M21.46 7.85352L21.3232 9.67871L23.0254 10.3691L21.2412 10.8066L21.1113 12.6387L20.1475 11.0801L18.3633 11.5176L19.5459 10.1162L18.5752 8.56445L20.2773 9.25488L21.46 7.85352Z" fill="#FFDA44"/>
</g>
<defs>
<clipPath id="clip0_6763_195688">
<rect width="35" height="35" fill="white" transform="translate(0.666016)"/>
</clipPath>
</defs>
</svg>
