<svg width="35" height="35" viewBox="0 0 35 35" fill="none" xmlns="http://www.w3.org/2000/svg">
<g clip-path="url(#clip0_6763_195652)">
<path d="M17.5 35C27.165 35 35 27.165 35 17.5C35 7.83502 27.165 0 17.5 0C7.83502 0 0 7.83502 0 17.5C0 27.165 7.83502 35 17.5 35Z" fill="#FCFCFC"/>
<path d="M7.22834 16.2326L5.32617 12.7816L7.22834 9.38477L9.13051 12.7816L7.22834 16.2326Z" fill="#A2001D"/>
<path d="M3.42365 16.2326L1.52148 12.7816L3.42365 9.38477L5.32582 12.7816L3.42365 16.2326Z" fill="#A2001D"/>
<path d="M7.22834 25.6154L5.32617 22.1644L7.22834 18.7676L9.13051 22.1644L7.22834 25.6154Z" fill="#A2001D"/>
<path d="M3.42365 25.6154L1.52148 22.1644L3.42365 18.7676L5.32582 22.1644L3.42365 25.6154Z" fill="#A2001D"/>
<path d="M9.12992 3.39723L8.59139 2.43555C7.62547 3.00785 6.7195 3.67046 5.88477 4.41175L7.22775 6.84814L9.12992 3.39723Z" fill="#A2001D"/>
<path d="M7.2283 28.1523L5.87109 30.5761C6.70508 31.3183 7.61043 31.982 8.57594 32.5554L9.13054 31.5493L7.2283 28.1523Z" fill="#A2001D"/>
<path d="M10.6523 22.0645V33.6078C12.7557 34.5031 15.0699 34.9992 17.5002 34.9992C25.0246 34.9992 31.4391 30.2501 33.9117 23.5861L10.6523 22.0645Z" fill="#6DA544"/>
<path d="M33.9117 23.5869C34.6152 21.6911 35.0002 19.6406 35.0002 17.5C35.0002 7.83508 27.1651 0 17.5002 0C15.0701 0 12.7557 0.495811 10.6523 1.39098V23.587H33.9117V23.5869Z" fill="#A2001D"/>
</g>
<defs>
<clipPath id="clip0_6763_195652">
<rect width="35" height="35" fill="white"/>
</clipPath>
</defs>
</svg>
