<svg width="198" height="106" viewBox="0 0 198 106" fill="none" xmlns="http://www.w3.org/2000/svg">
<g clip-path="url(#clip0_6802_26798)">
<path d="M83.4683 29.1814C84.7603 29.1814 85.8077 28.1255 85.8077 26.8231C85.8077 25.5207 84.7603 24.4648 83.4683 24.4648C82.1763 24.4648 81.1289 25.5207 81.1289 26.8231C81.1289 28.1255 82.1763 29.1814 83.4683 29.1814Z" fill="white"/>
<path d="M76.0738 24.4648C77.3658 24.4648 78.4132 25.5207 78.4132 26.8231C78.4132 28.1256 77.3658 29.1814 76.0738 29.1814C74.7818 29.1814 73.7344 28.1256 73.7344 26.8231C73.7344 25.5207 74.7818 24.4648 76.0738 24.4648Z" fill="white"/>
<path d="M68.6773 29.1814C69.9693 29.1814 71.0167 28.1256 71.0167 26.8231C71.0167 25.5207 69.9693 24.4648 68.6773 24.4648C67.3853 24.4648 66.3379 25.5207 66.3379 26.8231C66.3379 28.1256 67.3853 29.1814 68.6773 29.1814Z" fill="white"/>
<path d="M128.443 24.4648C129.735 24.4648 130.782 25.5207 130.782 26.8231C130.782 28.1256 129.735 29.1814 128.443 29.1814C127.151 29.1814 126.104 28.1256 126.104 26.8231C126.104 25.5207 127.151 24.4648 128.443 24.4648Z" fill="#18B979"/>
<path d="M121.048 24.4648C122.34 24.4648 123.388 25.5207 123.388 26.8231C123.388 28.1256 122.34 29.1814 121.048 29.1814C119.756 29.1814 118.709 28.1256 118.709 26.8231C118.709 25.5207 119.756 24.4648 121.048 24.4648Z" fill="#18B979"/>
<path d="M113.652 24.4648C114.944 24.4648 115.991 25.5207 115.991 26.8231C115.991 28.1256 114.944 29.1814 113.652 29.1814C112.36 29.1814 111.312 28.1256 111.312 26.8231C111.312 25.5207 112.36 24.4648 113.652 24.4648Z" fill="#18B979"/>
<path d="M98.5603 19.6422C97.3989 19.6422 96.4573 20.5914 96.4573 21.7623V34.4954C96.4573 37.1766 94.2932 39.3582 91.6335 39.3582H73.8458L70.4327 43.0717L67.0199 39.3582H61.7741C59.1143 39.3582 56.9503 37.1766 56.9503 34.4954V18.9642C56.9503 16.2828 59.1143 14.1014 61.7741 14.1014H92.1518C92.7121 12.545 93.5311 11.1134 94.5595 9.86133H61.7741C56.7949 9.86133 52.7441 13.9449 52.7441 18.9642V34.4954C52.7441 39.5149 56.7949 43.5983 61.7741 43.5983H65.1827L70.4327 49.3106L75.6826 43.5983H91.6335C96.6127 43.5983 100.663 39.5149 100.663 34.4954V21.7623C100.663 20.5914 99.722 19.6422 98.5603 19.6422Z" fill="#18B979"/>
<path d="M135.347 9.86133H105.487C100.508 9.86133 96.457 13.9449 96.457 18.9642V26.2292C96.457 27.4002 97.3986 28.3492 98.5601 28.3492C99.7218 28.3492 100.663 27.4002 100.663 26.2292V18.9642C100.663 16.2828 102.827 14.1014 105.487 14.1014H135.347C138.006 14.1014 140.17 16.2828 140.17 18.9642V34.4954C140.17 37.1766 138.006 39.3582 135.347 39.3582H130.101L126.688 43.0717L123.275 39.3582H104.965C104.405 40.9144 103.586 42.3458 102.559 43.5983H121.438L126.688 49.3106L131.938 43.5983H135.347C140.326 43.5983 144.377 39.5149 144.377 34.4954V18.9642C144.377 13.9449 140.326 9.86133 135.347 9.86133Z" fill="white"/>
</g>
<path d="M9.80273 94.0049V57.8062H15.506V88.8337H24.8904V94.0049H9.80273Z" fill="white"/>
<path d="M27.6254 94.0049V57.8062H33.3286V94.0049H27.6254Z" fill="white"/>
<path d="M37.6 94.0049V57.8062H44.7549L50.3026 79.4737H50.4063V57.8062H55.4874V94.0049H49.6286L42.7847 67.5798H42.681V94.0049H37.6Z" fill="white"/>
<path d="M67.8146 94.522C62.215 94.522 59.3116 91.2124 59.3116 85.4206V66.3905C59.3116 60.5987 62.215 57.2891 67.8146 57.2891C73.4141 57.2891 76.3176 60.5987 76.3176 66.3905V69.4932H70.9254V66.0285C70.9254 63.4428 69.7848 62.4603 67.9701 62.4603C66.1555 62.4603 65.0148 63.4428 65.0148 66.0285V85.8343C65.0148 88.42 66.1555 89.3508 67.9701 89.3508C69.7848 89.3508 70.9254 88.42 70.9254 85.8343V78.7497H68.0738V73.5785H76.3176V85.4206C76.3176 91.2124 73.4141 94.522 67.8146 94.522Z" fill="white"/>
<path d="M88.2231 94.522C82.6236 94.522 79.5646 91.2124 79.5646 85.4206V66.3905C79.5646 60.5987 82.6236 57.2891 88.2231 57.2891C93.8227 57.2891 96.8817 60.5987 96.8817 66.3905V85.4206C96.8817 91.2124 93.8227 94.522 88.2231 94.522ZM88.2231 89.3508C90.0378 89.3508 91.1784 88.3683 91.1784 85.7826V66.0285C91.1784 63.4428 90.0378 62.4603 88.2231 62.4603C86.4085 62.4603 85.2678 63.4428 85.2678 66.0285V85.7826C85.2678 88.3683 86.4085 89.3508 88.2231 89.3508Z" fill="white"/>
<path d="M109.042 94.0049V57.8062H116.197L121.745 79.4737H121.849V57.8062H126.93V94.0049H121.071L114.227 67.5798H114.123V94.0049H109.042Z" fill="white"/>
<path d="M139.413 94.522C133.813 94.522 130.754 91.2124 130.754 85.4206V66.3905C130.754 60.5987 133.813 57.2891 139.413 57.2891C145.012 57.2891 148.071 60.5987 148.071 66.3905V85.4206C148.071 91.2124 145.012 94.522 139.413 94.522ZM139.413 89.3508C141.227 89.3508 142.368 88.3683 142.368 85.7826V66.0285C142.368 63.4428 141.227 62.4603 139.413 62.4603C137.598 62.4603 136.457 63.4428 136.457 66.0285V85.7826C136.457 88.3683 137.598 89.3508 139.413 89.3508Z" fill="white"/>
<path d="M155.819 94.0049L150.323 57.8062H156.078L159.811 85.8861H159.915L163.648 57.8062H168.885L163.389 94.0049H155.819Z" fill="white"/>
<path d="M168.652 94.0049L174.563 57.8062H182.288L188.199 94.0049H182.496L181.459 86.8169V86.9203H174.978L173.941 94.0049H168.652ZM175.652 82.0076H180.785L178.244 64.1151H178.14L175.652 82.0076Z" fill="white"/>
<defs>
<clipPath id="clip0_6802_26798">
<rect width="91.6327" height="39.4492" fill="white" transform="translate(52.7441 9.86133)"/>
</clipPath>
</defs>
</svg>
