<svg width="25" height="25" viewBox="0 0 25 25" fill="none" xmlns="http://www.w3.org/2000/svg">
<g id="Component 3" clip-path="url(#clip0_6797_32002)">
<path id="Vector" d="M23.5 21.5009V19.5009C23.4993 18.6146 23.2044 17.7536 22.6614 17.0532C22.1184 16.3527 21.3581 15.8524 20.5 15.6309" stroke="#18B979" stroke-width="2" stroke-linecap="round" stroke-linejoin="round"/>
<path id="Vector_2" d="M17.5 21.5V19.5C17.5 18.4391 17.0786 17.4217 16.3284 16.6716C15.5783 15.9214 14.5609 15.5 13.5 15.5H5.5C4.43913 15.5 3.42172 15.9214 2.67157 16.6716C1.92143 17.4217 1.5 18.4391 1.5 19.5V21.5" stroke="#18B979" stroke-width="2" stroke-linecap="round" stroke-linejoin="round"/>
<path id="Vector_3" d="M16.5 3.63086C17.3604 3.85116 18.123 4.35156 18.6676 5.05317C19.2122 5.75478 19.5078 6.61769 19.5078 7.50586C19.5078 8.39403 19.2122 9.25694 18.6676 9.95855C18.123 10.6602 17.3604 11.1606 16.5 11.3809" stroke="#18B979" stroke-width="2" stroke-linecap="round" stroke-linejoin="round"/>
<path id="Vector_4" d="M9.5 11.5C11.7091 11.5 13.5 9.70914 13.5 7.5C13.5 5.29086 11.7091 3.5 9.5 3.5C7.29086 3.5 5.5 5.29086 5.5 7.5C5.5 9.70914 7.29086 11.5 9.5 11.5Z" stroke="#18B979" stroke-width="2" stroke-linecap="round" stroke-linejoin="round"/>
</g>
<defs>
<clipPath id="clip0_6797_32002">
<rect width="24" height="24" fill="white" transform="translate(0.5 0.5)"/>
</clipPath>
</defs>
</svg>
