<svg width="52" height="36" viewBox="0 0 52 36" fill="none" xmlns="http://www.w3.org/2000/svg">
<rect width="52" height="36" rx="18" fill="white"/>
<g clip-path="url(#clip0_7098_3221)">
<path d="M24.1622 8.83398C24.8639 8.96175 25.3941 9.44818 25.5455 10.1491L27.1964 23.3664C27.1943 23.5657 27.0037 23.9118 26.7912 23.9186C23.8709 23.8744 20.9316 23.9977 18.0221 23.8557C17.3268 23.6589 16.8877 23.079 16.834 22.3632L16.8359 10.3535C16.886 9.59263 17.5016 8.92004 18.265 8.83398H24.1622ZM22.5785 12.7768C22.5131 12.7221 22.3381 12.6681 22.2502 12.6581C21.9975 12.6296 21.3218 12.6275 21.0737 12.6613C20.8684 12.6893 20.7286 12.7956 20.641 12.9793L19.5158 18.5031C19.4843 19.1415 20.3422 19.3319 20.5598 18.7237C20.7475 18.1989 20.7489 17.4866 20.9306 16.945L22.445 16.9489C22.5832 17.4858 22.6152 18.1511 22.7783 18.6705C22.9919 19.3505 23.8924 19.1555 23.8364 18.4706C23.4151 16.7737 23.2326 14.9422 22.7929 13.2591C22.7527 13.1053 22.7065 12.8838 22.5785 12.7768Z" fill="#1A1A1A"/>
<path d="M35.1338 25.7031C35.0732 26.3617 34.3644 27.1328 33.6863 27.1328H25.5195C26.3444 26.1216 27.2732 25.1922 28.0633 24.1546C28.216 23.8559 28.241 23.5578 28.2618 23.2292L26.8777 12.0859H33.6863C34.3837 12.0859 35.0601 12.8995 35.1338 13.5513V25.7031ZM30.8091 16.2855C30.7721 16.4656 30.8363 16.7525 30.8091 16.9467L29.1138 16.949C28.6988 17.0434 28.5015 17.5457 28.8197 17.8639C28.9877 18.0318 29.323 18.0071 29.3622 18.0541C29.399 18.098 29.5279 18.5462 29.5773 18.661C29.8415 19.2756 30.1748 19.8335 30.586 20.3604C30.5835 20.3917 30.2421 20.6837 30.1828 20.7343C29.8057 21.0557 28.8412 21.5425 29.3272 22.1278C29.5323 22.3748 29.8444 22.3377 30.092 22.1804C30.4825 21.9323 30.8706 21.461 31.2403 21.2194C31.2768 21.1955 31.3097 21.1667 31.3576 21.1715C31.7862 21.462 32.2005 21.9099 32.6351 22.1795C33.2885 22.5851 33.8056 21.8477 33.3646 21.3785C33.1633 21.1645 32.7216 20.9071 32.472 20.6986C32.4163 20.6521 32.1024 20.3908 32.1022 20.3603C32.5036 19.8404 32.8745 19.2911 33.1385 18.6863C33.1904 18.5673 33.3265 18.0989 33.364 18.0541C33.4032 18.0071 33.7386 18.0318 33.9065 17.8639C34.2246 17.5459 34.0278 17.0436 33.6125 16.949L31.8814 16.9467V16.2855C31.8814 16.1629 31.6154 15.9251 31.4895 15.8912C31.2215 15.8192 30.8651 16.0135 30.8091 16.2855Z" fill="#1A1A1A"/>
<path d="M25.9134 24.9883L24.1102 26.9543C23.2926 26.6148 23.1627 25.7785 23.0898 24.9883H25.9134Z" fill="#1A1A1A"/>
<path d="M21.125 15.875L21.5746 13.7285L21.8024 13.7324L22.233 15.875H21.125Z" fill="#1A1A1A"/>
<path d="M32.2396 18.0195C32.1247 18.4616 31.8456 18.843 31.6108 19.2314L31.3286 19.5566C30.9857 19.0862 30.6505 18.5814 30.4883 18.0195H32.2396Z" fill="#1A1A1A"/>
<path d="M24.1622 8.83398C24.8639 8.96175 25.3941 9.44818 25.5455 10.1491L27.1964 23.3664C27.1943 23.5657 27.0037 23.9118 26.7912 23.9186C23.8709 23.8744 20.9316 23.9977 18.0221 23.8557C17.3268 23.6589 16.8877 23.079 16.834 22.3632L16.8359 10.3535C16.886 9.59263 17.5016 8.92004 18.265 8.83398H24.1622ZM22.5785 12.7768C22.5131 12.7221 22.3381 12.6681 22.2502 12.6581C21.9975 12.6296 21.3218 12.6275 21.0737 12.6613C20.8684 12.6893 20.7286 12.7956 20.641 12.9793L19.5158 18.5031C19.4843 19.1415 20.3422 19.3319 20.5598 18.7237C20.7475 18.1989 20.7489 17.4866 20.9306 16.945L22.445 16.9489C22.5832 17.4858 22.6152 18.1511 22.7783 18.6705C22.9919 19.3505 23.8924 19.1555 23.8364 18.4706C23.4151 16.7737 23.2326 14.9422 22.7929 13.2591C22.7527 13.1053 22.7065 12.8838 22.5785 12.7768Z" fill="#1A1A1A"/>
<path d="M35.1338 25.7031C35.0732 26.3617 34.3644 27.1328 33.6863 27.1328H25.5195C26.3444 26.1216 27.2732 25.1922 28.0633 24.1546C28.216 23.8559 28.241 23.5578 28.2618 23.2292L26.8777 12.0859H33.6863C34.3837 12.0859 35.0601 12.8995 35.1338 13.5513V25.7031ZM30.8091 16.2855C30.7721 16.4656 30.8363 16.7525 30.8091 16.9467L29.1138 16.949C28.6988 17.0434 28.5015 17.5457 28.8197 17.8639C28.9877 18.0318 29.323 18.0071 29.3622 18.0541C29.399 18.098 29.5279 18.5462 29.5773 18.661C29.8415 19.2756 30.1748 19.8335 30.586 20.3604C30.5835 20.3917 30.2421 20.6837 30.1828 20.7343C29.8057 21.0557 28.8412 21.5425 29.3272 22.1278C29.5323 22.3748 29.8444 22.3377 30.092 22.1804C30.4825 21.9323 30.8706 21.461 31.2403 21.2194C31.2768 21.1955 31.3097 21.1667 31.3576 21.1715C31.7862 21.462 32.2005 21.9099 32.6351 22.1795C33.2885 22.5851 33.8056 21.8477 33.3646 21.3785C33.1633 21.1645 32.7216 20.9071 32.472 20.6986C32.4163 20.6521 32.1024 20.3908 32.1022 20.3603C32.5036 19.8404 32.8745 19.2911 33.1385 18.6863C33.1904 18.5673 33.3265 18.0989 33.364 18.0541C33.4032 18.0071 33.7386 18.0318 33.9065 17.8639C34.2246 17.5459 34.0278 17.0436 33.6125 16.949L31.8814 16.9467V16.2855C31.8814 16.1629 31.6154 15.9251 31.4895 15.8912C31.2215 15.8192 30.8651 16.0135 30.8091 16.2855Z" fill="#1A1A1A"/>
<path d="M25.9134 24.9883L24.1102 26.9543C23.2926 26.6148 23.1627 25.7785 23.0898 24.9883H25.9134Z" fill="#1A1A1A"/>
<path d="M21.125 15.875L21.5746 13.7285L21.8024 13.7324L22.233 15.875H21.125Z" fill="#1A1A1A"/>
<path d="M32.2396 18.0195C32.1247 18.4616 31.8456 18.843 31.6108 19.2314L31.3286 19.5566C30.9857 19.0862 30.6505 18.5814 30.4883 18.0195H32.2396Z" fill="#1A1A1A"/>
</g>
<defs>
<clipPath id="clip0_7098_3221">
<rect width="20" height="20" fill="white" transform="translate(16 8)"/>
</clipPath>
</defs>
</svg>
