<svg width="92" height="44" viewBox="0 0 92 44" fill="none" xmlns="http://www.w3.org/2000/svg">
<g clip-path="url(#clip0_6819_8786)">
<path d="M38.0761 9.86564C38.7352 9.86564 39.2695 9.32777 39.2695 8.66427C39.2695 8.00077 38.7352 7.46289 38.0761 7.46289C37.4171 7.46289 36.8828 8.00077 36.8828 8.66427C36.8828 9.32777 37.4171 9.86564 38.0761 9.86564Z" fill="#034833"/>
<path d="M34.3047 7.46289C34.9637 7.46289 35.498 8.00078 35.498 8.66428C35.498 9.32778 34.9637 9.86566 34.3047 9.86566C33.6456 9.86566 33.1113 9.32778 33.1113 8.66428C33.1113 8.00078 33.6456 7.46289 34.3047 7.46289Z" fill="#034833"/>
<path d="M30.5312 9.86566C31.1903 9.86566 31.7246 9.32778 31.7246 8.66428C31.7246 8.00077 31.1903 7.46289 30.5312 7.46289C29.8722 7.46289 29.3379 8.00077 29.3379 8.66428C29.3379 9.32778 29.8722 9.86566 30.5312 9.86566Z" fill="#034833"/>
<path d="M61.0176 7.46289C61.6766 7.46289 62.2109 8.00078 62.2109 8.66428C62.2109 9.32778 61.6766 9.86566 61.0176 9.86566C60.3585 9.86566 59.8242 9.32778 59.8242 8.66428C59.8242 8.00078 60.3585 7.46289 61.0176 7.46289Z" fill="#18B979"/>
<path d="M57.2461 7.46289C57.9051 7.46289 58.4394 8.00078 58.4394 8.66428C58.4394 9.32778 57.9051 9.86566 57.2461 9.86566C56.587 9.86566 56.0527 9.32778 56.0527 8.66428C56.0527 8.00078 56.587 7.46289 57.2461 7.46289Z" fill="#18B979"/>
<path d="M53.4726 7.46289C54.1317 7.46289 54.666 8.00078 54.666 8.66428C54.666 9.32778 54.1317 9.86566 53.4726 9.86566C52.8136 9.86566 52.2793 9.32778 52.2793 8.66428C52.2793 8.00078 52.8136 7.46289 53.4726 7.46289Z" fill="#18B979"/>
<path d="M45.7752 5.00617C45.1827 5.00617 44.7024 5.4897 44.7024 6.08618V12.5729C44.7024 13.9388 43.5985 15.0502 42.2418 15.0502H33.1683L31.4272 16.9419L29.6864 15.0502H27.0105C25.6537 15.0502 24.5499 13.9388 24.5499 12.5729V4.66073C24.5499 3.29478 25.6537 2.18346 27.0105 2.18346H42.5062C42.792 1.3906 43.2098 0.66131 43.7343 0.0234375H27.0105C24.4706 0.0234375 22.4043 2.10373 22.4043 4.66073V12.5729C22.4043 15.13 24.4706 17.2102 27.0105 17.2102H28.7492L31.4272 20.1202L34.1052 17.2102H42.2418C44.7817 17.2102 46.848 15.13 46.848 12.5729V6.08618C46.848 5.4897 46.3678 5.00617 45.7752 5.00617Z" fill="#18B979"/>
<path d="M64.5407 0.0234375H49.3094C46.7694 0.0234375 44.7031 2.10373 44.7031 4.66073V8.36177C44.7031 8.95833 45.1834 9.44178 45.7759 9.44178C46.3685 9.44178 46.8487 8.95833 46.8487 8.36177V4.66073C46.8487 3.29478 47.9526 2.18346 49.3094 2.18346H64.5407C65.8974 2.18346 67.0014 3.29478 67.0014 4.66073V12.5729C67.0014 13.9388 65.8974 15.0502 64.5407 15.0502H61.8647L60.1239 16.9419L58.383 15.0502H49.0432C48.7576 15.8429 48.3398 16.5721 47.8157 17.2102H57.4458L60.1239 20.1202L62.8019 17.2102H64.5407C67.0807 17.2102 69.147 15.13 69.147 12.5729V4.66073C69.147 2.10373 67.0807 0.0234375 64.5407 0.0234375Z" fill="#034833"/>
</g>
<path d="M0.5 42.8898V24.449H3.40923V40.2554H8.19624V42.8898H0.5Z" fill="#034833"/>
<path d="M9.59134 42.8898V24.449H12.5006V42.8898H9.59134Z" fill="#034833"/>
<path d="M14.6794 42.8898V24.449H18.3292L21.159 35.4872H21.2119V24.449H23.8038V42.8898H20.8152L17.3242 29.428H17.2713V42.8898H14.6794Z" fill="#034833"/>
<path d="M30.0919 43.1533C27.2356 43.1533 25.7545 41.4673 25.7545 38.5167V28.8221C25.7545 25.8716 27.2356 24.1855 30.0919 24.1855C32.9482 24.1855 34.4293 25.8716 34.4293 28.8221V30.4028H31.6788V28.6377C31.6788 27.3205 31.0969 26.82 30.1713 26.82C29.2456 26.82 28.6637 27.3205 28.6637 28.6377V38.7275C28.6637 40.0447 29.2456 40.5189 30.1713 40.5189C31.0969 40.5189 31.6788 40.0447 31.6788 38.7275V35.1183H30.2241V32.4839H34.4293V38.5167C34.4293 41.4673 32.9482 43.1533 30.0919 43.1533Z" fill="#034833"/>
<path d="M40.5023 43.1533C37.646 43.1533 36.0856 41.4673 36.0856 38.5167V28.8221C36.0856 25.8716 37.646 24.1855 40.5023 24.1855C43.3587 24.1855 44.9191 25.8716 44.9191 28.8221V38.5167C44.9191 41.4673 43.3587 43.1533 40.5023 43.1533ZM40.5023 40.5189C41.428 40.5189 42.0098 40.0183 42.0098 38.7011V28.6377C42.0098 27.3205 41.428 26.82 40.5023 26.82C39.5767 26.82 38.9948 27.3205 38.9948 28.6377V38.7011C38.9948 40.0183 39.5767 40.5189 40.5023 40.5189Z" fill="#034833"/>
<path d="M51.1222 42.8898V24.449H54.772L57.6019 35.4872H57.6548V24.449H60.2467V42.8898H57.2581L53.767 29.428H53.7141V42.8898H51.1222Z" fill="#034833"/>
<path d="M66.6141 43.1533C63.7578 43.1533 62.1974 41.4673 62.1974 38.5167V28.8221C62.1974 25.8716 63.7578 24.1855 66.6141 24.1855C69.4704 24.1855 71.0308 25.8716 71.0308 28.8221V38.5167C71.0308 41.4673 69.4704 43.1533 66.6141 43.1533ZM66.6141 40.5189C67.5398 40.5189 68.1216 40.0183 68.1216 38.7011V28.6377C68.1216 27.3205 67.5398 26.82 66.6141 26.82C65.6884 26.82 65.1066 27.3205 65.1066 28.6377V38.7011C65.1066 40.0183 65.6884 40.5189 66.6141 40.5189Z" fill="#034833"/>
<path d="M74.9831 42.8898L72.1797 24.449H75.1153L77.0196 38.7538H77.0725L78.9767 24.449H81.6479L78.8444 42.8898H74.9831Z" fill="#034833"/>
<path d="M81.5293 42.8898L84.5443 24.449H88.485L91.5 42.8898H88.5908L88.0618 39.228V39.2807H84.7559L84.2269 42.8898H81.5293ZM85.0997 36.778H87.718L86.4221 27.663H86.3692L85.0997 36.778Z" fill="#034833"/>
<defs>
<clipPath id="clip0_6819_8786">
<rect width="46.7419" height="20.0968" fill="white" transform="translate(22.4043 0.0234375)"/>
</clipPath>
</defs>
</svg>
