<svg width="46" height="47" viewBox="0 0 46 47" fill="none" xmlns="http://www.w3.org/2000/svg">
<g id="Menu Button">
<rect id="Rectangle" x="9.58398" y="10.084" width="11.5" height="13.4167" rx="1" fill="#034833"/>
<rect id="Rectangle_2" x="9.58398" y="27.334" width="11.5" height="9.58333" rx="1" fill="#034833"/>
<path id="Rectangle_3" d="M24.916 24.4998C24.916 23.9475 25.3637 23.4998 25.916 23.4998H35.416C35.9683 23.4998 36.416 23.9475 36.416 24.4998V35.9165C36.416 36.4687 35.9683 36.9165 35.416 36.9165H25.916C25.3637 36.9165 24.916 36.4687 24.916 35.9165V24.4998Z" fill="#034833"/>
<path id="Rectangle_4" d="M24.916 11.0838C24.916 10.5316 25.3637 10.0838 25.916 10.0838H35.416C35.9683 10.0838 36.416 10.5316 36.416 11.0838V18.6672C36.416 19.2195 35.9683 19.6672 35.416 19.6672H25.916C25.3637 19.6672 24.916 19.2195 24.916 18.6672V11.0838Z" fill="#034833"/>
</g>
</svg>
