<svg width="142" height="40" viewBox="0 0 142 40" fill="none" xmlns="http://www.w3.org/2000/svg">
<g clip-path="url(#clip0_6758_1264)">
<g clip-path="url(#clip1_6758_1264)">
<rect width="53" height="40" transform="translate(-6)" fill="white"/>
<path fill-rule="evenodd" clip-rule="evenodd" d="M-6 0H47V40H-6V0Z" fill="#F7FCFF"/>
<path fill-rule="evenodd" clip-rule="evenodd" d="M-6 0V40H47V0H-6Z" fill="#E31D1C"/>
<mask id="mask0_6758_1264" style="mask-type:luminance" maskUnits="userSpaceOnUse" x="-6" y="0" width="53" height="40">
<path fill-rule="evenodd" clip-rule="evenodd" d="M-6 0V40H47V0H-6Z" fill="white"/>
</mask>
<g mask="url(#mask0_6758_1264)">
<path fill-rule="evenodd" clip-rule="evenodd" d="M20.6017 26.6334L12.0706 32.0917L14.9321 22.5366L8.84712 16.2938L17.2363 16.1094L20.9479 6.67635L24.3301 16.234L32.6992 16.381L26.41 22.7382L29.3468 31.8282L20.6017 26.6334Z" fill="#FFD221"/>
</g>
</g>
</g>
<rect x="0.5" y="0.5" width="39" height="39" rx="19.5" stroke="black" stroke-opacity="0.1" style="mix-blend-mode:multiply"/>
<g clip-path="url(#clip2_6758_1264)">
<g clip-path="url(#clip3_6758_1264)">
<rect width="53" height="40" transform="translate(32)" fill="white"/>
<path fill-rule="evenodd" clip-rule="evenodd" d="M32 0V40H85V0H32Z" fill="#FFB400"/>
<mask id="mask1_6758_1264" style="mask-type:luminance" maskUnits="userSpaceOnUse" x="32" y="0" width="53" height="40">
<path fill-rule="evenodd" clip-rule="evenodd" d="M32 0V40H85V0H32Z" fill="white"/>
</mask>
<g mask="url(#mask1_6758_1264)">
<path fill-rule="evenodd" clip-rule="evenodd" d="M32 0V10H85V0H32Z" fill="#C51918"/>
<path fill-rule="evenodd" clip-rule="evenodd" d="M32 30V40H85V30H32Z" fill="#C51918"/>
<rect x="40.2949" y="17.1211" width="1.855" height="9.70667" fill="#F1F9FF"/>
<path fill-rule="evenodd" clip-rule="evenodd" d="M42.8917 15.4414H39.5527V16.3747H40.1094V17.1208H42.3354V16.3747H42.8917V15.4414Z" fill="#C88A02"/>
<path fill-rule="evenodd" clip-rule="evenodd" d="M42.3352 27.3873H42.8917V28.3206H39.5527V27.3873H40.1092V26.6406H42.3352V27.3873Z" fill="#C88A02"/>
<path fill-rule="evenodd" clip-rule="evenodd" d="M41.2223 15.6276C41.626 15.6276 41.667 15.4746 41.9052 15.2461C42.0901 15.0687 42.5208 14.8487 42.5208 14.6009C42.5208 14.0339 41.9395 13.5742 41.2223 13.5742C40.5052 13.5742 39.9238 14.0339 39.9238 14.6009C39.9238 14.877 40.2204 15.0616 40.4447 15.2461C40.681 15.4405 40.8544 15.6276 41.2223 15.6276Z" fill="#AD1619"/>
<path fill-rule="evenodd" clip-rule="evenodd" d="M39.5527 28.3203H42.8917V29.8136C42.8917 29.8136 42.4744 29.627 42.057 29.627C41.6396 29.627 41.2222 29.8136 41.2222 29.8136C41.2222 29.8136 40.8049 29.627 40.3875 29.627C39.9701 29.627 39.5527 29.8136 39.5527 29.8136V28.3203Z" fill="#005BBF"/>
<mask id="mask2_6758_1264" style="mask-type:luminance" maskUnits="userSpaceOnUse" x="39" y="28" width="4" height="2">
<path fill-rule="evenodd" clip-rule="evenodd" d="M39.5527 28.3203H42.8917V29.8136C42.8917 29.8136 42.4744 29.627 42.057 29.627C41.6396 29.627 41.2222 29.8136 41.2222 29.8136C41.2222 29.8136 40.8049 29.627 40.3875 29.627C39.9701 29.627 39.5527 29.8136 39.5527 29.8136V28.3203Z" fill="white"/>
</mask>
<g mask="url(#mask2_6758_1264)">
</g>
<rect x="58.4727" y="17.1211" width="1.855" height="9.70667" fill="#F1F9FF"/>
<path fill-rule="evenodd" clip-rule="evenodd" d="M61.0695 15.4414H57.7305V16.3747H58.2871V17.1208H60.5131V16.3747H61.0695V15.4414Z" fill="#C88A02"/>
<path fill-rule="evenodd" clip-rule="evenodd" d="M60.513 27.3873H61.0695V28.3206H57.7305V27.3873H58.287V26.6406H60.513V27.3873Z" fill="#C88A02"/>
<path fill-rule="evenodd" clip-rule="evenodd" d="M59.402 15.6276C59.8057 15.6276 59.8467 15.4746 60.0849 15.2461C60.2698 15.0687 60.7005 14.8487 60.7005 14.6009C60.7005 14.0339 60.1192 13.5742 59.402 13.5742C58.6849 13.5742 58.1035 14.0339 58.1035 14.6009C58.1035 14.877 58.4001 15.0616 58.6244 15.2461C58.8607 15.4405 59.0341 15.6276 59.402 15.6276Z" fill="#AD1619"/>
<path fill-rule="evenodd" clip-rule="evenodd" d="M57.7305 28.3203H61.0695V29.8136C61.0695 29.8136 60.6521 29.627 60.2347 29.627C59.8173 29.627 59.4 29.8136 59.4 29.8136C59.4 29.8136 58.9826 29.627 58.5652 29.627C58.1478 29.627 57.7305 29.8136 57.7305 29.8136V28.3203Z" fill="#005BBF"/>
<mask id="mask3_6758_1264" style="mask-type:luminance" maskUnits="userSpaceOnUse" x="57" y="28" width="5" height="2">
<path fill-rule="evenodd" clip-rule="evenodd" d="M57.7305 28.3203H61.0695V29.8136C61.0695 29.8136 60.6521 29.627 60.2347 29.627C59.8173 29.627 59.4 29.8136 59.4 29.8136C59.4 29.8136 58.9826 29.627 58.5652 29.627C58.1478 29.627 57.7305 29.8136 57.7305 29.8136V28.3203Z" fill="white"/>
</mask>
<g mask="url(#mask3_6758_1264)">
</g>
<path fill-rule="evenodd" clip-rule="evenodd" d="M40.2614 26.1338C40.5959 25.7258 40.7829 25.3546 40.7829 24.9603C40.7829 24.7118 40.7094 24.4971 40.5806 24.3217L40.6023 24.3118C40.6004 24.3128 40.9692 24.1509 41.0977 24.089C41.3364 23.9738 41.5468 23.8518 41.7518 23.7017C41.8828 23.6059 42.0582 23.5015 42.3256 23.357C42.3718 23.332 42.497 23.2652 42.5769 23.2225L42.6448 23.1862C42.7747 23.1165 42.8715 23.063 42.9615 23.0105C43.2416 22.8469 43.4268 22.7118 43.5684 22.5311C43.9038 22.103 43.8342 21.5228 43.3642 21.2008C43.1339 21.043 42.8231 20.9525 42.3676 20.8812L42.2733 20.8666C42.1176 20.8423 41.8188 20.7958 41.7161 20.7796C41.4981 20.7452 41.3036 20.713 41.1302 20.6826C42.2706 20.4916 43.8991 20.5618 44.6155 20.9339L45.2963 19.607C43.8365 18.8486 40.5106 18.9261 39.2682 19.7871C38.3569 20.4186 38.4792 21.3732 39.4273 21.7842C39.8235 21.956 40.34 22.07 41.2957 22.2245C41.1355 22.318 41.0027 22.4034 40.879 22.4939C40.7536 22.5858 40.6191 22.6637 40.4561 22.7424C40.3781 22.78 40.1472 22.8821 40.0414 22.9288L40.0413 22.9288L40.0413 22.9289L39.9881 22.9524C39.2158 23.3058 38.841 23.7946 38.953 24.6771L39.0136 25.1548L39.1224 25.1884L40.2614 26.1338ZM39.307 24.8984L39.3047 24.9053L39.3065 24.9004L39.307 24.8984ZM59.6702 24.9603C59.6702 25.3546 59.8573 25.7258 60.1917 26.1338L61.3307 25.1884L61.4395 25.1548L61.5001 24.6771C61.6121 23.7946 61.2373 23.3058 60.465 22.9524L60.4118 22.9289L60.4118 22.9288C60.3059 22.8821 60.075 22.78 59.9971 22.7424C59.834 22.6637 59.6996 22.5858 59.5741 22.4939C59.4504 22.4034 59.3176 22.318 59.1574 22.2245C60.1132 22.07 60.6296 21.956 61.0258 21.7842C61.9739 21.3732 62.0962 20.4186 61.185 19.7871C59.9426 18.9261 56.6166 18.8486 55.1569 19.607L55.8377 20.9339C56.554 20.5618 58.1825 20.4916 59.3229 20.6826C59.1495 20.713 58.955 20.7452 58.737 20.7796C58.6344 20.7958 58.3358 20.8423 58.1801 20.8665L58.1796 20.8666L58.0855 20.8812C57.63 20.9525 57.3193 21.043 57.089 21.2008C56.6189 21.5228 56.5493 22.103 56.8847 22.5311C57.0263 22.7118 57.2115 22.8469 57.4917 23.0105C57.5816 23.063 57.6784 23.1165 57.8083 23.1862L57.8766 23.2227C57.9565 23.2654 58.0814 23.3321 58.1275 23.357C58.3949 23.5015 58.5703 23.6059 58.7013 23.7017C58.9064 23.8518 59.1167 23.9738 59.3554 24.089C59.4839 24.1509 59.8528 24.3128 59.8508 24.3118L59.8725 24.3217C59.7437 24.4971 59.6702 24.7118 59.6702 24.9603Z" fill="#AD1619"/>
<path d="M41.811 20.668L42.3585 20.782V21.6032C41.7754 22.0714 40.2949 22.8606 40.2949 22.8606V20.668H41.811Z" fill="#F1F9FF"/>
<path d="M59.021 20.668L58.4735 20.782V21.6032C59.0567 22.0714 60.5371 22.8606 60.5371 22.8606V20.668H59.021Z" fill="#F1F9FF"/>
<path fill-rule="evenodd" clip-rule="evenodd" d="M47.3413 10.7024C45.775 10.7024 44.3438 11.736 44.3438 11.736V12.0093L46.2147 13.9002C46.2147 13.9002 46.7411 15.7193 50.4268 15.2928C50.4282 15.296 50.429 15.2976 50.429 15.2976C50.429 15.2976 52.8709 15.2305 53.0425 15.1731C53.1105 15.1503 53.1811 15.1296 53.2533 15.1084C53.7316 14.9679 54.2776 14.8075 54.6026 13.9007L56.4736 12.0099V11.7366C55.5194 11.0475 54.5202 10.7029 53.476 10.7029C52.4751 10.2572 51.462 10.0842 50.4367 10.1838C50.437 10.1803 50.4372 10.1785 50.4372 10.1785C48.8952 10.0266 47.3413 10.7024 47.3413 10.7024ZM50.4276 10.2903C50.4199 10.3813 50.4083 10.5239 50.3946 10.7045C50.4119 10.5731 50.4237 10.4354 50.4276 10.2903Z" fill="#AD1619"/>
<path fill-rule="evenodd" clip-rule="evenodd" d="M44.4551 12.3313L44.5822 12.1953L46.2807 13.8034C46.6011 13.7167 48.3526 13.2671 50.3093 13.245V13.2441L50.3838 13.2444L50.4583 13.2441V13.245C52.6244 13.2695 54.5391 13.8178 54.5391 13.8178C54.5391 13.8178 54.5184 13.9955 54.4683 14.2042C54.5212 14.095 54.5839 13.9737 54.6564 13.8398L54.6743 13.8164L56.3866 12.1953L56.5137 12.3313L54.8122 13.9421C54.564 14.4022 54.439 14.7058 54.439 14.832C54.439 15.0244 53.9414 15.1386 52.9704 15.2559C52.2096 15.3478 51.3117 15.4095 50.5773 15.4187V15.4199C50.5466 15.4199 50.5157 15.4198 50.4844 15.4196C50.4531 15.4198 50.4221 15.4199 50.3915 15.4199V15.4187C49.6571 15.4095 48.7591 15.3478 47.9983 15.2559C47.0273 15.1386 46.5298 15.0244 46.5298 14.832C46.5298 14.8077 46.5252 14.777 46.516 14.7398C46.4191 14.6149 46.3507 14.4119 46.3051 14.228C46.2618 14.1408 46.2123 14.0454 46.1565 13.9421L44.4551 12.3313ZM53.9511 14.8351C54.0813 14.8964 54.1855 14.8351 54.268 14.7176C54.2607 14.7504 54.2562 14.7799 54.2544 14.8064C54.2435 14.8136 54.2268 14.8222 54.2049 14.8315C54.1438 14.8573 54.0505 14.8849 53.9291 14.9127C53.6905 14.9675 53.3508 15.022 52.9483 15.0706C52.1622 15.1656 51.2275 15.2281 50.4844 15.233C49.7413 15.2281 48.8065 15.1656 48.0204 15.0706C47.6179 15.022 47.2783 14.9675 47.0396 14.9127C46.9377 14.8893 46.8555 14.8661 46.7956 14.844C46.8025 14.8414 46.8095 14.8384 46.8165 14.8351C47.2217 14.6443 49.9009 14.4653 50.3838 14.4344C50.8667 14.4653 53.5459 14.6443 53.9511 14.8351ZM54.4609 14.8008C54.4603 14.8013 54.4595 14.8022 54.4585 14.8036L54.4598 14.8017L54.4609 14.8008Z" fill="#C88A02"/>
<path fill-rule="evenodd" clip-rule="evenodd" d="M50.4061 8.91297C50.7135 8.91297 50.9626 8.66225 50.9626 8.35297C50.9626 8.04369 50.7135 7.79297 50.4061 7.79297C50.0988 7.79297 49.8496 8.04369 49.8496 8.35297C49.8496 8.66225 50.0988 8.91297 50.4061 8.91297Z" fill="#005BBF"/>
<path fill-rule="evenodd" clip-rule="evenodd" d="M50.1973 6.79492H50.5837V7.04102H50.8368V7.4299H50.5837V8.20726H50.8368V8.59615H49.9414V8.20726H50.1973V7.4299H49.9414V7.04102H50.1973V6.79492Z" fill="#C88A02"/>
<rect x="50.127" y="8.9082" width="0.742" height="2.42667" fill="#C88A02"/>
<path d="M44.767 12.1615L43.748 12.123C44.2288 9.32697 46.5965 7.95703 50.3801 7.95703C54.1686 7.95703 56.528 9.3329 56.9726 12.1393L55.5944 12.2848C55.3781 10.9191 53.1049 9.68317 50.4 9.68317C47.6902 9.68317 45.0036 10.7854 44.767 12.1615Z" fill="#C88A02"/>
<path opacity="0.3" fill-rule="evenodd" clip-rule="evenodd" d="M44.375 15.4414H56.4325V26.3428C56.4325 26.3428 55.5368 30.0014 50.4038 30.0014C45.2707 30.0014 44.375 26.2463 44.375 26.2463V15.4414Z" fill="#E1E5E8"/>
<mask id="mask4_6758_1264" style="mask-type:luminance" maskUnits="userSpaceOnUse" x="44" y="15" width="13" height="16">
<path fill-rule="evenodd" clip-rule="evenodd" d="M44.375 15.4414H56.4325V26.3428C56.4325 26.3428 55.5368 30.0014 50.4038 30.0014C45.2707 30.0014 44.375 26.2463 44.375 26.2463V15.4414Z" fill="white"/>
</mask>
<g mask="url(#mask4_6758_1264)">
<rect x="44.375" y="22.1621" width="6.1215" height="7.28" fill="#FFC034"/>
<rect x="44.375" y="15.2539" width="6.1215" height="7.09333" fill="#AD1619"/>
<rect x="50.3105" y="21.9746" width="6.1215" height="7.09333" fill="#AD1619"/>
<rect x="50.3105" y="15.4414" width="6.4925" height="6.90667" fill="#F1F9FF"/>
<path fill-rule="evenodd" clip-rule="evenodd" d="M54.3307 29.0731C54.3307 29.0731 50.4017 29.3839 50.4017 26.834C50.4017 26.834 50.3643 29.0731 46.2617 29.0731V31.0861H54.3307V29.0731Z" fill="#F1F9FF"/>
<path fill-rule="evenodd" clip-rule="evenodd" d="M50.403 23.6546C51.1713 23.6546 51.7942 22.986 51.7942 22.1613C51.7942 21.3366 51.1713 20.668 50.403 20.668C49.6346 20.668 49.0117 21.3366 49.0117 22.1613C49.0117 22.986 49.6346 23.6546 50.403 23.6546Z" fill="#005BBF" stroke="#AD1619" stroke-width="0.583333"/>
</g>
<path fill-rule="evenodd" clip-rule="evenodd" d="M46.9062 20.0013C47.821 20.0013 48.5625 19.2551 48.5625 18.3346C48.5625 17.4142 47.821 16.668 46.9062 16.668C45.9915 16.668 45.25 17.4142 45.25 18.3346C45.25 19.2551 45.9915 20.0013 46.9062 20.0013Z" fill="#C88A02"/>
<path fill-rule="evenodd" clip-rule="evenodd" d="M53.5312 20.0013C54.446 20.0013 55.1875 19.2551 55.1875 18.3346C55.1875 17.4142 54.446 16.668 53.5312 16.668C52.6165 16.668 51.875 17.4142 51.875 18.3346C51.875 19.2551 52.6165 20.0013 53.5312 20.0013Z" fill="#C37C9C"/>
<path fill-rule="evenodd" clip-rule="evenodd" d="M53.5312 26.6673C54.446 26.6673 55.1875 25.9211 55.1875 25.0007C55.1875 24.0802 54.446 23.334 53.5312 23.334C52.6165 23.334 51.875 24.0802 51.875 25.0007C51.875 25.9211 52.6165 26.6673 53.5312 26.6673Z" fill="#FFC034"/>
<path d="M46.9062 26.6673C47.821 26.6673 48.5625 25.9211 48.5625 25.0007C48.5625 24.0802 47.821 23.334 46.9062 23.334C45.9915 23.334 45.25 24.0802 45.25 25.0007C45.25 25.9211 45.9915 26.6673 46.9062 26.6673Z" fill="#AD1619"/>
</g>
</g>
</g>
<rect x="34.5" y="0.5" width="39" height="39" rx="19.5" stroke="black" stroke-opacity="0.1" style="mix-blend-mode:multiply"/>
<g clip-path="url(#clip4_6758_1264)">
<g clip-path="url(#clip5_6758_1264)">
<rect width="44" height="40" transform="translate(66)" fill="white"/>
<path fill-rule="evenodd" clip-rule="evenodd" d="M96.25 0H110V40H96.25V0Z" fill="#F50100"/>
<path fill-rule="evenodd" clip-rule="evenodd" d="M66 0H82.5V40H66V0Z" fill="#2E42A5"/>
<path fill-rule="evenodd" clip-rule="evenodd" d="M79.75 0H96.25V40H79.75V0Z" fill="#F7FCFF"/>
</g>
</g>
<rect x="68.5" y="0.5" width="39" height="39" rx="19.5" stroke="black" stroke-opacity="0.1" style="mix-blend-mode:multiply"/>
<g clip-path="url(#clip6_6758_1264)">
<rect x="102" width="40" height="40" rx="20" fill="white"/>
<path fill-rule="evenodd" clip-rule="evenodd" d="M89 -5H155.25V45H89V-5Z" fill="#E31D1C"/>
<path fill-rule="evenodd" clip-rule="evenodd" d="M89 -0.833984V3.33268H155.25V-0.833984H89ZM89 7.5V11.6667H155.25V7.5H89ZM89 19.9987V15.832H155.25V19.9987H89ZM89 24.166V28.3327H155.25V24.166H89ZM89 36.6667V32.5H155.25V36.6667H89ZM89 44.9987V40.832H155.25V44.9987H89Z" fill="#F7FCFF"/>
<rect x="89" y="-5" width="37.2656" height="29.1667" fill="#2E42A5"/>
<path fill-rule="evenodd" clip-rule="evenodd" d="M93.3057 4.05696L95.4999 2.51891L97.2011 3.75131H96.2383L98.1871 5.48589L97.5285 7.91928H96.4979L95.4969 5.68555L94.6431 7.91928H92.0977L94.0465 9.65385L93.3057 12.3909L95.4999 10.8529L97.2011 12.0853H96.2383L98.1871 13.8199L97.5291 16.2513H96.4979L95.4969 14.0176L94.6431 16.2513H92.0977L94.0465 17.9859L93.3057 20.723L95.4999 19.1849L97.623 20.723L96.9629 17.9859L98.6679 16.2513H97.8824L99.6406 15.0189L101.342 16.2513H100.379L102.328 17.9859L101.587 20.723L103.781 19.1849L105.904 20.723L105.244 17.9859L106.949 16.2513H106.164L107.922 15.0189L109.623 16.2513H108.66L110.609 17.9859L109.868 20.723L112.062 19.1849L114.185 20.723L113.525 17.9859L115.23 16.2513H114.445L116.203 15.0189L117.904 16.2513H116.941L118.89 17.9859L118.149 20.723L120.344 19.1849L122.467 20.723L121.807 17.9859L123.512 16.2513H121.342L120.341 14.0176L119.487 16.2513H118.252L117.666 13.8199L119.371 12.0853H118.586L120.344 10.8529L122.467 12.3909L121.807 9.65385L123.512 7.91928H121.342L120.341 5.68555L119.487 7.91928H118.253L117.666 5.48589L119.371 3.75131H118.586L120.344 2.51891L122.467 4.05696L121.807 1.31987L123.512 -0.414704H121.342L120.341 -2.64844L119.487 -0.414704H116.941L118.89 1.31987L118.232 3.75131H117.201L116.2 1.51758L115.346 3.75131H114.112L113.525 1.31987L115.23 -0.414704H113.06L112.059 -2.64844L111.206 -0.414704H108.66L110.609 1.31987L109.951 3.75131H108.92L107.919 1.51758L107.065 3.75131H105.831L105.244 1.31987L106.949 -0.414704H104.779L103.778 -2.64844L102.924 -0.414704H100.379L102.328 1.31987L101.67 3.75131H100.639L99.6375 1.51758L98.7838 3.75131H97.5493L96.9629 1.31987L98.6679 -0.414704H96.4979L95.4969 -2.64844L94.6431 -0.414704H92.0977L94.0465 1.31987L93.3057 4.05696ZM118.232 12.0853L118.89 9.65385L116.941 7.91928H117.907L116.203 6.68493L114.442 7.91928H115.23L113.525 9.65385L114.112 12.0853H115.346L116.2 9.85156L117.201 12.0853H118.232ZM113.764 12.0853L112.062 10.8529L110.304 12.0853H111.09L109.385 13.8199L109.971 16.2513H111.206L112.059 14.0176L113.06 16.2513H114.092L114.75 13.8199L112.801 12.0853H113.764ZM106.468 13.8199L105.81 16.2513H104.779L103.778 14.0176L102.924 16.2513H101.69L101.104 13.8199L102.809 12.0853H102.023L103.781 10.8529L105.482 12.0853H104.52L106.468 13.8199ZM107.065 12.0853H105.831L105.244 9.65385L106.949 7.91928H106.161L107.922 6.68493L109.626 7.91928H108.66L110.609 9.65385L109.951 12.0853H108.92L107.919 9.85156L107.065 12.0853ZM101.67 12.0853L102.328 9.65385L100.379 7.91928H101.344L99.6406 6.68493L97.8796 7.91928H98.6679L96.9629 9.65385L97.5493 12.0853H98.7838L99.6375 9.85156L100.639 12.0853H101.67ZM114.75 5.48589L114.091 7.91928H113.06L112.059 5.68555L111.206 7.91928H109.972L109.385 5.48589L111.09 3.75131H110.304L112.062 2.51891L113.764 3.75131H112.801L114.75 5.48589ZM105.482 3.75131L103.781 2.51891L102.023 3.75131H102.809L101.104 5.48589L101.69 7.91928H102.924L103.778 5.68555L104.779 7.91928H105.81L106.468 5.48589L104.52 3.75131H105.482Z" fill="#F7FCFF"/>
</g>
<defs>
<clipPath id="clip0_6758_1264">
<rect width="40" height="40" rx="20" fill="white"/>
</clipPath>
<clipPath id="clip1_6758_1264">
<rect width="53" height="40" fill="white" transform="translate(-6)"/>
</clipPath>
<clipPath id="clip2_6758_1264">
<rect x="34" width="40" height="40" rx="20" fill="white"/>
</clipPath>
<clipPath id="clip3_6758_1264">
<rect width="53" height="40" fill="white" transform="translate(32)"/>
</clipPath>
<clipPath id="clip4_6758_1264">
<rect x="68" width="40" height="40" rx="20" fill="white"/>
</clipPath>
<clipPath id="clip5_6758_1264">
<rect width="44" height="40" fill="white" transform="translate(66)"/>
</clipPath>
<clipPath id="clip6_6758_1264">
<rect x="102" width="40" height="40" rx="20" fill="white"/>
</clipPath>
</defs>
</svg>
