<svg width="34" height="35" viewBox="0 0 34 35" fill="none" xmlns="http://www.w3.org/2000/svg">
<g id="heroicons-solid/arrow-path" clip-path="url(#clip0_6795_5094)">
<path id="Vector (Stroke)" fill-rule="evenodd" clip-rule="evenodd" d="M10.9341 22.057C8.32515 18.8398 8.81824 14.1167 12.0355 11.5077C13.0977 10.6463 14.322 10.1239 15.5801 9.92495L18.238 9.50208L16.3685 12.0791C16.1253 12.4143 16.1999 12.8833 16.5351 13.1266C16.8704 13.3698 17.3394 13.2952 17.5826 12.9599L20.5144 8.91876C20.6312 8.75774 20.6793 8.55691 20.648 8.36045C20.6167 8.16399 20.5087 7.98801 20.3477 7.87121L16.3066 4.93951C15.9713 4.69627 15.5024 4.77088 15.2591 5.10616C15.0159 5.44144 15.0905 5.91041 15.4258 6.15365L17.9999 8.02111L15.3458 8.44336C13.8343 8.68247 12.3631 9.31083 11.0907 10.3427C7.23001 13.4734 6.6383 19.1411 9.76906 23.0018C10.03 23.3235 10.5023 23.3728 10.824 23.1119C11.1457 22.851 11.195 22.3787 10.9341 22.057ZM22.6949 11.5542C22.3732 11.8151 22.3238 12.2874 22.5847 12.6091C25.1937 15.8263 24.7006 20.5494 21.4834 23.1584C20.4212 24.0197 19.1969 24.5422 17.9388 24.7411L15.2815 25.163L17.1505 22.5868C17.3937 22.2515 17.3191 21.7825 16.9839 21.5393C16.6486 21.296 16.1796 21.3707 15.9364 21.7059L13.0046 25.7471C12.7613 26.0824 12.836 26.5514 13.1712 26.7946L17.2124 29.7264C17.5477 29.9696 18.0167 29.895 18.2599 29.5597C18.5031 29.2245 18.4285 28.7555 18.0932 28.5122L15.5183 26.6442L18.1731 26.2227C19.6847 25.9837 21.1557 25.3554 22.4282 24.3234C26.2889 21.1927 26.8806 15.525 23.7498 11.6643C23.4889 11.3426 23.0166 11.2933 22.6949 11.5542Z" fill="#18B979"/>
</g>
<defs>
<clipPath id="clip0_6795_5094">
<rect width="24" height="24" fill="white" transform="translate(0 20) rotate(-54.0399)"/>
</clipPath>
</defs>
</svg>
