<svg width="38" height="38" viewBox="0 0 38 38" fill="none" xmlns="http://www.w3.org/2000/svg">
<rect x="0.75" y="0.75" width="36.5" height="36.5" rx="18.25" stroke="#18B979" stroke-width="1.5"/>
<path d="M8.80006 22.4116L8.05006 22.4117L8.80006 22.4116ZM8.7998 13.4118L9.5498 13.4118L8.7998 13.4118ZM18.9997 25.5617C19.4139 25.5617 19.7497 25.2259 19.7497 24.8117C19.7497 24.3975 19.414 24.0617 18.9998 24.0617L18.9997 25.5617ZM11.2 24.8116L11.2 24.0616H11.2L11.2 24.8116ZM27.9993 13.4116L27.2493 13.4117V13.4117L27.9993 13.4116ZM9.39934 14.4616C8.98513 14.4616 8.64934 14.7974 8.64934 15.2116C8.64934 15.6258 8.98513 15.9616 9.39934 15.9616V14.4616ZM27.3993 15.9616C27.8136 15.9616 28.1493 15.6258 28.1493 15.2116C28.1493 14.7974 27.8136 14.4616 27.3993 14.4616V15.9616ZM23.1993 20.4866L22.8639 19.8158C22.6098 19.9429 22.4493 20.2026 22.4493 20.4866H23.1993ZM26.1993 26.9866L25.7989 27.6208C26.0435 27.7753 26.3552 27.7753 26.5998 27.6208L26.1993 26.9866ZM29.1993 20.4866H29.9493C29.9493 20.2026 29.7888 19.9429 29.5348 19.8158L29.1993 20.4866ZM24.5894 19.7916L24.9248 20.4625L24.5894 19.7916ZM27.8093 19.7916L27.4739 20.4625H27.4739L27.8093 19.7916ZM11.1998 11.0117V11.7617H25.5988V11.0117V10.2617H11.1998V11.0117ZM8.80006 22.4116L9.55006 22.4116L9.5498 13.4118L8.7998 13.4118L8.0498 13.4118L8.05006 22.4117L8.80006 22.4116ZM18.9997 24.8117L18.9998 24.0617L11.2 24.0616L11.2 24.8116L11.2 25.5616L18.9997 25.5617L18.9997 24.8117ZM27.9993 13.4116L27.2493 13.4117L27.2493 15.2117L27.9993 15.2117L28.7493 15.2117L28.7493 13.4116L27.9993 13.4116ZM11.1998 11.0117V10.2617C9.46007 10.2617 8.04976 11.6721 8.0498 13.4118L8.7998 13.4118L9.5498 13.4118C9.54978 12.5005 10.2885 11.7617 11.1998 11.7617V11.0117ZM25.5988 11.0117V11.7617C26.5105 11.7617 27.2493 12.5004 27.2493 13.4117L27.9993 13.4116L28.7493 13.4116C28.7493 11.6715 27.3384 10.2617 25.5988 10.2617V11.0117ZM8.80006 22.4116L8.05006 22.4117C8.05011 24.1513 9.46037 25.5615 11.2 25.5616L11.2 24.8116L11.2 24.0616C10.2888 24.0616 9.55009 23.3229 9.55006 22.4116L8.80006 22.4116ZM9.39934 15.2116V15.9616H27.3993V15.2116V14.4616H9.39934V15.2116ZM24.5894 19.7916L24.254 19.1208L22.8639 19.8158L23.1993 20.4866L23.5348 21.1575L24.9248 20.4625L24.5894 19.7916ZM23.1993 20.4866H22.4493V23.8316H23.1993H23.9493V20.4866H23.1993ZM23.1993 23.8316H22.4493C22.4493 24.5793 22.8831 25.2439 23.4369 25.8137C24.0061 26.3992 24.8137 26.9986 25.7989 27.6208L26.1993 26.9866L26.5998 26.3525C25.6527 25.7544 24.9603 25.2288 24.5125 24.7681C24.0494 24.2917 23.9493 23.989 23.9493 23.8316H23.1993ZM26.1993 26.9866L26.5998 27.6208C27.5556 27.0172 28.3723 26.4781 28.9454 25.9237C29.539 25.3495 29.9493 24.6839 29.9493 23.8316H29.1993H28.4493C28.4493 24.1344 28.3258 24.4361 27.9025 24.8456C27.4587 25.2749 26.7754 25.7358 25.7989 26.3525L26.1993 26.9866ZM29.1993 23.8316H29.9493C29.9493 23.8294 29.9493 23.8271 29.9493 23.8249C29.9493 23.8226 29.9493 23.8203 29.9493 23.8181C29.9493 23.8158 29.9493 23.8135 29.9493 23.8112C29.9493 23.809 29.9493 23.8067 29.9493 23.8044C29.9493 23.8021 29.9493 23.7998 29.9493 23.7975C29.9493 23.7952 29.9493 23.7929 29.9493 23.7906C29.9493 23.7883 29.9493 23.786 29.9493 23.7837C29.9493 23.7814 29.9493 23.7791 29.9493 23.7768C29.9493 23.7744 29.9493 23.7721 29.9493 23.7698C29.9493 23.7675 29.9493 23.7651 29.9493 23.7628C29.9493 23.7605 29.9493 23.7581 29.9493 23.7558C29.9493 23.7535 29.9493 23.7511 29.9493 23.7488C29.9493 23.7464 29.9493 23.7441 29.9493 23.7417C29.9493 23.7394 29.9493 23.737 29.9493 23.7346C29.9493 23.7323 29.9493 23.7299 29.9493 23.7275C29.9493 23.7252 29.9493 23.7228 29.9493 23.7204C29.9493 23.7181 29.9493 23.7157 29.9493 23.7133C29.9493 23.7109 29.9493 23.7085 29.9493 23.7061C29.9493 23.7037 29.9493 23.7013 29.9493 23.699C29.9493 23.6966 29.9493 23.6942 29.9493 23.6917C29.9493 23.6893 29.9493 23.6869 29.9493 23.6845C29.9493 23.6821 29.9493 23.6797 29.9493 23.6773C29.9493 23.6749 29.9493 23.6724 29.9493 23.67C29.9493 23.6676 29.9493 23.6652 29.9493 23.6627C29.9493 23.6603 29.9493 23.6579 29.9493 23.6554C29.9493 23.653 29.9493 23.6506 29.9493 23.6481C29.9493 23.6457 29.9493 23.6432 29.9493 23.6408C29.9493 23.6383 29.9493 23.6359 29.9493 23.6334C29.9493 23.6309 29.9493 23.6285 29.9493 23.626C29.9493 23.6235 29.9493 23.6211 29.9493 23.6186C29.9493 23.6161 29.9493 23.6137 29.9493 23.6112C29.9493 23.6087 29.9493 23.6062 29.9493 23.6037C29.9493 23.6013 29.9493 23.5988 29.9493 23.5963C29.9493 23.5938 29.9493 23.5913 29.9493 23.5888C29.9493 23.5863 29.9493 23.5838 29.9493 23.5813C29.9493 23.5788 29.9493 23.5763 29.9493 23.5738C29.9493 23.5713 29.9493 23.5688 29.9493 23.5662C29.9493 23.5637 29.9493 23.5612 29.9493 23.5587C29.9493 23.5562 29.9493 23.5536 29.9493 23.5511C29.9493 23.5486 29.9493 23.5461 29.9493 23.5435C29.9493 23.541 29.9493 23.5385 29.9493 23.5359C29.9493 23.5334 29.9493 23.5308 29.9493 23.5283C29.9493 23.5258 29.9493 23.5232 29.9493 23.5207C29.9493 23.5181 29.9493 23.5155 29.9493 23.513C29.9493 23.5104 29.9493 23.5079 29.9493 23.5053C29.9493 23.5027 29.9493 23.5002 29.9493 23.4976C29.9493 23.495 29.9493 23.4925 29.9493 23.4899C29.9493 23.4873 29.9493 23.4847 29.9493 23.4822C29.9493 23.4796 29.9493 23.477 29.9493 23.4744C29.9493 23.4718 29.9493 23.4693 29.9493 23.4667C29.9493 23.4641 29.9493 23.4615 29.9493 23.4589C29.9493 23.4563 29.9493 23.4537 29.9493 23.4511C29.9493 23.4485 29.9493 23.4459 29.9493 23.4433C29.9493 23.4407 29.9493 23.4381 29.9493 23.4354C29.9493 23.4328 29.9493 23.4302 29.9493 23.4276C29.9493 23.425 29.9493 23.4224 29.9493 23.4197C29.9493 23.4171 29.9493 23.4145 29.9493 23.4119C29.9493 23.4092 29.9493 23.4066 29.9493 23.404C29.9493 23.4013 29.9493 23.3987 29.9493 23.3961C29.9493 23.3934 29.9493 23.3908 29.9493 23.3881C29.9493 23.3855 29.9493 23.3829 29.9493 23.3802C29.9493 23.3776 29.9493 23.3749 29.9493 23.3723C29.9493 23.3696 29.9493 23.3669 29.9493 23.3643C29.9493 23.3616 29.9493 23.359 29.9493 23.3563C29.9493 23.3536 29.9493 23.351 29.9493 23.3483C29.9493 23.3456 29.9493 23.343 29.9493 23.3403C29.9493 23.3376 29.9493 23.335 29.9493 23.3323C29.9493 23.3296 29.9493 23.3269 29.9493 23.3242C29.9493 23.3216 29.9493 23.3189 29.9493 23.3162C29.9493 23.3135 29.9493 23.3108 29.9493 23.3081C29.9493 23.3054 29.9493 23.3027 29.9493 23.3C29.9493 23.2973 29.9493 23.2946 29.9493 23.2919C29.9493 23.2892 29.9493 23.2865 29.9493 23.2838C29.9493 23.2811 29.9493 23.2784 29.9493 23.2757C29.9493 23.273 29.9493 23.2703 29.9493 23.2676C29.9493 23.2649 29.9493 23.2622 29.9493 23.2594C29.9493 23.2567 29.9493 23.254 29.9493 23.2513C29.9493 23.2486 29.9493 23.2458 29.9493 23.2431C29.9493 23.2404 29.9493 23.2377 29.9493 23.2349C29.9493 23.2322 29.9493 23.2295 29.9493 23.2267C29.9493 23.224 29.9493 23.2213 29.9493 23.2185C29.9493 23.2158 29.9493 23.2131 29.9493 23.2103C29.9493 23.2076 29.9493 23.2048 29.9493 23.2021C29.9493 23.1993 29.9493 23.1966 29.9493 23.1938C29.9493 23.1911 29.9493 23.1883 29.9493 23.1856C29.9493 23.1828 29.9493 23.1801 29.9493 23.1773C29.9493 23.1746 29.9493 23.1718 29.9493 23.169C29.9493 23.1663 29.9493 23.1635 29.9493 23.1608C29.9493 23.158 29.9493 23.1552 29.9493 23.1525C29.9493 23.1497 29.9493 23.1469 29.9493 23.1441C29.9493 23.1414 29.9493 23.1386 29.9493 23.1358C29.9493 23.133 29.9493 23.1303 29.9493 23.1275C29.9493 23.1247 29.9493 23.1219 29.9493 23.1191C29.9493 23.1164 29.9493 23.1136 29.9493 23.1108C29.9493 23.108 29.9493 23.1052 29.9493 23.1024C29.9493 23.0996 29.9493 23.0969 29.9493 23.0941C29.9493 23.0913 29.9493 23.0885 29.9493 23.0857C29.9493 23.0829 29.9493 23.0801 29.9493 23.0773C29.9493 23.0745 29.9493 23.0717 29.9493 23.0689C29.9493 23.0661 29.9493 23.0633 29.9493 23.0605C29.9493 23.0577 29.9493 23.0549 29.9493 23.0521C29.9493 23.0492 29.9493 23.0464 29.9493 23.0436C29.9493 23.0408 29.9493 23.038 29.9493 23.0352C29.9493 23.0324 29.9493 23.0296 29.9493 23.0267C29.9493 23.0239 29.9493 23.0211 29.9493 23.0183C29.9493 23.0155 29.9493 23.0126 29.9493 23.0098C29.9493 23.007 29.9493 23.0042 29.9493 23.0013C29.9493 22.9985 29.9493 22.9957 29.9493 22.9929C29.9493 22.99 29.9493 22.9872 29.9493 22.9844C29.9493 22.9815 29.9493 22.9787 29.9493 22.9759C29.9493 22.973 29.9493 22.9702 29.9493 22.9674C29.9493 22.9645 29.9493 22.9617 29.9493 22.9589C29.9493 22.956 29.9493 22.9532 29.9493 22.9503C29.9493 22.9475 29.9493 22.9447 29.9493 22.9418C29.9493 22.939 29.9493 22.9361 29.9493 22.9333C29.9493 22.9304 29.9493 22.9276 29.9493 22.9247C29.9493 22.9219 29.9493 22.919 29.9493 22.9162C29.9493 22.9133 29.9493 22.9105 29.9493 22.9076C29.9493 22.9048 29.9493 22.9019 29.9493 22.8991C29.9493 22.8962 29.9493 22.8934 29.9493 22.8905C29.9493 22.8876 29.9493 22.8848 29.9493 22.8819C29.9493 22.8791 29.9493 22.8762 29.9493 22.8733C29.9493 22.8705 29.9493 22.8676 29.9493 22.8648C29.9493 22.8619 29.9493 22.859 29.9493 22.8562C29.9493 22.8533 29.9493 22.8504 29.9493 22.8476C29.9493 22.8447 29.9493 22.8418 29.9493 22.839C29.9493 22.8361 29.9493 22.8332 29.9493 22.8303C29.9493 22.8275 29.9493 22.8246 29.9493 22.8217C29.9493 22.8189 29.9493 22.816 29.9493 22.8131C29.9493 22.8102 29.9493 22.8074 29.9493 22.8045C29.9493 22.8016 29.9493 22.7987 29.9493 22.7958C29.9493 22.793 29.9493 22.7901 29.9493 22.7872C29.9493 22.7843 29.9493 22.7815 29.9493 22.7786C29.9493 22.7757 29.9493 22.7728 29.9493 22.7699C29.9493 22.767 29.9493 22.7642 29.9493 22.7613C29.9493 22.7584 29.9493 22.7555 29.9493 22.7526C29.9493 22.7497 29.9493 22.7468 29.9493 22.744C29.9493 22.7411 29.9493 22.7382 29.9493 22.7353C29.9493 22.7324 29.9493 22.7295 29.9493 22.7266C29.9493 22.7237 29.9493 22.7209 29.9493 22.718C29.9493 22.7151 29.9493 22.7122 29.9493 22.7093C29.9493 22.7064 29.9493 22.7035 29.9493 22.7006C29.9493 22.6977 29.9493 22.6948 29.9493 22.6919C29.9493 22.689 29.9493 22.6861 29.9493 22.6833C29.9493 22.6804 29.9493 22.6775 29.9493 22.6746C29.9493 22.6717 29.9493 22.6688 29.9493 22.6659C29.9493 22.663 29.9493 22.6601 29.9493 22.6572C29.9493 22.6543 29.9493 22.6514 29.9493 22.6485C29.9493 22.6456 29.9493 22.6427 29.9493 22.6398C29.9493 22.6369 29.9493 22.634 29.9493 22.6311C29.9493 22.6282 29.9493 22.6253 29.9493 22.6224C29.9493 22.6195 29.9493 22.6166 29.9493 22.6137C29.9493 22.6108 29.9493 22.6079 29.9493 22.605C29.9493 22.6021 29.9493 22.5992 29.9493 22.5963C29.9493 22.5934 29.9493 22.5905 29.9493 22.5876C29.9493 22.5847 29.9493 22.5818 29.9493 22.5789C29.9493 22.576 29.9493 22.5731 29.9493 22.5702C29.9493 22.5673 29.9493 22.5644 29.9493 22.5615C29.9493 22.5586 29.9493 22.5556 29.9493 22.5527C29.9493 22.5498 29.9493 22.5469 29.9493 22.544C29.9493 22.5411 29.9493 22.5382 29.9493 22.5353C29.9493 22.5324 29.9493 22.5295 29.9493 22.5266C29.9493 22.5237 29.9493 22.5208 29.9493 22.5179C29.9493 22.515 29.9493 22.5121 29.9493 22.5092C29.9493 22.5063 29.9493 22.5034 29.9493 22.5005C29.9493 22.4976 29.9493 22.4947 29.9493 22.4917C29.9493 22.4888 29.9493 22.4859 29.9493 22.483C29.9493 22.4801 29.9493 22.4772 29.9493 22.4743C29.9493 22.4714 29.9493 22.4685 29.9493 22.4656C29.9493 22.4627 29.9493 22.4598 29.9493 22.4569C29.9493 22.454 29.9493 22.4511 29.9493 22.4482C29.9493 22.4453 29.9493 22.4424 29.9493 22.4395C29.9493 22.4366 29.9493 22.4337 29.9493 22.4308C29.9493 22.4279 29.9493 22.425 29.9493 22.4221C29.9493 22.4192 29.9493 22.4163 29.9493 22.4134C29.9493 22.4105 29.9493 22.4076 29.9493 22.4046C29.9493 22.4017 29.9493 22.3988 29.9493 22.3959C29.9493 22.393 29.9493 22.3901 29.9493 22.3872C29.9493 22.3843 29.9493 22.3814 29.9493 22.3785C29.9493 22.3756 29.9493 22.3727 29.9493 22.3698C29.9493 22.367 29.9493 22.3641 29.9493 22.3612C29.9493 22.3583 29.9493 22.3554 29.9493 22.3525C29.9493 22.3496 29.9493 22.3467 29.9493 22.3438C29.9493 22.3409 29.9493 22.338 29.9493 22.3351C29.9493 22.3322 29.9493 22.3293 29.9493 22.3264C29.9493 22.3235 29.9493 22.3206 29.9493 22.3177C29.9493 22.3148 29.9493 22.3119 29.9493 22.309C29.9493 22.3061 29.9493 22.3033 29.9493 22.3004C29.9493 22.2975 29.9493 22.2946 29.9493 22.2917C29.9493 22.2888 29.9493 22.2859 29.9493 22.283C29.9493 22.2801 29.9493 22.2772 29.9493 22.2744C29.9493 22.2715 29.9493 22.2686 29.9493 22.2657C29.9493 22.2628 29.9493 22.2599 29.9493 22.257C29.9493 22.2542 29.9493 22.2513 29.9493 22.2484C29.9493 22.2455 29.9493 22.2426 29.9493 22.2397C29.9493 22.2369 29.9493 22.234 29.9493 22.2311C29.9493 22.2282 29.9493 22.2253 29.9493 22.2225C29.9493 22.2196 29.9493 22.2167 29.9493 22.2138C29.9493 22.2109 29.9493 22.2081 29.9493 22.2052C29.9493 22.2023 29.9493 22.1994 29.9493 22.1966C29.9493 22.1937 29.9493 22.1908 29.9493 22.188C29.9493 22.1851 29.9493 22.1822 29.9493 22.1793C29.9493 22.1765 29.9493 22.1736 29.9493 22.1707C29.9493 22.1679 29.9493 22.165 29.9493 22.1621C29.9493 22.1593 29.9493 22.1564 29.9493 22.1535C29.9493 22.1507 29.9493 22.1478 29.9493 22.1449C29.9493 22.1421 29.9493 22.1392 29.9493 22.1364C29.9493 22.1335 29.9493 22.1306 29.9493 22.1278C29.9493 22.1249 29.9493 22.1221 29.9493 22.1192C29.9493 22.1163 29.9493 22.1135 29.9493 22.1106C29.9493 22.1078 29.9493 22.1049 29.9493 22.1021C29.9493 22.0992 29.9493 22.0964 29.9493 22.0935C29.9493 22.0907 29.9493 22.0878 29.9493 22.085C29.9493 22.0821 29.9493 22.0793 29.9493 22.0764C29.9493 22.0736 29.9493 22.0707 29.9493 22.0679C29.9493 22.0651 29.9493 22.0622 29.9493 22.0594C29.9493 22.0565 29.9493 22.0537 29.9493 22.0509C29.9493 22.048 29.9493 22.0452 29.9493 22.0423C29.9493 22.0395 29.9493 22.0367 29.9493 22.0338C29.9493 22.031 29.9493 22.0282 29.9493 22.0254C29.9493 22.0225 29.9493 22.0197 29.9493 22.0169C29.9493 22.014 29.9493 22.0112 29.9493 22.0084C29.9493 22.0056 29.9493 22.0027 29.9493 21.9999C29.9493 21.9971 29.9493 21.9943 29.9493 21.9915C29.9493 21.9886 29.9493 21.9858 29.9493 21.983C29.9493 21.9802 29.9493 21.9774 29.9493 21.9746C29.9493 21.9717 29.9493 21.9689 29.9493 21.9661C29.9493 21.9633 29.9493 21.9605 29.9493 21.9577C29.9493 21.9549 29.9493 21.9521 29.9493 21.9493C29.9493 21.9465 29.9493 21.9437 29.9493 21.9409C29.9493 21.9381 29.9493 21.9353 29.9493 21.9325C29.9493 21.9297 29.9493 21.9269 29.9493 21.9241C29.9493 21.9213 29.9493 21.9185 29.9493 21.9157C29.9493 21.9129 29.9493 21.9101 29.9493 21.9073C29.9493 21.9046 29.9493 21.9018 29.9493 21.899C29.9493 21.8962 29.9493 21.8934 29.9493 21.8906C29.9493 21.8879 29.9493 21.8851 29.9493 21.8823C29.9493 21.8795 29.9493 21.8767 29.9493 21.874C29.9493 21.8712 29.9493 21.8684 29.9493 21.8656C29.9493 21.8629 29.9493 21.8601 29.9493 21.8573C29.9493 21.8546 29.9493 21.8518 29.9493 21.849C29.9493 21.8463 29.9493 21.8435 29.9493 21.8408C29.9493 21.838 29.9493 21.8352 29.9493 21.8325C29.9493 21.8297 29.9493 21.827 29.9493 21.8242C29.9493 21.8215 29.9493 21.8187 29.9493 21.816C29.9493 21.8132 29.9493 21.8105 29.9493 21.8077C29.9493 21.805 29.9493 21.8023 29.9493 21.7995C29.9493 21.7968 29.9493 21.794 29.9493 21.7913C29.9493 21.7886 29.9493 21.7858 29.9493 21.7831C29.9493 21.7804 29.9493 21.7776 29.9493 21.7749C29.9493 21.7722 29.9493 21.7694 29.9493 21.7667C29.9493 21.764 29.9493 21.7613 29.9493 21.7586C29.9493 21.7558 29.9493 21.7531 29.9493 21.7504C29.9493 21.7477 29.9493 21.745 29.9493 21.7423C29.9493 21.7396 29.9493 21.7368 29.9493 21.7341C29.9493 21.7314 29.9493 21.7287 29.9493 21.726C29.9493 21.7233 29.9493 21.7206 29.9493 21.7179C29.9493 21.7152 29.9493 21.7125 29.9493 21.7098C29.9493 21.7071 29.9493 21.7044 29.9493 21.7018C29.9493 21.6991 29.9493 21.6964 29.9493 21.6937C29.9493 21.691 29.9493 21.6883 29.9493 21.6857C29.9493 21.683 29.9493 21.6803 29.9493 21.6776C29.9493 21.6749 29.9493 21.6723 29.9493 21.6696C29.9493 21.6669 29.9493 21.6643 29.9493 21.6616C29.9493 21.6589 29.9493 21.6563 29.9493 21.6536C29.9493 21.6509 29.9493 21.6483 29.9493 21.6456C29.9493 21.643 29.9493 21.6403 29.9493 21.6377C29.9493 21.635 29.9493 21.6324 29.9493 21.6297C29.9493 21.6271 29.9493 21.6244 29.9493 21.6218C29.9493 21.6191 29.9493 21.6165 29.9493 21.6139C29.9493 21.6112 29.9493 21.6086 29.9493 21.606C29.9493 21.6033 29.9493 21.6007 29.9493 21.5981C29.9493 21.5955 29.9493 21.5928 29.9493 21.5902C29.9493 21.5876 29.9493 21.585 29.9493 21.5824C29.9493 21.5797 29.9493 21.5771 29.9493 21.5745C29.9493 21.5719 29.9493 21.5693 29.9493 21.5667C29.9493 21.5641 29.9493 21.5615 29.9493 21.5589C29.9493 21.5563 29.9493 21.5537 29.9493 21.5511C29.9493 21.5485 29.9493 21.5459 29.9493 21.5433C29.9493 21.5407 29.9493 21.5382 29.9493 21.5356C29.9493 21.533 29.9493 21.5304 29.9493 21.5278C29.9493 21.5253 29.9493 21.5227 29.9493 21.5201C29.9493 21.5175 29.9493 21.515 29.9493 21.5124C29.9493 21.5098 29.9493 21.5073 29.9493 21.5047C29.9493 21.5021 29.9493 21.4996 29.9493 21.497C29.9493 21.4945 29.9493 21.4919 29.9493 21.4894C29.9493 21.4868 29.9493 21.4843 29.9493 21.4817C29.9493 21.4792 29.9493 21.4767 29.9493 21.4741C29.9493 21.4716 29.9493 21.4691 29.9493 21.4665C29.9493 21.464 29.9493 21.4615 29.9493 21.4589C29.9493 21.4564 29.9493 21.4539 29.9493 21.4514C29.9493 21.4489 29.9493 21.4463 29.9493 21.4438C29.9493 21.4413 29.9493 21.4388 29.9493 21.4363C29.9493 21.4338 29.9493 21.4313 29.9493 21.4288C29.9493 21.4263 29.9493 21.4238 29.9493 21.4213C29.9493 21.4188 29.9493 21.4163 29.9493 21.4138C29.9493 21.4113 29.9493 21.4088 29.9493 21.4064C29.9493 21.4039 29.9493 21.4014 29.9493 21.3989C29.9493 21.3965 29.9493 21.394 29.9493 21.3915C29.9493 21.389 29.9493 21.3866 29.9493 21.3841C29.9493 21.3817 29.9493 21.3792 29.9493 21.3767C29.9493 21.3743 29.9493 21.3718 29.9493 21.3694C29.9493 21.3669 29.9493 21.3645 29.9493 21.362C29.9493 21.3596 29.9493 21.3572 29.9493 21.3547C29.9493 21.3523 29.9493 21.3499 29.9493 21.3474C29.9493 21.345 29.9493 21.3426 29.9493 21.3402C29.9493 21.3377 29.9493 21.3353 29.9493 21.3329C29.9493 21.3305 29.9493 21.3281 29.9493 21.3257C29.9493 21.3233 29.9493 21.3208 29.9493 21.3184C29.9493 21.316 29.9493 21.3136 29.9493 21.3112C29.9493 21.3089 29.9493 21.3065 29.9493 21.3041C29.9493 21.3017 29.9493 21.2993 29.9493 21.2969C29.9493 21.2945 29.9493 21.2922 29.9493 21.2898C29.9493 21.2874 29.9493 21.2851 29.9493 21.2827C29.9493 21.2803 29.9493 21.278 29.9493 21.2756C29.9493 21.2732 29.9493 21.2709 29.9493 21.2685C29.9493 21.2662 29.9493 21.2638 29.9493 21.2615C29.9493 21.2591 29.9493 21.2568 29.9493 21.2545C29.9493 21.2521 29.9493 21.2498 29.9493 21.2475C29.9493 21.2451 29.9493 21.2428 29.9493 21.2405C29.9493 21.2382 29.9493 21.2358 29.9493 21.2335C29.9493 21.2312 29.9493 21.2289 29.9493 21.2266C29.9493 21.2243 29.9493 21.222 29.9493 21.2197C29.9493 21.2174 29.9493 21.2151 29.9493 21.2128C29.9493 21.2105 29.9493 21.2082 29.9493 21.2059C29.9493 21.2037 29.9493 21.2014 29.9493 21.1991C29.9493 21.1968 29.9493 21.1945 29.9493 21.1923C29.9493 21.19 29.9493 21.1877 29.9493 21.1855C29.9493 21.1832 29.9493 21.181 29.9493 21.1787C29.9493 21.1765 29.9493 21.1742 29.9493 21.172C29.9493 21.1697 29.9493 21.1675 29.9493 21.1652C29.9493 21.163 29.9493 21.1608 29.9493 21.1585C29.9493 21.1563 29.9493 21.1541 29.9493 21.1519C29.9493 21.1496 29.9493 21.1474 29.9493 21.1452C29.9493 21.143 29.9493 21.1408 29.9493 21.1386C29.9493 21.1364 29.9493 21.1342 29.9493 21.132C29.9493 21.1298 29.9493 21.1276 29.9493 21.1254C29.9493 21.1232 29.9493 21.121 29.9493 21.1189C29.9493 21.1167 29.9493 21.1145 29.9493 21.1123C29.9493 21.1102 29.9493 21.108 29.9493 21.1058C29.9493 21.1037 29.9493 21.1015 29.9493 21.0994C29.9493 21.0972 29.9493 21.0951 29.9493 21.0929C29.9493 21.0908 29.9493 21.0886 29.9493 21.0865C29.9493 21.0843 29.9493 21.0822 29.9493 21.0801C29.9493 21.078 29.9493 21.0758 29.9493 21.0737C29.9493 21.0716 29.9493 21.0695 29.9493 21.0674C29.9493 21.0652 29.9493 21.0631 29.9493 21.061C29.9493 21.0589 29.9493 21.0568 29.9493 21.0547C29.9493 21.0526 29.9493 21.0506 29.9493 21.0485C29.9493 21.0464 29.9493 21.0443 29.9493 21.0422C29.9493 21.0402 29.9493 21.0381 29.9493 21.036C29.9493 21.0339 29.9493 21.0319 29.9493 21.0298C29.9493 21.0278 29.9493 21.0257 29.9493 21.0237C29.9493 21.0216 29.9493 21.0196 29.9493 21.0175C29.9493 21.0155 29.9493 21.0135 29.9493 21.0114C29.9493 21.0094 29.9493 21.0074 29.9493 21.0053C29.9493 21.0033 29.9493 21.0013 29.9493 20.9993C29.9493 20.9973 29.9493 20.9953 29.9493 20.9933C29.9493 20.9913 29.9493 20.9893 29.9493 20.9873C29.9493 20.9853 29.9493 20.9833 29.9493 20.9813C29.9493 20.9793 29.9493 20.9773 29.9493 20.9754C29.9493 20.9734 29.9493 20.9714 29.9493 20.9695C29.9493 20.9675 29.9493 20.9655 29.9493 20.9636C29.9493 20.9616 29.9493 20.9597 29.9493 20.9577C29.9493 20.9558 29.9493 20.9538 29.9493 20.9519C29.9493 20.95 29.9493 20.948 29.9493 20.9461C29.9493 20.9442 29.9493 20.9423 29.9493 20.9403C29.9493 20.9384 29.9493 20.9365 29.9493 20.9346C29.9493 20.9327 29.9493 20.9308 29.9493 20.9289C29.9493 20.927 29.9493 20.9251 29.9493 20.9232C29.9493 20.9213 29.9493 20.9194 29.9493 20.9176C29.9493 20.9157 29.9493 20.9138 29.9493 20.9119C29.9493 20.9101 29.9493 20.9082 29.9493 20.9064C29.9493 20.9045 29.9493 20.9026 29.9493 20.9008C29.9493 20.8989 29.9493 20.8971 29.9493 20.8953C29.9493 20.8934 29.9493 20.8916 29.9493 20.8898C29.9493 20.8879 29.9493 20.8861 29.9493 20.8843C29.9493 20.8825 29.9493 20.8807 29.9493 20.8789C29.9493 20.877 29.9493 20.8752 29.9493 20.8734C29.9493 20.8717 29.9493 20.8699 29.9493 20.8681C29.9493 20.8663 29.9493 20.8645 29.9493 20.8627C29.9493 20.861 29.9493 20.8592 29.9493 20.8574C29.9493 20.8556 29.9493 20.8539 29.9493 20.8521C29.9493 20.8504 29.9493 20.8486 29.9493 20.8469C29.9493 20.8451 29.9493 20.8434 29.9493 20.8417C29.9493 20.8399 29.9493 20.8382 29.9493 20.8365C29.9493 20.8348 29.9493 20.833 29.9493 20.8313C29.9493 20.8296 29.9493 20.8279 29.9493 20.8262C29.9493 20.8245 29.9493 20.8228 29.9493 20.8211C29.9493 20.8194 29.9493 20.8177 29.9493 20.816C29.9493 20.8144 29.9493 20.8127 29.9493 20.811C29.9493 20.8094 29.9493 20.8077 29.9493 20.806C29.9493 20.8044 29.9493 20.8027 29.9493 20.8011C29.9493 20.7994 29.9493 20.7978 29.9493 20.7961C29.9493 20.7945 29.9493 20.7929 29.9493 20.7912C29.9493 20.7896 29.9493 20.788 29.9493 20.7864C29.9493 20.7848 29.9493 20.7832 29.9493 20.7816C29.9493 20.78 29.9493 20.7784 29.9493 20.7768C29.9493 20.7752 29.9493 20.7736 29.9493 20.772C29.9493 20.7704 29.9493 20.7688 29.9493 20.7673C29.9493 20.7657 29.9493 20.7641 29.9493 20.7626C29.9493 20.761 29.9493 20.7595 29.9493 20.7579C29.9493 20.7564 29.9493 20.7548 29.9493 20.7533C29.9493 20.7518 29.9493 20.7502 29.9493 20.7487C29.9493 20.7472 29.9493 20.7457 29.9493 20.7442C29.9493 20.7426 29.9493 20.7411 29.9493 20.7396C29.9493 20.7381 29.9493 20.7366 29.9493 20.7351C29.9493 20.7337 29.9493 20.7322 29.9493 20.7307C29.9493 20.7292 29.9493 20.7277 29.9493 20.7263C29.9493 20.7248 29.9493 20.7234 29.9493 20.7219C29.9493 20.7204 29.9493 20.719 29.9493 20.7176C29.9493 20.7161 29.9493 20.7147 29.9493 20.7132C29.9493 20.7118 29.9493 20.7104 29.9493 20.709C29.9493 20.7076 29.9493 20.7061 29.9493 20.7047C29.9493 20.7033 29.9493 20.7019 29.9493 20.7005C29.9493 20.6991 29.9493 20.6977 29.9493 20.6964C29.9493 20.695 29.9493 20.6936 29.9493 20.6922C29.9493 20.6909 29.9493 20.6895 29.9493 20.6881C29.9493 20.6868 29.9493 20.6854 29.9493 20.6841C29.9493 20.6827 29.9493 20.6814 29.9493 20.6801C29.9493 20.6787 29.9493 20.6774 29.9493 20.6761C29.9493 20.6748 29.9493 20.6734 29.9493 20.6721C29.9493 20.6708 29.9493 20.6695 29.9493 20.6682C29.9493 20.6669 29.9493 20.6656 29.9493 20.6644C29.9493 20.6631 29.9493 20.6618 29.9493 20.6605C29.9493 20.6593 29.9493 20.658 29.9493 20.6567C29.9493 20.6555 29.9493 20.6542 29.9493 20.653C29.9493 20.6517 29.9493 20.6505 29.9493 20.6492C29.9493 20.648 29.9493 20.6468 29.9493 20.6456C29.9493 20.6443 29.9493 20.6431 29.9493 20.6419C29.9493 20.6407 29.9493 20.6395 29.9493 20.6383C29.9493 20.6371 29.9493 20.6359 29.9493 20.6347C29.9493 20.6336 29.9493 20.6324 29.9493 20.6312C29.9493 20.63 29.9493 20.6289 29.9493 20.6277C29.9493 20.6266 29.9493 20.6254 29.9493 20.6243C29.9493 20.6231 29.9493 20.622 29.9493 20.6209C29.9493 20.6197 29.9493 20.6186 29.9493 20.6175C29.9493 20.6164 29.9493 20.6153 29.9493 20.6142C29.9493 20.613 29.9493 20.6119 29.9493 20.6109C29.9493 20.6098 29.9493 20.6087 29.9493 20.6076C29.9493 20.6065 29.9493 20.6055 29.9493 20.6044C29.9493 20.6033 29.9493 20.6023 29.9493 20.6012C29.9493 20.6002 29.9493 20.5991 29.9493 20.5981C29.9493 20.597 29.9493 20.596 29.9493 20.595C29.9493 20.594 29.9493 20.5929 29.9493 20.5919C29.9493 20.5909 29.9493 20.5899 29.9493 20.5889C29.9493 20.5879 29.9493 20.5869 29.9493 20.5859C29.9493 20.585 29.9493 20.584 29.9493 20.583C29.9493 20.582 29.9493 20.5811 29.9493 20.5801C29.9493 20.5792 29.9493 20.5782 29.9493 20.5773C29.9493 20.5763 29.9493 20.5754 29.9493 20.5745C29.9493 20.5735 29.9493 20.5726 29.9493 20.5717C29.9493 20.5708 29.9493 20.5699 29.9493 20.569C29.9493 20.5681 29.9493 20.5672 29.9493 20.5663C29.9493 20.5654 29.9493 20.5645 29.9493 20.5636C29.9493 20.5628 29.9493 20.5619 29.9493 20.561C29.9493 20.5602 29.9493 20.5593 29.9493 20.5585C29.9493 20.5576 29.9493 20.5568 29.9493 20.5559C29.9493 20.5551 29.9493 20.5543 29.9493 20.5535C29.9493 20.5527 29.9493 20.5518 29.9493 20.551C29.9493 20.5502 29.9493 20.5494 29.9493 20.5486C29.9493 20.5479 29.9493 20.5471 29.9493 20.5463C29.9493 20.5455 29.9493 20.5448 29.9493 20.544C29.9493 20.5432 29.9493 20.5425 29.9493 20.5417C29.9493 20.541 29.9493 20.5402 29.9493 20.5395C29.9493 20.5388 29.9493 20.5381 29.9493 20.5373C29.9493 20.5366 29.9493 20.5359 29.9493 20.5352C29.9493 20.5345 29.9493 20.5338 29.9493 20.5331C29.9493 20.5324 29.9493 20.5318 29.9493 20.5311C29.9493 20.5304 29.9493 20.5297 29.9493 20.5291C29.9493 20.5284 29.9493 20.5278 29.9493 20.5271C29.9493 20.5265 29.9493 20.5258 29.9493 20.5252C29.9493 20.5246 29.9493 20.524 29.9493 20.5233C29.9493 20.5227 29.9493 20.5221 29.9493 20.5215C29.9493 20.5209 29.9493 20.5203 29.9493 20.5197C29.9493 20.5192 29.9493 20.5186 29.9493 20.518C29.9493 20.5174 29.9493 20.5169 29.9493 20.5163C29.9493 20.5158 29.9493 20.5152 29.9493 20.5147C29.9493 20.5141 29.9493 20.5136 29.9493 20.5131C29.9493 20.5126 29.9493 20.512 29.9493 20.5115C29.9493 20.511 29.9493 20.5105 29.9493 20.51C29.9493 20.5095 29.9493 20.509 29.9493 20.5086C29.9493 20.5081 29.9493 20.5076 29.9493 20.5071C29.9493 20.5067 29.9493 20.5062 29.9493 20.5058C29.9493 20.5053 29.9493 20.5049 29.9493 20.5044C29.9493 20.504 29.9493 20.5036 29.9493 20.5032C29.9493 20.5027 29.9493 20.5023 29.9493 20.5019C29.9493 20.5015 29.9493 20.5011 29.9493 20.5008C29.9493 20.5004 29.9493 20.5 29.9493 20.4996C29.9493 20.4992 29.9493 20.4989 29.9493 20.4985C29.9493 20.4982 29.9493 20.4978 29.9493 20.4975C29.9493 20.4971 29.9493 20.4968 29.9493 20.4965C29.9493 20.4962 29.9493 20.4958 29.9493 20.4955C29.9493 20.4952 29.9493 20.4949 29.9493 20.4946C29.9493 20.4943 29.9493 20.494 29.9493 20.4938C29.9493 20.4935 29.9493 20.4932 29.9493 20.493C29.9493 20.4927 29.9493 20.4924 29.9493 20.4922C29.9493 20.492 29.9493 20.4917 29.9493 20.4915C29.9493 20.4913 29.9493 20.491 29.9493 20.4908C29.9493 20.4906 29.9493 20.4904 29.9493 20.4902C29.9493 20.49 29.9493 20.4898 29.9493 20.4896C29.9493 20.4895 29.9493 20.4893 29.9493 20.4891C29.9493 20.489 29.9493 20.4888 29.9493 20.4887C29.9493 20.4885 29.9493 20.4884 29.9493 20.4882C29.9493 20.4881 29.9493 20.488 29.9493 20.4879C29.9493 20.4878 29.9493 20.4876 29.9493 20.4875C29.9493 20.4874 29.9493 20.4874 29.9493 20.4873C29.9493 20.4872 29.9493 20.4871 29.9493 20.487C29.9493 20.487 29.9493 20.4869 29.9493 20.4869C29.9493 20.4868 29.9493 20.4868 29.9493 20.4867C29.9493 20.4867 29.9493 20.4867 29.9493 20.4867C29.9493 20.4867 29.9493 20.4866 29.1993 20.4866C28.4493 20.4866 28.4493 20.4867 28.4493 20.4867C28.4493 20.4867 28.4493 20.4867 28.4493 20.4867C28.4493 20.4868 28.4493 20.4868 28.4493 20.4869C28.4493 20.4869 28.4493 20.487 28.4493 20.487C28.4493 20.4871 28.4493 20.4872 28.4493 20.4873C28.4493 20.4874 28.4493 20.4874 28.4493 20.4875C28.4493 20.4876 28.4493 20.4878 28.4493 20.4879C28.4493 20.488 28.4493 20.4881 28.4493 20.4882C28.4493 20.4884 28.4493 20.4885 28.4493 20.4887C28.4493 20.4888 28.4493 20.489 28.4493 20.4891C28.4493 20.4893 28.4493 20.4895 28.4493 20.4896C28.4493 20.4898 28.4493 20.49 28.4493 20.4902C28.4493 20.4904 28.4493 20.4906 28.4493 20.4908C28.4493 20.491 28.4493 20.4913 28.4493 20.4915C28.4493 20.4917 28.4493 20.492 28.4493 20.4922C28.4493 20.4924 28.4493 20.4927 28.4493 20.493C28.4493 20.4932 28.4493 20.4935 28.4493 20.4938C28.4493 20.494 28.4493 20.4943 28.4493 20.4946C28.4493 20.4949 28.4493 20.4952 28.4493 20.4955C28.4493 20.4958 28.4493 20.4962 28.4493 20.4965C28.4493 20.4968 28.4493 20.4971 28.4493 20.4975C28.4493 20.4978 28.4493 20.4982 28.4493 20.4985C28.4493 20.4989 28.4493 20.4992 28.4493 20.4996C28.4493 20.5 28.4493 20.5004 28.4493 20.5008C28.4493 20.5011 28.4493 20.5015 28.4493 20.5019C28.4493 20.5023 28.4493 20.5027 28.4493 20.5032C28.4493 20.5036 28.4493 20.504 28.4493 20.5044C28.4493 20.5049 28.4493 20.5053 28.4493 20.5058C28.4493 20.5062 28.4493 20.5067 28.4493 20.5071C28.4493 20.5076 28.4493 20.5081 28.4493 20.5086C28.4493 20.509 28.4493 20.5095 28.4493 20.51C28.4493 20.5105 28.4493 20.511 28.4493 20.5115C28.4493 20.512 28.4493 20.5126 28.4493 20.5131C28.4493 20.5136 28.4493 20.5141 28.4493 20.5147C28.4493 20.5152 28.4493 20.5158 28.4493 20.5163C28.4493 20.5169 28.4493 20.5174 28.4493 20.518C28.4493 20.5186 28.4493 20.5192 28.4493 20.5197C28.4493 20.5203 28.4493 20.5209 28.4493 20.5215C28.4493 20.5221 28.4493 20.5227 28.4493 20.5233C28.4493 20.524 28.4493 20.5246 28.4493 20.5252C28.4493 20.5258 28.4493 20.5265 28.4493 20.5271C28.4493 20.5278 28.4493 20.5284 28.4493 20.5291C28.4493 20.5297 28.4493 20.5304 28.4493 20.5311C28.4493 20.5318 28.4493 20.5324 28.4493 20.5331C28.4493 20.5338 28.4493 20.5345 28.4493 20.5352C28.4493 20.5359 28.4493 20.5366 28.4493 20.5373C28.4493 20.5381 28.4493 20.5388 28.4493 20.5395C28.4493 20.5402 28.4493 20.541 28.4493 20.5417C28.4493 20.5425 28.4493 20.5432 28.4493 20.544C28.4493 20.5448 28.4493 20.5455 28.4493 20.5463C28.4493 20.5471 28.4493 20.5479 28.4493 20.5486C28.4493 20.5494 28.4493 20.5502 28.4493 20.551C28.4493 20.5518 28.4493 20.5527 28.4493 20.5535C28.4493 20.5543 28.4493 20.5551 28.4493 20.5559C28.4493 20.5568 28.4493 20.5576 28.4493 20.5585C28.4493 20.5593 28.4493 20.5602 28.4493 20.561C28.4493 20.5619 28.4493 20.5628 28.4493 20.5636C28.4493 20.5645 28.4493 20.5654 28.4493 20.5663C28.4493 20.5672 28.4493 20.5681 28.4493 20.569C28.4493 20.5699 28.4493 20.5708 28.4493 20.5717C28.4493 20.5726 28.4493 20.5735 28.4493 20.5745C28.4493 20.5754 28.4493 20.5763 28.4493 20.5773C28.4493 20.5782 28.4493 20.5792 28.4493 20.5801C28.4493 20.5811 28.4493 20.582 28.4493 20.583C28.4493 20.584 28.4493 20.585 28.4493 20.5859C28.4493 20.5869 28.4493 20.5879 28.4493 20.5889C28.4493 20.5899 28.4493 20.5909 28.4493 20.5919C28.4493 20.5929 28.4493 20.594 28.4493 20.595C28.4493 20.596 28.4493 20.597 28.4493 20.5981C28.4493 20.5991 28.4493 20.6002 28.4493 20.6012C28.4493 20.6023 28.4493 20.6033 28.4493 20.6044C28.4493 20.6055 28.4493 20.6065 28.4493 20.6076C28.4493 20.6087 28.4493 20.6098 28.4493 20.6109C28.4493 20.6119 28.4493 20.613 28.4493 20.6142C28.4493 20.6153 28.4493 20.6164 28.4493 20.6175C28.4493 20.6186 28.4493 20.6197 28.4493 20.6209C28.4493 20.622 28.4493 20.6231 28.4493 20.6243C28.4493 20.6254 28.4493 20.6266 28.4493 20.6277C28.4493 20.6289 28.4493 20.63 28.4493 20.6312C28.4493 20.6324 28.4493 20.6336 28.4493 20.6347C28.4493 20.6359 28.4493 20.6371 28.4493 20.6383C28.4493 20.6395 28.4493 20.6407 28.4493 20.6419C28.4493 20.6431 28.4493 20.6443 28.4493 20.6456C28.4493 20.6468 28.4493 20.648 28.4493 20.6492C28.4493 20.6505 28.4493 20.6517 28.4493 20.653C28.4493 20.6542 28.4493 20.6555 28.4493 20.6567C28.4493 20.658 28.4493 20.6593 28.4493 20.6605C28.4493 20.6618 28.4493 20.6631 28.4493 20.6644C28.4493 20.6656 28.4493 20.6669 28.4493 20.6682C28.4493 20.6695 28.4493 20.6708 28.4493 20.6721C28.4493 20.6734 28.4493 20.6748 28.4493 20.6761C28.4493 20.6774 28.4493 20.6787 28.4493 20.6801C28.4493 20.6814 28.4493 20.6827 28.4493 20.6841C28.4493 20.6854 28.4493 20.6868 28.4493 20.6881C28.4493 20.6895 28.4493 20.6909 28.4493 20.6922C28.4493 20.6936 28.4493 20.695 28.4493 20.6964C28.4493 20.6977 28.4493 20.6991 28.4493 20.7005C28.4493 20.7019 28.4493 20.7033 28.4493 20.7047C28.4493 20.7061 28.4493 20.7076 28.4493 20.709C28.4493 20.7104 28.4493 20.7118 28.4493 20.7132C28.4493 20.7147 28.4493 20.7161 28.4493 20.7176C28.4493 20.719 28.4493 20.7204 28.4493 20.7219C28.4493 20.7234 28.4493 20.7248 28.4493 20.7263C28.4493 20.7277 28.4493 20.7292 28.4493 20.7307C28.4493 20.7322 28.4493 20.7337 28.4493 20.7351C28.4493 20.7366 28.4493 20.7381 28.4493 20.7396C28.4493 20.7411 28.4493 20.7426 28.4493 20.7442C28.4493 20.7457 28.4493 20.7472 28.4493 20.7487C28.4493 20.7502 28.4493 20.7518 28.4493 20.7533C28.4493 20.7548 28.4493 20.7564 28.4493 20.7579C28.4493 20.7595 28.4493 20.761 28.4493 20.7626C28.4493 20.7641 28.4493 20.7657 28.4493 20.7673C28.4493 20.7688 28.4493 20.7704 28.4493 20.772C28.4493 20.7736 28.4493 20.7752 28.4493 20.7768C28.4493 20.7784 28.4493 20.78 28.4493 20.7816C28.4493 20.7832 28.4493 20.7848 28.4493 20.7864C28.4493 20.788 28.4493 20.7896 28.4493 20.7912C28.4493 20.7929 28.4493 20.7945 28.4493 20.7961C28.4493 20.7978 28.4493 20.7994 28.4493 20.8011C28.4493 20.8027 28.4493 20.8044 28.4493 20.806C28.4493 20.8077 28.4493 20.8094 28.4493 20.811C28.4493 20.8127 28.4493 20.8144 28.4493 20.816C28.4493 20.8177 28.4493 20.8194 28.4493 20.8211C28.4493 20.8228 28.4493 20.8245 28.4493 20.8262C28.4493 20.8279 28.4493 20.8296 28.4493 20.8313C28.4493 20.833 28.4493 20.8348 28.4493 20.8365C28.4493 20.8382 28.4493 20.8399 28.4493 20.8417C28.4493 20.8434 28.4493 20.8451 28.4493 20.8469C28.4493 20.8486 28.4493 20.8504 28.4493 20.8521C28.4493 20.8539 28.4493 20.8556 28.4493 20.8574C28.4493 20.8592 28.4493 20.861 28.4493 20.8627C28.4493 20.8645 28.4493 20.8663 28.4493 20.8681C28.4493 20.8699 28.4493 20.8717 28.4493 20.8734C28.4493 20.8752 28.4493 20.877 28.4493 20.8789C28.4493 20.8807 28.4493 20.8825 28.4493 20.8843C28.4493 20.8861 28.4493 20.8879 28.4493 20.8898C28.4493 20.8916 28.4493 20.8934 28.4493 20.8953C28.4493 20.8971 28.4493 20.8989 28.4493 20.9008C28.4493 20.9026 28.4493 20.9045 28.4493 20.9064C28.4493 20.9082 28.4493 20.9101 28.4493 20.9119C28.4493 20.9138 28.4493 20.9157 28.4493 20.9176C28.4493 20.9194 28.4493 20.9213 28.4493 20.9232C28.4493 20.9251 28.4493 20.927 28.4493 20.9289C28.4493 20.9308 28.4493 20.9327 28.4493 20.9346C28.4493 20.9365 28.4493 20.9384 28.4493 20.9403C28.4493 20.9423 28.4493 20.9442 28.4493 20.9461C28.4493 20.948 28.4493 20.95 28.4493 20.9519C28.4493 20.9538 28.4493 20.9558 28.4493 20.9577C28.4493 20.9597 28.4493 20.9616 28.4493 20.9636C28.4493 20.9655 28.4493 20.9675 28.4493 20.9695C28.4493 20.9714 28.4493 20.9734 28.4493 20.9754C28.4493 20.9773 28.4493 20.9793 28.4493 20.9813C28.4493 20.9833 28.4493 20.9853 28.4493 20.9873C28.4493 20.9893 28.4493 20.9913 28.4493 20.9933C28.4493 20.9953 28.4493 20.9973 28.4493 20.9993C28.4493 21.0013 28.4493 21.0033 28.4493 21.0053C28.4493 21.0074 28.4493 21.0094 28.4493 21.0114C28.4493 21.0135 28.4493 21.0155 28.4493 21.0175C28.4493 21.0196 28.4493 21.0216 28.4493 21.0237C28.4493 21.0257 28.4493 21.0278 28.4493 21.0298C28.4493 21.0319 28.4493 21.0339 28.4493 21.036C28.4493 21.0381 28.4493 21.0402 28.4493 21.0422C28.4493 21.0443 28.4493 21.0464 28.4493 21.0485C28.4493 21.0506 28.4493 21.0526 28.4493 21.0547C28.4493 21.0568 28.4493 21.0589 28.4493 21.061C28.4493 21.0631 28.4493 21.0652 28.4493 21.0674C28.4493 21.0695 28.4493 21.0716 28.4493 21.0737C28.4493 21.0758 28.4493 21.078 28.4493 21.0801C28.4493 21.0822 28.4493 21.0843 28.4493 21.0865C28.4493 21.0886 28.4493 21.0908 28.4493 21.0929C28.4493 21.0951 28.4493 21.0972 28.4493 21.0994C28.4493 21.1015 28.4493 21.1037 28.4493 21.1058C28.4493 21.108 28.4493 21.1102 28.4493 21.1123C28.4493 21.1145 28.4493 21.1167 28.4493 21.1189C28.4493 21.121 28.4493 21.1232 28.4493 21.1254C28.4493 21.1276 28.4493 21.1298 28.4493 21.132C28.4493 21.1342 28.4493 21.1364 28.4493 21.1386C28.4493 21.1408 28.4493 21.143 28.4493 21.1452C28.4493 21.1474 28.4493 21.1496 28.4493 21.1519C28.4493 21.1541 28.4493 21.1563 28.4493 21.1585C28.4493 21.1608 28.4493 21.163 28.4493 21.1652C28.4493 21.1675 28.4493 21.1697 28.4493 21.172C28.4493 21.1742 28.4493 21.1765 28.4493 21.1787C28.4493 21.181 28.4493 21.1832 28.4493 21.1855C28.4493 21.1877 28.4493 21.19 28.4493 21.1923C28.4493 21.1945 28.4493 21.1968 28.4493 21.1991C28.4493 21.2014 28.4493 21.2037 28.4493 21.2059C28.4493 21.2082 28.4493 21.2105 28.4493 21.2128C28.4493 21.2151 28.4493 21.2174 28.4493 21.2197C28.4493 21.222 28.4493 21.2243 28.4493 21.2266C28.4493 21.2289 28.4493 21.2312 28.4493 21.2335C28.4493 21.2358 28.4493 21.2382 28.4493 21.2405C28.4493 21.2428 28.4493 21.2451 28.4493 21.2475C28.4493 21.2498 28.4493 21.2521 28.4493 21.2545C28.4493 21.2568 28.4493 21.2591 28.4493 21.2615C28.4493 21.2638 28.4493 21.2662 28.4493 21.2685C28.4493 21.2709 28.4493 21.2732 28.4493 21.2756C28.4493 21.278 28.4493 21.2803 28.4493 21.2827C28.4493 21.2851 28.4493 21.2874 28.4493 21.2898C28.4493 21.2922 28.4493 21.2945 28.4493 21.2969C28.4493 21.2993 28.4493 21.3017 28.4493 21.3041C28.4493 21.3065 28.4493 21.3089 28.4493 21.3112C28.4493 21.3136 28.4493 21.316 28.4493 21.3184C28.4493 21.3208 28.4493 21.3233 28.4493 21.3257C28.4493 21.3281 28.4493 21.3305 28.4493 21.3329C28.4493 21.3353 28.4493 21.3377 28.4493 21.3402C28.4493 21.3426 28.4493 21.345 28.4493 21.3474C28.4493 21.3499 28.4493 21.3523 28.4493 21.3547C28.4493 21.3572 28.4493 21.3596 28.4493 21.362C28.4493 21.3645 28.4493 21.3669 28.4493 21.3694C28.4493 21.3718 28.4493 21.3743 28.4493 21.3767C28.4493 21.3792 28.4493 21.3817 28.4493 21.3841C28.4493 21.3866 28.4493 21.389 28.4493 21.3915C28.4493 21.394 28.4493 21.3965 28.4493 21.3989C28.4493 21.4014 28.4493 21.4039 28.4493 21.4064C28.4493 21.4088 28.4493 21.4113 28.4493 21.4138C28.4493 21.4163 28.4493 21.4188 28.4493 21.4213C28.4493 21.4238 28.4493 21.4263 28.4493 21.4288C28.4493 21.4313 28.4493 21.4338 28.4493 21.4363C28.4493 21.4388 28.4493 21.4413 28.4493 21.4438C28.4493 21.4463 28.4493 21.4489 28.4493 21.4514C28.4493 21.4539 28.4493 21.4564 28.4493 21.4589C28.4493 21.4615 28.4493 21.464 28.4493 21.4665C28.4493 21.4691 28.4493 21.4716 28.4493 21.4741C28.4493 21.4767 28.4493 21.4792 28.4493 21.4817C28.4493 21.4843 28.4493 21.4868 28.4493 21.4894C28.4493 21.4919 28.4493 21.4945 28.4493 21.497C28.4493 21.4996 28.4493 21.5021 28.4493 21.5047C28.4493 21.5073 28.4493 21.5098 28.4493 21.5124C28.4493 21.515 28.4493 21.5175 28.4493 21.5201C28.4493 21.5227 28.4493 21.5253 28.4493 21.5278C28.4493 21.5304 28.4493 21.533 28.4493 21.5356C28.4493 21.5382 28.4493 21.5407 28.4493 21.5433C28.4493 21.5459 28.4493 21.5485 28.4493 21.5511C28.4493 21.5537 28.4493 21.5563 28.4493 21.5589C28.4493 21.5615 28.4493 21.5641 28.4493 21.5667C28.4493 21.5693 28.4493 21.5719 28.4493 21.5745C28.4493 21.5771 28.4493 21.5797 28.4493 21.5824C28.4493 21.585 28.4493 21.5876 28.4493 21.5902C28.4493 21.5928 28.4493 21.5955 28.4493 21.5981C28.4493 21.6007 28.4493 21.6033 28.4493 21.606C28.4493 21.6086 28.4493 21.6112 28.4493 21.6139C28.4493 21.6165 28.4493 21.6191 28.4493 21.6218C28.4493 21.6244 28.4493 21.6271 28.4493 21.6297C28.4493 21.6324 28.4493 21.635 28.4493 21.6377C28.4493 21.6403 28.4493 21.643 28.4493 21.6456C28.4493 21.6483 28.4493 21.6509 28.4493 21.6536C28.4493 21.6563 28.4493 21.6589 28.4493 21.6616C28.4493 21.6643 28.4493 21.6669 28.4493 21.6696C28.4493 21.6723 28.4493 21.6749 28.4493 21.6776C28.4493 21.6803 28.4493 21.683 28.4493 21.6857C28.4493 21.6883 28.4493 21.691 28.4493 21.6937C28.4493 21.6964 28.4493 21.6991 28.4493 21.7018C28.4493 21.7044 28.4493 21.7071 28.4493 21.7098C28.4493 21.7125 28.4493 21.7152 28.4493 21.7179C28.4493 21.7206 28.4493 21.7233 28.4493 21.726C28.4493 21.7287 28.4493 21.7314 28.4493 21.7341C28.4493 21.7368 28.4493 21.7396 28.4493 21.7423C28.4493 21.745 28.4493 21.7477 28.4493 21.7504C28.4493 21.7531 28.4493 21.7558 28.4493 21.7586C28.4493 21.7613 28.4493 21.764 28.4493 21.7667C28.4493 21.7694 28.4493 21.7722 28.4493 21.7749C28.4493 21.7776 28.4493 21.7804 28.4493 21.7831C28.4493 21.7858 28.4493 21.7886 28.4493 21.7913C28.4493 21.794 28.4493 21.7968 28.4493 21.7995C28.4493 21.8023 28.4493 21.805 28.4493 21.8077C28.4493 21.8105 28.4493 21.8132 28.4493 21.816C28.4493 21.8187 28.4493 21.8215 28.4493 21.8242C28.4493 21.827 28.4493 21.8297 28.4493 21.8325C28.4493 21.8352 28.4493 21.838 28.4493 21.8408C28.4493 21.8435 28.4493 21.8463 28.4493 21.849C28.4493 21.8518 28.4493 21.8546 28.4493 21.8573C28.4493 21.8601 28.4493 21.8629 28.4493 21.8656C28.4493 21.8684 28.4493 21.8712 28.4493 21.874C28.4493 21.8767 28.4493 21.8795 28.4493 21.8823C28.4493 21.8851 28.4493 21.8879 28.4493 21.8906C28.4493 21.8934 28.4493 21.8962 28.4493 21.899C28.4493 21.9018 28.4493 21.9046 28.4493 21.9073C28.4493 21.9101 28.4493 21.9129 28.4493 21.9157C28.4493 21.9185 28.4493 21.9213 28.4493 21.9241C28.4493 21.9269 28.4493 21.9297 28.4493 21.9325C28.4493 21.9353 28.4493 21.9381 28.4493 21.9409C28.4493 21.9437 28.4493 21.9465 28.4493 21.9493C28.4493 21.9521 28.4493 21.9549 28.4493 21.9577C28.4493 21.9605 28.4493 21.9633 28.4493 21.9661C28.4493 21.9689 28.4493 21.9717 28.4493 21.9746C28.4493 21.9774 28.4493 21.9802 28.4493 21.983C28.4493 21.9858 28.4493 21.9886 28.4493 21.9915C28.4493 21.9943 28.4493 21.9971 28.4493 21.9999C28.4493 22.0027 28.4493 22.0056 28.4493 22.0084C28.4493 22.0112 28.4493 22.014 28.4493 22.0169C28.4493 22.0197 28.4493 22.0225 28.4493 22.0254C28.4493 22.0282 28.4493 22.031 28.4493 22.0338C28.4493 22.0367 28.4493 22.0395 28.4493 22.0423C28.4493 22.0452 28.4493 22.048 28.4493 22.0509C28.4493 22.0537 28.4493 22.0565 28.4493 22.0594C28.4493 22.0622 28.4493 22.0651 28.4493 22.0679C28.4493 22.0707 28.4493 22.0736 28.4493 22.0764C28.4493 22.0793 28.4493 22.0821 28.4493 22.085C28.4493 22.0878 28.4493 22.0907 28.4493 22.0935C28.4493 22.0964 28.4493 22.0992 28.4493 22.1021C28.4493 22.1049 28.4493 22.1078 28.4493 22.1106C28.4493 22.1135 28.4493 22.1163 28.4493 22.1192C28.4493 22.1221 28.4493 22.1249 28.4493 22.1278C28.4493 22.1306 28.4493 22.1335 28.4493 22.1364C28.4493 22.1392 28.4493 22.1421 28.4493 22.1449C28.4493 22.1478 28.4493 22.1507 28.4493 22.1535C28.4493 22.1564 28.4493 22.1593 28.4493 22.1621C28.4493 22.165 28.4493 22.1679 28.4493 22.1707C28.4493 22.1736 28.4493 22.1765 28.4493 22.1793C28.4493 22.1822 28.4493 22.1851 28.4493 22.188C28.4493 22.1908 28.4493 22.1937 28.4493 22.1966C28.4493 22.1994 28.4493 22.2023 28.4493 22.2052C28.4493 22.2081 28.4493 22.2109 28.4493 22.2138C28.4493 22.2167 28.4493 22.2196 28.4493 22.2225C28.4493 22.2253 28.4493 22.2282 28.4493 22.2311C28.4493 22.234 28.4493 22.2369 28.4493 22.2397C28.4493 22.2426 28.4493 22.2455 28.4493 22.2484C28.4493 22.2513 28.4493 22.2542 28.4493 22.257C28.4493 22.2599 28.4493 22.2628 28.4493 22.2657C28.4493 22.2686 28.4493 22.2715 28.4493 22.2744C28.4493 22.2772 28.4493 22.2801 28.4493 22.283C28.4493 22.2859 28.4493 22.2888 28.4493 22.2917C28.4493 22.2946 28.4493 22.2975 28.4493 22.3004C28.4493 22.3033 28.4493 22.3061 28.4493 22.309C28.4493 22.3119 28.4493 22.3148 28.4493 22.3177C28.4493 22.3206 28.4493 22.3235 28.4493 22.3264C28.4493 22.3293 28.4493 22.3322 28.4493 22.3351C28.4493 22.338 28.4493 22.3409 28.4493 22.3438C28.4493 22.3467 28.4493 22.3496 28.4493 22.3525C28.4493 22.3554 28.4493 22.3583 28.4493 22.3612C28.4493 22.3641 28.4493 22.367 28.4493 22.3698C28.4493 22.3727 28.4493 22.3756 28.4493 22.3785C28.4493 22.3814 28.4493 22.3843 28.4493 22.3872C28.4493 22.3901 28.4493 22.393 28.4493 22.3959C28.4493 22.3988 28.4493 22.4017 28.4493 22.4046C28.4493 22.4076 28.4493 22.4105 28.4493 22.4134C28.4493 22.4163 28.4493 22.4192 28.4493 22.4221C28.4493 22.425 28.4493 22.4279 28.4493 22.4308C28.4493 22.4337 28.4493 22.4366 28.4493 22.4395C28.4493 22.4424 28.4493 22.4453 28.4493 22.4482C28.4493 22.4511 28.4493 22.454 28.4493 22.4569C28.4493 22.4598 28.4493 22.4627 28.4493 22.4656C28.4493 22.4685 28.4493 22.4714 28.4493 22.4743C28.4493 22.4772 28.4493 22.4801 28.4493 22.483C28.4493 22.4859 28.4493 22.4888 28.4493 22.4917C28.4493 22.4947 28.4493 22.4976 28.4493 22.5005C28.4493 22.5034 28.4493 22.5063 28.4493 22.5092C28.4493 22.5121 28.4493 22.515 28.4493 22.5179C28.4493 22.5208 28.4493 22.5237 28.4493 22.5266C28.4493 22.5295 28.4493 22.5324 28.4493 22.5353C28.4493 22.5382 28.4493 22.5411 28.4493 22.544C28.4493 22.5469 28.4493 22.5498 28.4493 22.5527C28.4493 22.5556 28.4493 22.5586 28.4493 22.5615C28.4493 22.5644 28.4493 22.5673 28.4493 22.5702C28.4493 22.5731 28.4493 22.576 28.4493 22.5789C28.4493 22.5818 28.4493 22.5847 28.4493 22.5876C28.4493 22.5905 28.4493 22.5934 28.4493 22.5963C28.4493 22.5992 28.4493 22.6021 28.4493 22.605C28.4493 22.6079 28.4493 22.6108 28.4493 22.6137C28.4493 22.6166 28.4493 22.6195 28.4493 22.6224C28.4493 22.6253 28.4493 22.6282 28.4493 22.6311C28.4493 22.634 28.4493 22.6369 28.4493 22.6398C28.4493 22.6427 28.4493 22.6456 28.4493 22.6485C28.4493 22.6514 28.4493 22.6543 28.4493 22.6572C28.4493 22.6601 28.4493 22.663 28.4493 22.6659C28.4493 22.6688 28.4493 22.6717 28.4493 22.6746C28.4493 22.6775 28.4493 22.6804 28.4493 22.6833C28.4493 22.6861 28.4493 22.689 28.4493 22.6919C28.4493 22.6948 28.4493 22.6977 28.4493 22.7006C28.4493 22.7035 28.4493 22.7064 28.4493 22.7093C28.4493 22.7122 28.4493 22.7151 28.4493 22.718C28.4493 22.7209 28.4493 22.7237 28.4493 22.7266C28.4493 22.7295 28.4493 22.7324 28.4493 22.7353C28.4493 22.7382 28.4493 22.7411 28.4493 22.744C28.4493 22.7468 28.4493 22.7497 28.4493 22.7526C28.4493 22.7555 28.4493 22.7584 28.4493 22.7613C28.4493 22.7642 28.4493 22.767 28.4493 22.7699C28.4493 22.7728 28.4493 22.7757 28.4493 22.7786C28.4493 22.7815 28.4493 22.7843 28.4493 22.7872C28.4493 22.7901 28.4493 22.793 28.4493 22.7958C28.4493 22.7987 28.4493 22.8016 28.4493 22.8045C28.4493 22.8074 28.4493 22.8102 28.4493 22.8131C28.4493 22.816 28.4493 22.8189 28.4493 22.8217C28.4493 22.8246 28.4493 22.8275 28.4493 22.8303C28.4493 22.8332 28.4493 22.8361 28.4493 22.839C28.4493 22.8418 28.4493 22.8447 28.4493 22.8476C28.4493 22.8504 28.4493 22.8533 28.4493 22.8562C28.4493 22.859 28.4493 22.8619 28.4493 22.8648C28.4493 22.8676 28.4493 22.8705 28.4493 22.8733C28.4493 22.8762 28.4493 22.8791 28.4493 22.8819C28.4493 22.8848 28.4493 22.8876 28.4493 22.8905C28.4493 22.8934 28.4493 22.8962 28.4493 22.8991C28.4493 22.9019 28.4493 22.9048 28.4493 22.9076C28.4493 22.9105 28.4493 22.9133 28.4493 22.9162C28.4493 22.919 28.4493 22.9219 28.4493 22.9247C28.4493 22.9276 28.4493 22.9304 28.4493 22.9333C28.4493 22.9361 28.4493 22.939 28.4493 22.9418C28.4493 22.9447 28.4493 22.9475 28.4493 22.9503C28.4493 22.9532 28.4493 22.956 28.4493 22.9589C28.4493 22.9617 28.4493 22.9645 28.4493 22.9674C28.4493 22.9702 28.4493 22.973 28.4493 22.9759C28.4493 22.9787 28.4493 22.9815 28.4493 22.9844C28.4493 22.9872 28.4493 22.99 28.4493 22.9929C28.4493 22.9957 28.4493 22.9985 28.4493 23.0013C28.4493 23.0042 28.4493 23.007 28.4493 23.0098C28.4493 23.0126 28.4493 23.0155 28.4493 23.0183C28.4493 23.0211 28.4493 23.0239 28.4493 23.0267C28.4493 23.0296 28.4493 23.0324 28.4493 23.0352C28.4493 23.038 28.4493 23.0408 28.4493 23.0436C28.4493 23.0464 28.4493 23.0492 28.4493 23.0521C28.4493 23.0549 28.4493 23.0577 28.4493 23.0605C28.4493 23.0633 28.4493 23.0661 28.4493 23.0689C28.4493 23.0717 28.4493 23.0745 28.4493 23.0773C28.4493 23.0801 28.4493 23.0829 28.4493 23.0857C28.4493 23.0885 28.4493 23.0913 28.4493 23.0941C28.4493 23.0969 28.4493 23.0996 28.4493 23.1024C28.4493 23.1052 28.4493 23.108 28.4493 23.1108C28.4493 23.1136 28.4493 23.1164 28.4493 23.1191C28.4493 23.1219 28.4493 23.1247 28.4493 23.1275C28.4493 23.1303 28.4493 23.133 28.4493 23.1358C28.4493 23.1386 28.4493 23.1414 28.4493 23.1441C28.4493 23.1469 28.4493 23.1497 28.4493 23.1525C28.4493 23.1552 28.4493 23.158 28.4493 23.1608C28.4493 23.1635 28.4493 23.1663 28.4493 23.169C28.4493 23.1718 28.4493 23.1746 28.4493 23.1773C28.4493 23.1801 28.4493 23.1828 28.4493 23.1856C28.4493 23.1883 28.4493 23.1911 28.4493 23.1938C28.4493 23.1966 28.4493 23.1993 28.4493 23.2021C28.4493 23.2048 28.4493 23.2076 28.4493 23.2103C28.4493 23.2131 28.4493 23.2158 28.4493 23.2185C28.4493 23.2213 28.4493 23.224 28.4493 23.2267C28.4493 23.2295 28.4493 23.2322 28.4493 23.2349C28.4493 23.2377 28.4493 23.2404 28.4493 23.2431C28.4493 23.2458 28.4493 23.2486 28.4493 23.2513C28.4493 23.254 28.4493 23.2567 28.4493 23.2594C28.4493 23.2622 28.4493 23.2649 28.4493 23.2676C28.4493 23.2703 28.4493 23.273 28.4493 23.2757C28.4493 23.2784 28.4493 23.2811 28.4493 23.2838C28.4493 23.2865 28.4493 23.2892 28.4493 23.2919C28.4493 23.2946 28.4493 23.2973 28.4493 23.3C28.4493 23.3027 28.4493 23.3054 28.4493 23.3081C28.4493 23.3108 28.4493 23.3135 28.4493 23.3162C28.4493 23.3189 28.4493 23.3216 28.4493 23.3242C28.4493 23.3269 28.4493 23.3296 28.4493 23.3323C28.4493 23.335 28.4493 23.3376 28.4493 23.3403C28.4493 23.343 28.4493 23.3456 28.4493 23.3483C28.4493 23.351 28.4493 23.3536 28.4493 23.3563C28.4493 23.359 28.4493 23.3616 28.4493 23.3643C28.4493 23.3669 28.4493 23.3696 28.4493 23.3723C28.4493 23.3749 28.4493 23.3776 28.4493 23.3802C28.4493 23.3829 28.4493 23.3855 28.4493 23.3881C28.4493 23.3908 28.4493 23.3934 28.4493 23.3961C28.4493 23.3987 28.4493 23.4013 28.4493 23.404C28.4493 23.4066 28.4493 23.4092 28.4493 23.4119C28.4493 23.4145 28.4493 23.4171 28.4493 23.4197C28.4493 23.4224 28.4493 23.425 28.4493 23.4276C28.4493 23.4302 28.4493 23.4328 28.4493 23.4354C28.4493 23.4381 28.4493 23.4407 28.4493 23.4433C28.4493 23.4459 28.4493 23.4485 28.4493 23.4511C28.4493 23.4537 28.4493 23.4563 28.4493 23.4589C28.4493 23.4615 28.4493 23.4641 28.4493 23.4667C28.4493 23.4693 28.4493 23.4718 28.4493 23.4744C28.4493 23.477 28.4493 23.4796 28.4493 23.4822C28.4493 23.4847 28.4493 23.4873 28.4493 23.4899C28.4493 23.4925 28.4493 23.495 28.4493 23.4976C28.4493 23.5002 28.4493 23.5027 28.4493 23.5053C28.4493 23.5079 28.4493 23.5104 28.4493 23.513C28.4493 23.5155 28.4493 23.5181 28.4493 23.5207C28.4493 23.5232 28.4493 23.5258 28.4493 23.5283C28.4493 23.5308 28.4493 23.5334 28.4493 23.5359C28.4493 23.5385 28.4493 23.541 28.4493 23.5435C28.4493 23.5461 28.4493 23.5486 28.4493 23.5511C28.4493 23.5536 28.4493 23.5562 28.4493 23.5587C28.4493 23.5612 28.4493 23.5637 28.4493 23.5662C28.4493 23.5688 28.4493 23.5713 28.4493 23.5738C28.4493 23.5763 28.4493 23.5788 28.4493 23.5813C28.4493 23.5838 28.4493 23.5863 28.4493 23.5888C28.4493 23.5913 28.4493 23.5938 28.4493 23.5963C28.4493 23.5988 28.4493 23.6013 28.4493 23.6037C28.4493 23.6062 28.4493 23.6087 28.4493 23.6112C28.4493 23.6137 28.4493 23.6161 28.4493 23.6186C28.4493 23.6211 28.4493 23.6235 28.4493 23.626C28.4493 23.6285 28.4493 23.6309 28.4493 23.6334C28.4493 23.6359 28.4493 23.6383 28.4493 23.6408C28.4493 23.6432 28.4493 23.6457 28.4493 23.6481C28.4493 23.6506 28.4493 23.653 28.4493 23.6554C28.4493 23.6579 28.4493 23.6603 28.4493 23.6627C28.4493 23.6652 28.4493 23.6676 28.4493 23.67C28.4493 23.6724 28.4493 23.6749 28.4493 23.6773C28.4493 23.6797 28.4493 23.6821 28.4493 23.6845C28.4493 23.6869 28.4493 23.6893 28.4493 23.6917C28.4493 23.6942 28.4493 23.6966 28.4493 23.699C28.4493 23.7013 28.4493 23.7037 28.4493 23.7061C28.4493 23.7085 28.4493 23.7109 28.4493 23.7133C28.4493 23.7157 28.4493 23.7181 28.4493 23.7204C28.4493 23.7228 28.4493 23.7252 28.4493 23.7275C28.4493 23.7299 28.4493 23.7323 28.4493 23.7346C28.4493 23.737 28.4493 23.7394 28.4493 23.7417C28.4493 23.7441 28.4493 23.7464 28.4493 23.7488C28.4493 23.7511 28.4493 23.7535 28.4493 23.7558C28.4493 23.7581 28.4493 23.7605 28.4493 23.7628C28.4493 23.7651 28.4493 23.7675 28.4493 23.7698C28.4493 23.7721 28.4493 23.7744 28.4493 23.7768C28.4493 23.7791 28.4493 23.7814 28.4493 23.7837C28.4493 23.786 28.4493 23.7883 28.4493 23.7906C28.4493 23.7929 28.4493 23.7952 28.4493 23.7975C28.4493 23.7998 28.4493 23.8021 28.4493 23.8044C28.4493 23.8067 28.4493 23.809 28.4493 23.8112C28.4493 23.8135 28.4493 23.8158 28.4493 23.8181C28.4493 23.8203 28.4493 23.8226 28.4493 23.8249C28.4493 23.8271 28.4493 23.8294 28.4493 23.8316H29.1993ZM29.1993 20.4866L29.5348 19.8158L28.1447 19.1208L27.8093 19.7916L27.4739 20.4625L28.8639 21.1575L29.1993 20.4866ZM24.5894 19.7916L24.9248 20.4625C25.7271 20.0613 26.6716 20.0613 27.4739 20.4625L27.8093 19.7916L28.1447 19.1208C26.9201 18.5085 25.4786 18.5085 24.254 19.1208L24.5894 19.7916Z" fill="#18B979"/>
</svg>
