<svg width="24" height="24" viewBox="0 0 24 24" fill="none" xmlns="http://www.w3.org/2000/svg">
<g id="card-shield">
<path id="Icon" d="M1.80006 15.4116L1.05006 15.4117L1.80006 15.4116ZM1.7998 6.41179L2.5498 6.41176L1.7998 6.41179ZM11.9997 18.5617C12.4139 18.5617 12.7497 18.2259 12.7497 17.8117C12.7497 17.3975 12.414 17.0617 11.9998 17.0617L11.9997 18.5617ZM4.20002 17.8116L4.20003 17.0616H4.20003L4.20002 17.8116ZM20.9993 6.41164L20.2493 6.41166V6.41166L20.9993 6.41164ZM2.39934 7.46157C1.98513 7.46157 1.64934 7.79736 1.64934 8.21157C1.64934 8.62578 1.98513 8.96157 2.39934 8.96157V7.46157ZM20.3993 8.96157C20.8136 8.96157 21.1493 8.62578 21.1493 8.21157C21.1493 7.79736 20.8136 7.46157 20.3993 7.46157V8.96157ZM16.1993 13.4866L15.8639 12.8158C15.6098 12.9429 15.4493 13.2026 15.4493 13.4866H16.1993ZM19.1993 19.9866L18.7989 20.6208C19.0435 20.7753 19.3552 20.7753 19.5998 20.6208L19.1993 19.9866ZM22.1993 13.4866H22.9493C22.9493 13.2026 22.7888 12.9429 22.5348 12.8158L22.1993 13.4866ZM17.5894 12.7916L17.9248 13.4625L17.5894 12.7916ZM20.8093 12.7916L20.4739 13.4625H20.4739L20.8093 12.7916ZM4.1998 4.01172V4.76172H18.5988V4.01172V3.26172H4.1998V4.01172ZM1.80006 15.4116L2.55006 15.4116L2.5498 6.41176L1.7998 6.41179L1.0498 6.41181L1.05006 15.4117L1.80006 15.4116ZM11.9997 17.8117L11.9998 17.0617L4.20003 17.0616L4.20002 17.8116L4.20001 18.5616L11.9997 18.5617L11.9997 17.8117ZM20.9993 6.41164L20.2493 6.41166L20.2493 8.21174L20.9993 8.21172L21.7493 8.2117L21.7493 6.41163L20.9993 6.41164ZM4.1998 4.01172V3.26172C2.46007 3.26172 1.04976 4.67207 1.0498 6.41181L1.7998 6.41179L2.5498 6.41176C2.54978 5.50048 3.28852 4.76172 4.1998 4.76172V4.01172ZM18.5988 4.01172V4.76172C19.5105 4.76172 20.2493 5.50039 20.2493 6.41166L20.9993 6.41164L21.7493 6.41163C21.7493 4.67148 20.3384 3.26172 18.5988 3.26172V4.01172ZM1.80006 15.4116L1.05006 15.4117C1.05011 17.1513 2.46037 18.5615 4.20001 18.5616L4.20002 17.8116L4.20003 17.0616C3.28879 17.0616 2.55009 16.3229 2.55006 15.4116L1.80006 15.4116ZM2.39934 8.21157V8.96157H20.3993V8.21157V7.46157H2.39934V8.21157ZM17.5894 12.7916L17.254 12.1208L15.8639 12.8158L16.1993 13.4866L16.5348 14.1575L17.9248 13.4625L17.5894 12.7916ZM16.1993 13.4866H15.4493V16.8316H16.1993H16.9493V13.4866H16.1993ZM16.1993 16.8316H15.4493C15.4493 17.5793 15.8831 18.2439 16.4369 18.8137C17.0061 19.3992 17.8137 19.9986 18.7989 20.6208L19.1993 19.9866L19.5998 19.3525C18.6527 18.7544 17.9603 18.2288 17.5125 17.7681C17.0494 17.2917 16.9493 16.989 16.9493 16.8316H16.1993ZM19.1993 19.9866L19.5998 20.6208C20.5556 20.0172 21.3723 19.4781 21.9454 18.9237C22.539 18.3495 22.9493 17.6839 22.9493 16.8316H22.1993H21.4493C21.4493 17.1344 21.3258 17.4361 20.9025 17.8456C20.4587 18.2749 19.7754 18.7358 18.7989 19.3525L19.1993 19.9866ZM22.1993 16.8316H22.9493C22.9493 16.8294 22.9493 16.8271 22.9493 16.8249C22.9493 16.8226 22.9493 16.8203 22.9493 16.8181C22.9493 16.8158 22.9493 16.8135 22.9493 16.8112C22.9493 16.809 22.9493 16.8067 22.9493 16.8044C22.9493 16.8021 22.9493 16.7998 22.9493 16.7975C22.9493 16.7952 22.9493 16.7929 22.9493 16.7906C22.9493 16.7883 22.9493 16.786 22.9493 16.7837C22.9493 16.7814 22.9493 16.7791 22.9493 16.7768C22.9493 16.7744 22.9493 16.7721 22.9493 16.7698C22.9493 16.7675 22.9493 16.7651 22.9493 16.7628C22.9493 16.7605 22.9493 16.7581 22.9493 16.7558C22.9493 16.7535 22.9493 16.7511 22.9493 16.7488C22.9493 16.7464 22.9493 16.7441 22.9493 16.7417C22.9493 16.7394 22.9493 16.737 22.9493 16.7346C22.9493 16.7323 22.9493 16.7299 22.9493 16.7275C22.9493 16.7252 22.9493 16.7228 22.9493 16.7204C22.9493 16.7181 22.9493 16.7157 22.9493 16.7133C22.9493 16.7109 22.9493 16.7085 22.9493 16.7061C22.9493 16.7037 22.9493 16.7013 22.9493 16.699C22.9493 16.6966 22.9493 16.6942 22.9493 16.6917C22.9493 16.6893 22.9493 16.6869 22.9493 16.6845C22.9493 16.6821 22.9493 16.6797 22.9493 16.6773C22.9493 16.6749 22.9493 16.6724 22.9493 16.67C22.9493 16.6676 22.9493 16.6652 22.9493 16.6627C22.9493 16.6603 22.9493 16.6579 22.9493 16.6554C22.9493 16.653 22.9493 16.6506 22.9493 16.6481C22.9493 16.6457 22.9493 16.6432 22.9493 16.6408C22.9493 16.6383 22.9493 16.6359 22.9493 16.6334C22.9493 16.6309 22.9493 16.6285 22.9493 16.626C22.9493 16.6235 22.9493 16.6211 22.9493 16.6186C22.9493 16.6161 22.9493 16.6137 22.9493 16.6112C22.9493 16.6087 22.9493 16.6062 22.9493 16.6037C22.9493 16.6013 22.9493 16.5988 22.9493 16.5963C22.9493 16.5938 22.9493 16.5913 22.9493 16.5888C22.9493 16.5863 22.9493 16.5838 22.9493 16.5813C22.9493 16.5788 22.9493 16.5763 22.9493 16.5738C22.9493 16.5713 22.9493 16.5688 22.9493 16.5662C22.9493 16.5637 22.9493 16.5612 22.9493 16.5587C22.9493 16.5562 22.9493 16.5536 22.9493 16.5511C22.9493 16.5486 22.9493 16.5461 22.9493 16.5435C22.9493 16.541 22.9493 16.5385 22.9493 16.5359C22.9493 16.5334 22.9493 16.5308 22.9493 16.5283C22.9493 16.5258 22.9493 16.5232 22.9493 16.5207C22.9493 16.5181 22.9493 16.5155 22.9493 16.513C22.9493 16.5104 22.9493 16.5079 22.9493 16.5053C22.9493 16.5027 22.9493 16.5002 22.9493 16.4976C22.9493 16.495 22.9493 16.4925 22.9493 16.4899C22.9493 16.4873 22.9493 16.4847 22.9493 16.4822C22.9493 16.4796 22.9493 16.477 22.9493 16.4744C22.9493 16.4718 22.9493 16.4693 22.9493 16.4667C22.9493 16.4641 22.9493 16.4615 22.9493 16.4589C22.9493 16.4563 22.9493 16.4537 22.9493 16.4511C22.9493 16.4485 22.9493 16.4459 22.9493 16.4433C22.9493 16.4407 22.9493 16.4381 22.9493 16.4354C22.9493 16.4328 22.9493 16.4302 22.9493 16.4276C22.9493 16.425 22.9493 16.4224 22.9493 16.4197C22.9493 16.4171 22.9493 16.4145 22.9493 16.4119C22.9493 16.4092 22.9493 16.4066 22.9493 16.404C22.9493 16.4013 22.9493 16.3987 22.9493 16.3961C22.9493 16.3934 22.9493 16.3908 22.9493 16.3881C22.9493 16.3855 22.9493 16.3829 22.9493 16.3802C22.9493 16.3776 22.9493 16.3749 22.9493 16.3723C22.9493 16.3696 22.9493 16.3669 22.9493 16.3643C22.9493 16.3616 22.9493 16.359 22.9493 16.3563C22.9493 16.3536 22.9493 16.351 22.9493 16.3483C22.9493 16.3456 22.9493 16.343 22.9493 16.3403C22.9493 16.3376 22.9493 16.335 22.9493 16.3323C22.9493 16.3296 22.9493 16.3269 22.9493 16.3242C22.9493 16.3216 22.9493 16.3189 22.9493 16.3162C22.9493 16.3135 22.9493 16.3108 22.9493 16.3081C22.9493 16.3054 22.9493 16.3027 22.9493 16.3C22.9493 16.2973 22.9493 16.2946 22.9493 16.2919C22.9493 16.2892 22.9493 16.2865 22.9493 16.2838C22.9493 16.2811 22.9493 16.2784 22.9493 16.2757C22.9493 16.273 22.9493 16.2703 22.9493 16.2676C22.9493 16.2649 22.9493 16.2622 22.9493 16.2594C22.9493 16.2567 22.9493 16.254 22.9493 16.2513C22.9493 16.2486 22.9493 16.2458 22.9493 16.2431C22.9493 16.2404 22.9493 16.2377 22.9493 16.2349C22.9493 16.2322 22.9493 16.2295 22.9493 16.2267C22.9493 16.224 22.9493 16.2213 22.9493 16.2185C22.9493 16.2158 22.9493 16.2131 22.9493 16.2103C22.9493 16.2076 22.9493 16.2048 22.9493 16.2021C22.9493 16.1993 22.9493 16.1966 22.9493 16.1938C22.9493 16.1911 22.9493 16.1883 22.9493 16.1856C22.9493 16.1828 22.9493 16.1801 22.9493 16.1773C22.9493 16.1746 22.9493 16.1718 22.9493 16.169C22.9493 16.1663 22.9493 16.1635 22.9493 16.1608C22.9493 16.158 22.9493 16.1552 22.9493 16.1525C22.9493 16.1497 22.9493 16.1469 22.9493 16.1441C22.9493 16.1414 22.9493 16.1386 22.9493 16.1358C22.9493 16.133 22.9493 16.1303 22.9493 16.1275C22.9493 16.1247 22.9493 16.1219 22.9493 16.1191C22.9493 16.1164 22.9493 16.1136 22.9493 16.1108C22.9493 16.108 22.9493 16.1052 22.9493 16.1024C22.9493 16.0996 22.9493 16.0969 22.9493 16.0941C22.9493 16.0913 22.9493 16.0885 22.9493 16.0857C22.9493 16.0829 22.9493 16.0801 22.9493 16.0773C22.9493 16.0745 22.9493 16.0717 22.9493 16.0689C22.9493 16.0661 22.9493 16.0633 22.9493 16.0605C22.9493 16.0577 22.9493 16.0549 22.9493 16.0521C22.9493 16.0492 22.9493 16.0464 22.9493 16.0436C22.9493 16.0408 22.9493 16.038 22.9493 16.0352C22.9493 16.0324 22.9493 16.0296 22.9493 16.0267C22.9493 16.0239 22.9493 16.0211 22.9493 16.0183C22.9493 16.0155 22.9493 16.0126 22.9493 16.0098C22.9493 16.007 22.9493 16.0042 22.9493 16.0013C22.9493 15.9985 22.9493 15.9957 22.9493 15.9929C22.9493 15.99 22.9493 15.9872 22.9493 15.9844C22.9493 15.9815 22.9493 15.9787 22.9493 15.9759C22.9493 15.973 22.9493 15.9702 22.9493 15.9674C22.9493 15.9645 22.9493 15.9617 22.9493 15.9589C22.9493 15.956 22.9493 15.9532 22.9493 15.9503C22.9493 15.9475 22.9493 15.9447 22.9493 15.9418C22.9493 15.939 22.9493 15.9361 22.9493 15.9333C22.9493 15.9304 22.9493 15.9276 22.9493 15.9247C22.9493 15.9219 22.9493 15.919 22.9493 15.9162C22.9493 15.9133 22.9493 15.9105 22.9493 15.9076C22.9493 15.9048 22.9493 15.9019 22.9493 15.8991C22.9493 15.8962 22.9493 15.8934 22.9493 15.8905C22.9493 15.8876 22.9493 15.8848 22.9493 15.8819C22.9493 15.8791 22.9493 15.8762 22.9493 15.8733C22.9493 15.8705 22.9493 15.8676 22.9493 15.8648C22.9493 15.8619 22.9493 15.859 22.9493 15.8562C22.9493 15.8533 22.9493 15.8504 22.9493 15.8476C22.9493 15.8447 22.9493 15.8418 22.9493 15.839C22.9493 15.8361 22.9493 15.8332 22.9493 15.8303C22.9493 15.8275 22.9493 15.8246 22.9493 15.8217C22.9493 15.8189 22.9493 15.816 22.9493 15.8131C22.9493 15.8102 22.9493 15.8074 22.9493 15.8045C22.9493 15.8016 22.9493 15.7987 22.9493 15.7958C22.9493 15.793 22.9493 15.7901 22.9493 15.7872C22.9493 15.7843 22.9493 15.7815 22.9493 15.7786C22.9493 15.7757 22.9493 15.7728 22.9493 15.7699C22.9493 15.767 22.9493 15.7642 22.9493 15.7613C22.9493 15.7584 22.9493 15.7555 22.9493 15.7526C22.9493 15.7497 22.9493 15.7468 22.9493 15.744C22.9493 15.7411 22.9493 15.7382 22.9493 15.7353C22.9493 15.7324 22.9493 15.7295 22.9493 15.7266C22.9493 15.7237 22.9493 15.7209 22.9493 15.718C22.9493 15.7151 22.9493 15.7122 22.9493 15.7093C22.9493 15.7064 22.9493 15.7035 22.9493 15.7006C22.9493 15.6977 22.9493 15.6948 22.9493 15.6919C22.9493 15.689 22.9493 15.6861 22.9493 15.6833C22.9493 15.6804 22.9493 15.6775 22.9493 15.6746C22.9493 15.6717 22.9493 15.6688 22.9493 15.6659C22.9493 15.663 22.9493 15.6601 22.9493 15.6572C22.9493 15.6543 22.9493 15.6514 22.9493 15.6485C22.9493 15.6456 22.9493 15.6427 22.9493 15.6398C22.9493 15.6369 22.9493 15.634 22.9493 15.6311C22.9493 15.6282 22.9493 15.6253 22.9493 15.6224C22.9493 15.6195 22.9493 15.6166 22.9493 15.6137C22.9493 15.6108 22.9493 15.6079 22.9493 15.605C22.9493 15.6021 22.9493 15.5992 22.9493 15.5963C22.9493 15.5934 22.9493 15.5905 22.9493 15.5876C22.9493 15.5847 22.9493 15.5818 22.9493 15.5789C22.9493 15.576 22.9493 15.5731 22.9493 15.5702C22.9493 15.5673 22.9493 15.5644 22.9493 15.5615C22.9493 15.5586 22.9493 15.5556 22.9493 15.5527C22.9493 15.5498 22.9493 15.5469 22.9493 15.544C22.9493 15.5411 22.9493 15.5382 22.9493 15.5353C22.9493 15.5324 22.9493 15.5295 22.9493 15.5266C22.9493 15.5237 22.9493 15.5208 22.9493 15.5179C22.9493 15.515 22.9493 15.5121 22.9493 15.5092C22.9493 15.5063 22.9493 15.5034 22.9493 15.5005C22.9493 15.4976 22.9493 15.4947 22.9493 15.4917C22.9493 15.4888 22.9493 15.4859 22.9493 15.483C22.9493 15.4801 22.9493 15.4772 22.9493 15.4743C22.9493 15.4714 22.9493 15.4685 22.9493 15.4656C22.9493 15.4627 22.9493 15.4598 22.9493 15.4569C22.9493 15.454 22.9493 15.4511 22.9493 15.4482C22.9493 15.4453 22.9493 15.4424 22.9493 15.4395C22.9493 15.4366 22.9493 15.4337 22.9493 15.4308C22.9493 15.4279 22.9493 15.425 22.9493 15.4221C22.9493 15.4192 22.9493 15.4163 22.9493 15.4134C22.9493 15.4105 22.9493 15.4076 22.9493 15.4046C22.9493 15.4017 22.9493 15.3988 22.9493 15.3959C22.9493 15.393 22.9493 15.3901 22.9493 15.3872C22.9493 15.3843 22.9493 15.3814 22.9493 15.3785C22.9493 15.3756 22.9493 15.3727 22.9493 15.3698C22.9493 15.367 22.9493 15.3641 22.9493 15.3612C22.9493 15.3583 22.9493 15.3554 22.9493 15.3525C22.9493 15.3496 22.9493 15.3467 22.9493 15.3438C22.9493 15.3409 22.9493 15.338 22.9493 15.3351C22.9493 15.3322 22.9493 15.3293 22.9493 15.3264C22.9493 15.3235 22.9493 15.3206 22.9493 15.3177C22.9493 15.3148 22.9493 15.3119 22.9493 15.309C22.9493 15.3061 22.9493 15.3033 22.9493 15.3004C22.9493 15.2975 22.9493 15.2946 22.9493 15.2917C22.9493 15.2888 22.9493 15.2859 22.9493 15.283C22.9493 15.2801 22.9493 15.2772 22.9493 15.2744C22.9493 15.2715 22.9493 15.2686 22.9493 15.2657C22.9493 15.2628 22.9493 15.2599 22.9493 15.257C22.9493 15.2542 22.9493 15.2513 22.9493 15.2484C22.9493 15.2455 22.9493 15.2426 22.9493 15.2397C22.9493 15.2369 22.9493 15.234 22.9493 15.2311C22.9493 15.2282 22.9493 15.2253 22.9493 15.2225C22.9493 15.2196 22.9493 15.2167 22.9493 15.2138C22.9493 15.2109 22.9493 15.2081 22.9493 15.2052C22.9493 15.2023 22.9493 15.1994 22.9493 15.1966C22.9493 15.1937 22.9493 15.1908 22.9493 15.188C22.9493 15.1851 22.9493 15.1822 22.9493 15.1793C22.9493 15.1765 22.9493 15.1736 22.9493 15.1707C22.9493 15.1679 22.9493 15.165 22.9493 15.1621C22.9493 15.1593 22.9493 15.1564 22.9493 15.1535C22.9493 15.1507 22.9493 15.1478 22.9493 15.1449C22.9493 15.1421 22.9493 15.1392 22.9493 15.1364C22.9493 15.1335 22.9493 15.1306 22.9493 15.1278C22.9493 15.1249 22.9493 15.1221 22.9493 15.1192C22.9493 15.1163 22.9493 15.1135 22.9493 15.1106C22.9493 15.1078 22.9493 15.1049 22.9493 15.1021C22.9493 15.0992 22.9493 15.0964 22.9493 15.0935C22.9493 15.0907 22.9493 15.0878 22.9493 15.085C22.9493 15.0821 22.9493 15.0793 22.9493 15.0764C22.9493 15.0736 22.9493 15.0707 22.9493 15.0679C22.9493 15.0651 22.9493 15.0622 22.9493 15.0594C22.9493 15.0565 22.9493 15.0537 22.9493 15.0509C22.9493 15.048 22.9493 15.0452 22.9493 15.0423C22.9493 15.0395 22.9493 15.0367 22.9493 15.0338C22.9493 15.031 22.9493 15.0282 22.9493 15.0254C22.9493 15.0225 22.9493 15.0197 22.9493 15.0169C22.9493 15.014 22.9493 15.0112 22.9493 15.0084C22.9493 15.0056 22.9493 15.0027 22.9493 14.9999C22.9493 14.9971 22.9493 14.9943 22.9493 14.9915C22.9493 14.9886 22.9493 14.9858 22.9493 14.983C22.9493 14.9802 22.9493 14.9774 22.9493 14.9746C22.9493 14.9717 22.9493 14.9689 22.9493 14.9661C22.9493 14.9633 22.9493 14.9605 22.9493 14.9577C22.9493 14.9549 22.9493 14.9521 22.9493 14.9493C22.9493 14.9465 22.9493 14.9437 22.9493 14.9409C22.9493 14.9381 22.9493 14.9353 22.9493 14.9325C22.9493 14.9297 22.9493 14.9269 22.9493 14.9241C22.9493 14.9213 22.9493 14.9185 22.9493 14.9157C22.9493 14.9129 22.9493 14.9101 22.9493 14.9073C22.9493 14.9046 22.9493 14.9018 22.9493 14.899C22.9493 14.8962 22.9493 14.8934 22.9493 14.8906C22.9493 14.8879 22.9493 14.8851 22.9493 14.8823C22.9493 14.8795 22.9493 14.8767 22.9493 14.874C22.9493 14.8712 22.9493 14.8684 22.9493 14.8656C22.9493 14.8629 22.9493 14.8601 22.9493 14.8573C22.9493 14.8546 22.9493 14.8518 22.9493 14.849C22.9493 14.8463 22.9493 14.8435 22.9493 14.8408C22.9493 14.838 22.9493 14.8352 22.9493 14.8325C22.9493 14.8297 22.9493 14.827 22.9493 14.8242C22.9493 14.8215 22.9493 14.8187 22.9493 14.816C22.9493 14.8132 22.9493 14.8105 22.9493 14.8077C22.9493 14.805 22.9493 14.8023 22.9493 14.7995C22.9493 14.7968 22.9493 14.794 22.9493 14.7913C22.9493 14.7886 22.9493 14.7858 22.9493 14.7831C22.9493 14.7804 22.9493 14.7776 22.9493 14.7749C22.9493 14.7722 22.9493 14.7694 22.9493 14.7667C22.9493 14.764 22.9493 14.7613 22.9493 14.7586C22.9493 14.7558 22.9493 14.7531 22.9493 14.7504C22.9493 14.7477 22.9493 14.745 22.9493 14.7423C22.9493 14.7396 22.9493 14.7368 22.9493 14.7341C22.9493 14.7314 22.9493 14.7287 22.9493 14.726C22.9493 14.7233 22.9493 14.7206 22.9493 14.7179C22.9493 14.7152 22.9493 14.7125 22.9493 14.7098C22.9493 14.7071 22.9493 14.7044 22.9493 14.7018C22.9493 14.6991 22.9493 14.6964 22.9493 14.6937C22.9493 14.691 22.9493 14.6883 22.9493 14.6857C22.9493 14.683 22.9493 14.6803 22.9493 14.6776C22.9493 14.6749 22.9493 14.6723 22.9493 14.6696C22.9493 14.6669 22.9493 14.6643 22.9493 14.6616C22.9493 14.6589 22.9493 14.6563 22.9493 14.6536C22.9493 14.6509 22.9493 14.6483 22.9493 14.6456C22.9493 14.643 22.9493 14.6403 22.9493 14.6377C22.9493 14.635 22.9493 14.6324 22.9493 14.6297C22.9493 14.6271 22.9493 14.6244 22.9493 14.6218C22.9493 14.6191 22.9493 14.6165 22.9493 14.6139C22.9493 14.6112 22.9493 14.6086 22.9493 14.606C22.9493 14.6033 22.9493 14.6007 22.9493 14.5981C22.9493 14.5955 22.9493 14.5928 22.9493 14.5902C22.9493 14.5876 22.9493 14.585 22.9493 14.5824C22.9493 14.5797 22.9493 14.5771 22.9493 14.5745C22.9493 14.5719 22.9493 14.5693 22.9493 14.5667C22.9493 14.5641 22.9493 14.5615 22.9493 14.5589C22.9493 14.5563 22.9493 14.5537 22.9493 14.5511C22.9493 14.5485 22.9493 14.5459 22.9493 14.5433C22.9493 14.5407 22.9493 14.5382 22.9493 14.5356C22.9493 14.533 22.9493 14.5304 22.9493 14.5278C22.9493 14.5253 22.9493 14.5227 22.9493 14.5201C22.9493 14.5175 22.9493 14.515 22.9493 14.5124C22.9493 14.5098 22.9493 14.5073 22.9493 14.5047C22.9493 14.5021 22.9493 14.4996 22.9493 14.497C22.9493 14.4945 22.9493 14.4919 22.9493 14.4894C22.9493 14.4868 22.9493 14.4843 22.9493 14.4817C22.9493 14.4792 22.9493 14.4767 22.9493 14.4741C22.9493 14.4716 22.9493 14.4691 22.9493 14.4665C22.9493 14.464 22.9493 14.4615 22.9493 14.4589C22.9493 14.4564 22.9493 14.4539 22.9493 14.4514C22.9493 14.4489 22.9493 14.4463 22.9493 14.4438C22.9493 14.4413 22.9493 14.4388 22.9493 14.4363C22.9493 14.4338 22.9493 14.4313 22.9493 14.4288C22.9493 14.4263 22.9493 14.4238 22.9493 14.4213C22.9493 14.4188 22.9493 14.4163 22.9493 14.4138C22.9493 14.4113 22.9493 14.4088 22.9493 14.4064C22.9493 14.4039 22.9493 14.4014 22.9493 14.3989C22.9493 14.3965 22.9493 14.394 22.9493 14.3915C22.9493 14.389 22.9493 14.3866 22.9493 14.3841C22.9493 14.3817 22.9493 14.3792 22.9493 14.3767C22.9493 14.3743 22.9493 14.3718 22.9493 14.3694C22.9493 14.3669 22.9493 14.3645 22.9493 14.362C22.9493 14.3596 22.9493 14.3572 22.9493 14.3547C22.9493 14.3523 22.9493 14.3499 22.9493 14.3474C22.9493 14.345 22.9493 14.3426 22.9493 14.3402C22.9493 14.3377 22.9493 14.3353 22.9493 14.3329C22.9493 14.3305 22.9493 14.3281 22.9493 14.3257C22.9493 14.3233 22.9493 14.3208 22.9493 14.3184C22.9493 14.316 22.9493 14.3136 22.9493 14.3112C22.9493 14.3089 22.9493 14.3065 22.9493 14.3041C22.9493 14.3017 22.9493 14.2993 22.9493 14.2969C22.9493 14.2945 22.9493 14.2922 22.9493 14.2898C22.9493 14.2874 22.9493 14.2851 22.9493 14.2827C22.9493 14.2803 22.9493 14.278 22.9493 14.2756C22.9493 14.2732 22.9493 14.2709 22.9493 14.2685C22.9493 14.2662 22.9493 14.2638 22.9493 14.2615C22.9493 14.2591 22.9493 14.2568 22.9493 14.2545C22.9493 14.2521 22.9493 14.2498 22.9493 14.2475C22.9493 14.2451 22.9493 14.2428 22.9493 14.2405C22.9493 14.2382 22.9493 14.2358 22.9493 14.2335C22.9493 14.2312 22.9493 14.2289 22.9493 14.2266C22.9493 14.2243 22.9493 14.222 22.9493 14.2197C22.9493 14.2174 22.9493 14.2151 22.9493 14.2128C22.9493 14.2105 22.9493 14.2082 22.9493 14.2059C22.9493 14.2037 22.9493 14.2014 22.9493 14.1991C22.9493 14.1968 22.9493 14.1945 22.9493 14.1923C22.9493 14.19 22.9493 14.1877 22.9493 14.1855C22.9493 14.1832 22.9493 14.181 22.9493 14.1787C22.9493 14.1765 22.9493 14.1742 22.9493 14.172C22.9493 14.1697 22.9493 14.1675 22.9493 14.1652C22.9493 14.163 22.9493 14.1608 22.9493 14.1585C22.9493 14.1563 22.9493 14.1541 22.9493 14.1519C22.9493 14.1496 22.9493 14.1474 22.9493 14.1452C22.9493 14.143 22.9493 14.1408 22.9493 14.1386C22.9493 14.1364 22.9493 14.1342 22.9493 14.132C22.9493 14.1298 22.9493 14.1276 22.9493 14.1254C22.9493 14.1232 22.9493 14.121 22.9493 14.1189C22.9493 14.1167 22.9493 14.1145 22.9493 14.1123C22.9493 14.1102 22.9493 14.108 22.9493 14.1058C22.9493 14.1037 22.9493 14.1015 22.9493 14.0994C22.9493 14.0972 22.9493 14.0951 22.9493 14.0929C22.9493 14.0908 22.9493 14.0886 22.9493 14.0865C22.9493 14.0843 22.9493 14.0822 22.9493 14.0801C22.9493 14.078 22.9493 14.0758 22.9493 14.0737C22.9493 14.0716 22.9493 14.0695 22.9493 14.0674C22.9493 14.0652 22.9493 14.0631 22.9493 14.061C22.9493 14.0589 22.9493 14.0568 22.9493 14.0547C22.9493 14.0526 22.9493 14.0506 22.9493 14.0485C22.9493 14.0464 22.9493 14.0443 22.9493 14.0422C22.9493 14.0402 22.9493 14.0381 22.9493 14.036C22.9493 14.0339 22.9493 14.0319 22.9493 14.0298C22.9493 14.0278 22.9493 14.0257 22.9493 14.0237C22.9493 14.0216 22.9493 14.0196 22.9493 14.0175C22.9493 14.0155 22.9493 14.0135 22.9493 14.0114C22.9493 14.0094 22.9493 14.0074 22.9493 14.0053C22.9493 14.0033 22.9493 14.0013 22.9493 13.9993C22.9493 13.9973 22.9493 13.9953 22.9493 13.9933C22.9493 13.9913 22.9493 13.9893 22.9493 13.9873C22.9493 13.9853 22.9493 13.9833 22.9493 13.9813C22.9493 13.9793 22.9493 13.9773 22.9493 13.9754C22.9493 13.9734 22.9493 13.9714 22.9493 13.9695C22.9493 13.9675 22.9493 13.9655 22.9493 13.9636C22.9493 13.9616 22.9493 13.9597 22.9493 13.9577C22.9493 13.9558 22.9493 13.9538 22.9493 13.9519C22.9493 13.95 22.9493 13.948 22.9493 13.9461C22.9493 13.9442 22.9493 13.9423 22.9493 13.9403C22.9493 13.9384 22.9493 13.9365 22.9493 13.9346C22.9493 13.9327 22.9493 13.9308 22.9493 13.9289C22.9493 13.927 22.9493 13.9251 22.9493 13.9232C22.9493 13.9213 22.9493 13.9194 22.9493 13.9176C22.9493 13.9157 22.9493 13.9138 22.9493 13.9119C22.9493 13.9101 22.9493 13.9082 22.9493 13.9064C22.9493 13.9045 22.9493 13.9026 22.9493 13.9008C22.9493 13.8989 22.9493 13.8971 22.9493 13.8953C22.9493 13.8934 22.9493 13.8916 22.9493 13.8898C22.9493 13.8879 22.9493 13.8861 22.9493 13.8843C22.9493 13.8825 22.9493 13.8807 22.9493 13.8789C22.9493 13.877 22.9493 13.8752 22.9493 13.8734C22.9493 13.8717 22.9493 13.8699 22.9493 13.8681C22.9493 13.8663 22.9493 13.8645 22.9493 13.8627C22.9493 13.861 22.9493 13.8592 22.9493 13.8574C22.9493 13.8556 22.9493 13.8539 22.9493 13.8521C22.9493 13.8504 22.9493 13.8486 22.9493 13.8469C22.9493 13.8451 22.9493 13.8434 22.9493 13.8417C22.9493 13.8399 22.9493 13.8382 22.9493 13.8365C22.9493 13.8348 22.9493 13.833 22.9493 13.8313C22.9493 13.8296 22.9493 13.8279 22.9493 13.8262C22.9493 13.8245 22.9493 13.8228 22.9493 13.8211C22.9493 13.8194 22.9493 13.8177 22.9493 13.816C22.9493 13.8144 22.9493 13.8127 22.9493 13.811C22.9493 13.8094 22.9493 13.8077 22.9493 13.806C22.9493 13.8044 22.9493 13.8027 22.9493 13.8011C22.9493 13.7994 22.9493 13.7978 22.9493 13.7961C22.9493 13.7945 22.9493 13.7929 22.9493 13.7912C22.9493 13.7896 22.9493 13.788 22.9493 13.7864C22.9493 13.7848 22.9493 13.7832 22.9493 13.7816C22.9493 13.78 22.9493 13.7784 22.9493 13.7768C22.9493 13.7752 22.9493 13.7736 22.9493 13.772C22.9493 13.7704 22.9493 13.7688 22.9493 13.7673C22.9493 13.7657 22.9493 13.7641 22.9493 13.7626C22.9493 13.761 22.9493 13.7595 22.9493 13.7579C22.9493 13.7564 22.9493 13.7548 22.9493 13.7533C22.9493 13.7518 22.9493 13.7502 22.9493 13.7487C22.9493 13.7472 22.9493 13.7457 22.9493 13.7442C22.9493 13.7426 22.9493 13.7411 22.9493 13.7396C22.9493 13.7381 22.9493 13.7366 22.9493 13.7351C22.9493 13.7337 22.9493 13.7322 22.9493 13.7307C22.9493 13.7292 22.9493 13.7277 22.9493 13.7263C22.9493 13.7248 22.9493 13.7234 22.9493 13.7219C22.9493 13.7204 22.9493 13.719 22.9493 13.7176C22.9493 13.7161 22.9493 13.7147 22.9493 13.7132C22.9493 13.7118 22.9493 13.7104 22.9493 13.709C22.9493 13.7076 22.9493 13.7061 22.9493 13.7047C22.9493 13.7033 22.9493 13.7019 22.9493 13.7005C22.9493 13.6991 22.9493 13.6977 22.9493 13.6964C22.9493 13.695 22.9493 13.6936 22.9493 13.6922C22.9493 13.6909 22.9493 13.6895 22.9493 13.6881C22.9493 13.6868 22.9493 13.6854 22.9493 13.6841C22.9493 13.6827 22.9493 13.6814 22.9493 13.6801C22.9493 13.6787 22.9493 13.6774 22.9493 13.6761C22.9493 13.6748 22.9493 13.6734 22.9493 13.6721C22.9493 13.6708 22.9493 13.6695 22.9493 13.6682C22.9493 13.6669 22.9493 13.6656 22.9493 13.6644C22.9493 13.6631 22.9493 13.6618 22.9493 13.6605C22.9493 13.6593 22.9493 13.658 22.9493 13.6567C22.9493 13.6555 22.9493 13.6542 22.9493 13.653C22.9493 13.6517 22.9493 13.6505 22.9493 13.6492C22.9493 13.648 22.9493 13.6468 22.9493 13.6456C22.9493 13.6443 22.9493 13.6431 22.9493 13.6419C22.9493 13.6407 22.9493 13.6395 22.9493 13.6383C22.9493 13.6371 22.9493 13.6359 22.9493 13.6347C22.9493 13.6336 22.9493 13.6324 22.9493 13.6312C22.9493 13.63 22.9493 13.6289 22.9493 13.6277C22.9493 13.6266 22.9493 13.6254 22.9493 13.6243C22.9493 13.6231 22.9493 13.622 22.9493 13.6209C22.9493 13.6197 22.9493 13.6186 22.9493 13.6175C22.9493 13.6164 22.9493 13.6153 22.9493 13.6142C22.9493 13.613 22.9493 13.6119 22.9493 13.6109C22.9493 13.6098 22.9493 13.6087 22.9493 13.6076C22.9493 13.6065 22.9493 13.6055 22.9493 13.6044C22.9493 13.6033 22.9493 13.6023 22.9493 13.6012C22.9493 13.6002 22.9493 13.5991 22.9493 13.5981C22.9493 13.597 22.9493 13.596 22.9493 13.595C22.9493 13.594 22.9493 13.5929 22.9493 13.5919C22.9493 13.5909 22.9493 13.5899 22.9493 13.5889C22.9493 13.5879 22.9493 13.5869 22.9493 13.5859C22.9493 13.585 22.9493 13.584 22.9493 13.583C22.9493 13.582 22.9493 13.5811 22.9493 13.5801C22.9493 13.5792 22.9493 13.5782 22.9493 13.5773C22.9493 13.5763 22.9493 13.5754 22.9493 13.5745C22.9493 13.5735 22.9493 13.5726 22.9493 13.5717C22.9493 13.5708 22.9493 13.5699 22.9493 13.569C22.9493 13.5681 22.9493 13.5672 22.9493 13.5663C22.9493 13.5654 22.9493 13.5645 22.9493 13.5636C22.9493 13.5628 22.9493 13.5619 22.9493 13.561C22.9493 13.5602 22.9493 13.5593 22.9493 13.5585C22.9493 13.5576 22.9493 13.5568 22.9493 13.5559C22.9493 13.5551 22.9493 13.5543 22.9493 13.5535C22.9493 13.5527 22.9493 13.5518 22.9493 13.551C22.9493 13.5502 22.9493 13.5494 22.9493 13.5486C22.9493 13.5479 22.9493 13.5471 22.9493 13.5463C22.9493 13.5455 22.9493 13.5448 22.9493 13.544C22.9493 13.5432 22.9493 13.5425 22.9493 13.5417C22.9493 13.541 22.9493 13.5402 22.9493 13.5395C22.9493 13.5388 22.9493 13.5381 22.9493 13.5373C22.9493 13.5366 22.9493 13.5359 22.9493 13.5352C22.9493 13.5345 22.9493 13.5338 22.9493 13.5331C22.9493 13.5324 22.9493 13.5318 22.9493 13.5311C22.9493 13.5304 22.9493 13.5297 22.9493 13.5291C22.9493 13.5284 22.9493 13.5278 22.9493 13.5271C22.9493 13.5265 22.9493 13.5258 22.9493 13.5252C22.9493 13.5246 22.9493 13.524 22.9493 13.5233C22.9493 13.5227 22.9493 13.5221 22.9493 13.5215C22.9493 13.5209 22.9493 13.5203 22.9493 13.5197C22.9493 13.5192 22.9493 13.5186 22.9493 13.518C22.9493 13.5174 22.9493 13.5169 22.9493 13.5163C22.9493 13.5158 22.9493 13.5152 22.9493 13.5147C22.9493 13.5141 22.9493 13.5136 22.9493 13.5131C22.9493 13.5126 22.9493 13.512 22.9493 13.5115C22.9493 13.511 22.9493 13.5105 22.9493 13.51C22.9493 13.5095 22.9493 13.509 22.9493 13.5086C22.9493 13.5081 22.9493 13.5076 22.9493 13.5071C22.9493 13.5067 22.9493 13.5062 22.9493 13.5058C22.9493 13.5053 22.9493 13.5049 22.9493 13.5044C22.9493 13.504 22.9493 13.5036 22.9493 13.5032C22.9493 13.5027 22.9493 13.5023 22.9493 13.5019C22.9493 13.5015 22.9493 13.5011 22.9493 13.5008C22.9493 13.5004 22.9493 13.5 22.9493 13.4996C22.9493 13.4992 22.9493 13.4989 22.9493 13.4985C22.9493 13.4982 22.9493 13.4978 22.9493 13.4975C22.9493 13.4971 22.9493 13.4968 22.9493 13.4965C22.9493 13.4962 22.9493 13.4958 22.9493 13.4955C22.9493 13.4952 22.9493 13.4949 22.9493 13.4946C22.9493 13.4943 22.9493 13.494 22.9493 13.4938C22.9493 13.4935 22.9493 13.4932 22.9493 13.493C22.9493 13.4927 22.9493 13.4924 22.9493 13.4922C22.9493 13.492 22.9493 13.4917 22.9493 13.4915C22.9493 13.4913 22.9493 13.491 22.9493 13.4908C22.9493 13.4906 22.9493 13.4904 22.9493 13.4902C22.9493 13.49 22.9493 13.4898 22.9493 13.4896C22.9493 13.4895 22.9493 13.4893 22.9493 13.4891C22.9493 13.489 22.9493 13.4888 22.9493 13.4887C22.9493 13.4885 22.9493 13.4884 22.9493 13.4882C22.9493 13.4881 22.9493 13.488 22.9493 13.4879C22.9493 13.4878 22.9493 13.4876 22.9493 13.4875C22.9493 13.4874 22.9493 13.4874 22.9493 13.4873C22.9493 13.4872 22.9493 13.4871 22.9493 13.487C22.9493 13.487 22.9493 13.4869 22.9493 13.4869C22.9493 13.4868 22.9493 13.4868 22.9493 13.4867C22.9493 13.4867 22.9493 13.4867 22.9493 13.4867C22.9493 13.4867 22.9493 13.4866 22.1993 13.4866C21.4493 13.4866 21.4493 13.4867 21.4493 13.4867C21.4493 13.4867 21.4493 13.4867 21.4493 13.4867C21.4493 13.4868 21.4493 13.4868 21.4493 13.4869C21.4493 13.4869 21.4493 13.487 21.4493 13.487C21.4493 13.4871 21.4493 13.4872 21.4493 13.4873C21.4493 13.4874 21.4493 13.4874 21.4493 13.4875C21.4493 13.4876 21.4493 13.4878 21.4493 13.4879C21.4493 13.488 21.4493 13.4881 21.4493 13.4882C21.4493 13.4884 21.4493 13.4885 21.4493 13.4887C21.4493 13.4888 21.4493 13.489 21.4493 13.4891C21.4493 13.4893 21.4493 13.4895 21.4493 13.4896C21.4493 13.4898 21.4493 13.49 21.4493 13.4902C21.4493 13.4904 21.4493 13.4906 21.4493 13.4908C21.4493 13.491 21.4493 13.4913 21.4493 13.4915C21.4493 13.4917 21.4493 13.492 21.4493 13.4922C21.4493 13.4924 21.4493 13.4927 21.4493 13.493C21.4493 13.4932 21.4493 13.4935 21.4493 13.4938C21.4493 13.494 21.4493 13.4943 21.4493 13.4946C21.4493 13.4949 21.4493 13.4952 21.4493 13.4955C21.4493 13.4958 21.4493 13.4962 21.4493 13.4965C21.4493 13.4968 21.4493 13.4971 21.4493 13.4975C21.4493 13.4978 21.4493 13.4982 21.4493 13.4985C21.4493 13.4989 21.4493 13.4992 21.4493 13.4996C21.4493 13.5 21.4493 13.5004 21.4493 13.5008C21.4493 13.5011 21.4493 13.5015 21.4493 13.5019C21.4493 13.5023 21.4493 13.5027 21.4493 13.5032C21.4493 13.5036 21.4493 13.504 21.4493 13.5044C21.4493 13.5049 21.4493 13.5053 21.4493 13.5058C21.4493 13.5062 21.4493 13.5067 21.4493 13.5071C21.4493 13.5076 21.4493 13.5081 21.4493 13.5086C21.4493 13.509 21.4493 13.5095 21.4493 13.51C21.4493 13.5105 21.4493 13.511 21.4493 13.5115C21.4493 13.512 21.4493 13.5126 21.4493 13.5131C21.4493 13.5136 21.4493 13.5141 21.4493 13.5147C21.4493 13.5152 21.4493 13.5158 21.4493 13.5163C21.4493 13.5169 21.4493 13.5174 21.4493 13.518C21.4493 13.5186 21.4493 13.5192 21.4493 13.5197C21.4493 13.5203 21.4493 13.5209 21.4493 13.5215C21.4493 13.5221 21.4493 13.5227 21.4493 13.5233C21.4493 13.524 21.4493 13.5246 21.4493 13.5252C21.4493 13.5258 21.4493 13.5265 21.4493 13.5271C21.4493 13.5278 21.4493 13.5284 21.4493 13.5291C21.4493 13.5297 21.4493 13.5304 21.4493 13.5311C21.4493 13.5318 21.4493 13.5324 21.4493 13.5331C21.4493 13.5338 21.4493 13.5345 21.4493 13.5352C21.4493 13.5359 21.4493 13.5366 21.4493 13.5373C21.4493 13.5381 21.4493 13.5388 21.4493 13.5395C21.4493 13.5402 21.4493 13.541 21.4493 13.5417C21.4493 13.5425 21.4493 13.5432 21.4493 13.544C21.4493 13.5448 21.4493 13.5455 21.4493 13.5463C21.4493 13.5471 21.4493 13.5479 21.4493 13.5486C21.4493 13.5494 21.4493 13.5502 21.4493 13.551C21.4493 13.5518 21.4493 13.5527 21.4493 13.5535C21.4493 13.5543 21.4493 13.5551 21.4493 13.5559C21.4493 13.5568 21.4493 13.5576 21.4493 13.5585C21.4493 13.5593 21.4493 13.5602 21.4493 13.561C21.4493 13.5619 21.4493 13.5628 21.4493 13.5636C21.4493 13.5645 21.4493 13.5654 21.4493 13.5663C21.4493 13.5672 21.4493 13.5681 21.4493 13.569C21.4493 13.5699 21.4493 13.5708 21.4493 13.5717C21.4493 13.5726 21.4493 13.5735 21.4493 13.5745C21.4493 13.5754 21.4493 13.5763 21.4493 13.5773C21.4493 13.5782 21.4493 13.5792 21.4493 13.5801C21.4493 13.5811 21.4493 13.582 21.4493 13.583C21.4493 13.584 21.4493 13.585 21.4493 13.5859C21.4493 13.5869 21.4493 13.5879 21.4493 13.5889C21.4493 13.5899 21.4493 13.5909 21.4493 13.5919C21.4493 13.5929 21.4493 13.594 21.4493 13.595C21.4493 13.596 21.4493 13.597 21.4493 13.5981C21.4493 13.5991 21.4493 13.6002 21.4493 13.6012C21.4493 13.6023 21.4493 13.6033 21.4493 13.6044C21.4493 13.6055 21.4493 13.6065 21.4493 13.6076C21.4493 13.6087 21.4493 13.6098 21.4493 13.6109C21.4493 13.6119 21.4493 13.613 21.4493 13.6142C21.4493 13.6153 21.4493 13.6164 21.4493 13.6175C21.4493 13.6186 21.4493 13.6197 21.4493 13.6209C21.4493 13.622 21.4493 13.6231 21.4493 13.6243C21.4493 13.6254 21.4493 13.6266 21.4493 13.6277C21.4493 13.6289 21.4493 13.63 21.4493 13.6312C21.4493 13.6324 21.4493 13.6336 21.4493 13.6347C21.4493 13.6359 21.4493 13.6371 21.4493 13.6383C21.4493 13.6395 21.4493 13.6407 21.4493 13.6419C21.4493 13.6431 21.4493 13.6443 21.4493 13.6456C21.4493 13.6468 21.4493 13.648 21.4493 13.6492C21.4493 13.6505 21.4493 13.6517 21.4493 13.653C21.4493 13.6542 21.4493 13.6555 21.4493 13.6567C21.4493 13.658 21.4493 13.6593 21.4493 13.6605C21.4493 13.6618 21.4493 13.6631 21.4493 13.6644C21.4493 13.6656 21.4493 13.6669 21.4493 13.6682C21.4493 13.6695 21.4493 13.6708 21.4493 13.6721C21.4493 13.6734 21.4493 13.6748 21.4493 13.6761C21.4493 13.6774 21.4493 13.6787 21.4493 13.6801C21.4493 13.6814 21.4493 13.6827 21.4493 13.6841C21.4493 13.6854 21.4493 13.6868 21.4493 13.6881C21.4493 13.6895 21.4493 13.6909 21.4493 13.6922C21.4493 13.6936 21.4493 13.695 21.4493 13.6964C21.4493 13.6977 21.4493 13.6991 21.4493 13.7005C21.4493 13.7019 21.4493 13.7033 21.4493 13.7047C21.4493 13.7061 21.4493 13.7076 21.4493 13.709C21.4493 13.7104 21.4493 13.7118 21.4493 13.7132C21.4493 13.7147 21.4493 13.7161 21.4493 13.7176C21.4493 13.719 21.4493 13.7204 21.4493 13.7219C21.4493 13.7234 21.4493 13.7248 21.4493 13.7263C21.4493 13.7277 21.4493 13.7292 21.4493 13.7307C21.4493 13.7322 21.4493 13.7337 21.4493 13.7351C21.4493 13.7366 21.4493 13.7381 21.4493 13.7396C21.4493 13.7411 21.4493 13.7426 21.4493 13.7442C21.4493 13.7457 21.4493 13.7472 21.4493 13.7487C21.4493 13.7502 21.4493 13.7518 21.4493 13.7533C21.4493 13.7548 21.4493 13.7564 21.4493 13.7579C21.4493 13.7595 21.4493 13.761 21.4493 13.7626C21.4493 13.7641 21.4493 13.7657 21.4493 13.7673C21.4493 13.7688 21.4493 13.7704 21.4493 13.772C21.4493 13.7736 21.4493 13.7752 21.4493 13.7768C21.4493 13.7784 21.4493 13.78 21.4493 13.7816C21.4493 13.7832 21.4493 13.7848 21.4493 13.7864C21.4493 13.788 21.4493 13.7896 21.4493 13.7912C21.4493 13.7929 21.4493 13.7945 21.4493 13.7961C21.4493 13.7978 21.4493 13.7994 21.4493 13.8011C21.4493 13.8027 21.4493 13.8044 21.4493 13.806C21.4493 13.8077 21.4493 13.8094 21.4493 13.811C21.4493 13.8127 21.4493 13.8144 21.4493 13.816C21.4493 13.8177 21.4493 13.8194 21.4493 13.8211C21.4493 13.8228 21.4493 13.8245 21.4493 13.8262C21.4493 13.8279 21.4493 13.8296 21.4493 13.8313C21.4493 13.833 21.4493 13.8348 21.4493 13.8365C21.4493 13.8382 21.4493 13.8399 21.4493 13.8417C21.4493 13.8434 21.4493 13.8451 21.4493 13.8469C21.4493 13.8486 21.4493 13.8504 21.4493 13.8521C21.4493 13.8539 21.4493 13.8556 21.4493 13.8574C21.4493 13.8592 21.4493 13.861 21.4493 13.8627C21.4493 13.8645 21.4493 13.8663 21.4493 13.8681C21.4493 13.8699 21.4493 13.8717 21.4493 13.8734C21.4493 13.8752 21.4493 13.877 21.4493 13.8789C21.4493 13.8807 21.4493 13.8825 21.4493 13.8843C21.4493 13.8861 21.4493 13.8879 21.4493 13.8898C21.4493 13.8916 21.4493 13.8934 21.4493 13.8953C21.4493 13.8971 21.4493 13.8989 21.4493 13.9008C21.4493 13.9026 21.4493 13.9045 21.4493 13.9064C21.4493 13.9082 21.4493 13.9101 21.4493 13.9119C21.4493 13.9138 21.4493 13.9157 21.4493 13.9176C21.4493 13.9194 21.4493 13.9213 21.4493 13.9232C21.4493 13.9251 21.4493 13.927 21.4493 13.9289C21.4493 13.9308 21.4493 13.9327 21.4493 13.9346C21.4493 13.9365 21.4493 13.9384 21.4493 13.9403C21.4493 13.9423 21.4493 13.9442 21.4493 13.9461C21.4493 13.948 21.4493 13.95 21.4493 13.9519C21.4493 13.9538 21.4493 13.9558 21.4493 13.9577C21.4493 13.9597 21.4493 13.9616 21.4493 13.9636C21.4493 13.9655 21.4493 13.9675 21.4493 13.9695C21.4493 13.9714 21.4493 13.9734 21.4493 13.9754C21.4493 13.9773 21.4493 13.9793 21.4493 13.9813C21.4493 13.9833 21.4493 13.9853 21.4493 13.9873C21.4493 13.9893 21.4493 13.9913 21.4493 13.9933C21.4493 13.9953 21.4493 13.9973 21.4493 13.9993C21.4493 14.0013 21.4493 14.0033 21.4493 14.0053C21.4493 14.0074 21.4493 14.0094 21.4493 14.0114C21.4493 14.0135 21.4493 14.0155 21.4493 14.0175C21.4493 14.0196 21.4493 14.0216 21.4493 14.0237C21.4493 14.0257 21.4493 14.0278 21.4493 14.0298C21.4493 14.0319 21.4493 14.0339 21.4493 14.036C21.4493 14.0381 21.4493 14.0402 21.4493 14.0422C21.4493 14.0443 21.4493 14.0464 21.4493 14.0485C21.4493 14.0506 21.4493 14.0526 21.4493 14.0547C21.4493 14.0568 21.4493 14.0589 21.4493 14.061C21.4493 14.0631 21.4493 14.0652 21.4493 14.0674C21.4493 14.0695 21.4493 14.0716 21.4493 14.0737C21.4493 14.0758 21.4493 14.078 21.4493 14.0801C21.4493 14.0822 21.4493 14.0843 21.4493 14.0865C21.4493 14.0886 21.4493 14.0908 21.4493 14.0929C21.4493 14.0951 21.4493 14.0972 21.4493 14.0994C21.4493 14.1015 21.4493 14.1037 21.4493 14.1058C21.4493 14.108 21.4493 14.1102 21.4493 14.1123C21.4493 14.1145 21.4493 14.1167 21.4493 14.1189C21.4493 14.121 21.4493 14.1232 21.4493 14.1254C21.4493 14.1276 21.4493 14.1298 21.4493 14.132C21.4493 14.1342 21.4493 14.1364 21.4493 14.1386C21.4493 14.1408 21.4493 14.143 21.4493 14.1452C21.4493 14.1474 21.4493 14.1496 21.4493 14.1519C21.4493 14.1541 21.4493 14.1563 21.4493 14.1585C21.4493 14.1608 21.4493 14.163 21.4493 14.1652C21.4493 14.1675 21.4493 14.1697 21.4493 14.172C21.4493 14.1742 21.4493 14.1765 21.4493 14.1787C21.4493 14.181 21.4493 14.1832 21.4493 14.1855C21.4493 14.1877 21.4493 14.19 21.4493 14.1923C21.4493 14.1945 21.4493 14.1968 21.4493 14.1991C21.4493 14.2014 21.4493 14.2037 21.4493 14.2059C21.4493 14.2082 21.4493 14.2105 21.4493 14.2128C21.4493 14.2151 21.4493 14.2174 21.4493 14.2197C21.4493 14.222 21.4493 14.2243 21.4493 14.2266C21.4493 14.2289 21.4493 14.2312 21.4493 14.2335C21.4493 14.2358 21.4493 14.2382 21.4493 14.2405C21.4493 14.2428 21.4493 14.2451 21.4493 14.2475C21.4493 14.2498 21.4493 14.2521 21.4493 14.2545C21.4493 14.2568 21.4493 14.2591 21.4493 14.2615C21.4493 14.2638 21.4493 14.2662 21.4493 14.2685C21.4493 14.2709 21.4493 14.2732 21.4493 14.2756C21.4493 14.278 21.4493 14.2803 21.4493 14.2827C21.4493 14.2851 21.4493 14.2874 21.4493 14.2898C21.4493 14.2922 21.4493 14.2945 21.4493 14.2969C21.4493 14.2993 21.4493 14.3017 21.4493 14.3041C21.4493 14.3065 21.4493 14.3089 21.4493 14.3112C21.4493 14.3136 21.4493 14.316 21.4493 14.3184C21.4493 14.3208 21.4493 14.3233 21.4493 14.3257C21.4493 14.3281 21.4493 14.3305 21.4493 14.3329C21.4493 14.3353 21.4493 14.3377 21.4493 14.3402C21.4493 14.3426 21.4493 14.345 21.4493 14.3474C21.4493 14.3499 21.4493 14.3523 21.4493 14.3547C21.4493 14.3572 21.4493 14.3596 21.4493 14.362C21.4493 14.3645 21.4493 14.3669 21.4493 14.3694C21.4493 14.3718 21.4493 14.3743 21.4493 14.3767C21.4493 14.3792 21.4493 14.3817 21.4493 14.3841C21.4493 14.3866 21.4493 14.389 21.4493 14.3915C21.4493 14.394 21.4493 14.3965 21.4493 14.3989C21.4493 14.4014 21.4493 14.4039 21.4493 14.4064C21.4493 14.4088 21.4493 14.4113 21.4493 14.4138C21.4493 14.4163 21.4493 14.4188 21.4493 14.4213C21.4493 14.4238 21.4493 14.4263 21.4493 14.4288C21.4493 14.4313 21.4493 14.4338 21.4493 14.4363C21.4493 14.4388 21.4493 14.4413 21.4493 14.4438C21.4493 14.4463 21.4493 14.4489 21.4493 14.4514C21.4493 14.4539 21.4493 14.4564 21.4493 14.4589C21.4493 14.4615 21.4493 14.464 21.4493 14.4665C21.4493 14.4691 21.4493 14.4716 21.4493 14.4741C21.4493 14.4767 21.4493 14.4792 21.4493 14.4817C21.4493 14.4843 21.4493 14.4868 21.4493 14.4894C21.4493 14.4919 21.4493 14.4945 21.4493 14.497C21.4493 14.4996 21.4493 14.5021 21.4493 14.5047C21.4493 14.5073 21.4493 14.5098 21.4493 14.5124C21.4493 14.515 21.4493 14.5175 21.4493 14.5201C21.4493 14.5227 21.4493 14.5253 21.4493 14.5278C21.4493 14.5304 21.4493 14.533 21.4493 14.5356C21.4493 14.5382 21.4493 14.5407 21.4493 14.5433C21.4493 14.5459 21.4493 14.5485 21.4493 14.5511C21.4493 14.5537 21.4493 14.5563 21.4493 14.5589C21.4493 14.5615 21.4493 14.5641 21.4493 14.5667C21.4493 14.5693 21.4493 14.5719 21.4493 14.5745C21.4493 14.5771 21.4493 14.5797 21.4493 14.5824C21.4493 14.585 21.4493 14.5876 21.4493 14.5902C21.4493 14.5928 21.4493 14.5955 21.4493 14.5981C21.4493 14.6007 21.4493 14.6033 21.4493 14.606C21.4493 14.6086 21.4493 14.6112 21.4493 14.6139C21.4493 14.6165 21.4493 14.6191 21.4493 14.6218C21.4493 14.6244 21.4493 14.6271 21.4493 14.6297C21.4493 14.6324 21.4493 14.635 21.4493 14.6377C21.4493 14.6403 21.4493 14.643 21.4493 14.6456C21.4493 14.6483 21.4493 14.6509 21.4493 14.6536C21.4493 14.6563 21.4493 14.6589 21.4493 14.6616C21.4493 14.6643 21.4493 14.6669 21.4493 14.6696C21.4493 14.6723 21.4493 14.6749 21.4493 14.6776C21.4493 14.6803 21.4493 14.683 21.4493 14.6857C21.4493 14.6883 21.4493 14.691 21.4493 14.6937C21.4493 14.6964 21.4493 14.6991 21.4493 14.7018C21.4493 14.7044 21.4493 14.7071 21.4493 14.7098C21.4493 14.7125 21.4493 14.7152 21.4493 14.7179C21.4493 14.7206 21.4493 14.7233 21.4493 14.726C21.4493 14.7287 21.4493 14.7314 21.4493 14.7341C21.4493 14.7368 21.4493 14.7396 21.4493 14.7423C21.4493 14.745 21.4493 14.7477 21.4493 14.7504C21.4493 14.7531 21.4493 14.7558 21.4493 14.7586C21.4493 14.7613 21.4493 14.764 21.4493 14.7667C21.4493 14.7694 21.4493 14.7722 21.4493 14.7749C21.4493 14.7776 21.4493 14.7804 21.4493 14.7831C21.4493 14.7858 21.4493 14.7886 21.4493 14.7913C21.4493 14.794 21.4493 14.7968 21.4493 14.7995C21.4493 14.8023 21.4493 14.805 21.4493 14.8077C21.4493 14.8105 21.4493 14.8132 21.4493 14.816C21.4493 14.8187 21.4493 14.8215 21.4493 14.8242C21.4493 14.827 21.4493 14.8297 21.4493 14.8325C21.4493 14.8352 21.4493 14.838 21.4493 14.8408C21.4493 14.8435 21.4493 14.8463 21.4493 14.849C21.4493 14.8518 21.4493 14.8546 21.4493 14.8573C21.4493 14.8601 21.4493 14.8629 21.4493 14.8656C21.4493 14.8684 21.4493 14.8712 21.4493 14.874C21.4493 14.8767 21.4493 14.8795 21.4493 14.8823C21.4493 14.8851 21.4493 14.8879 21.4493 14.8906C21.4493 14.8934 21.4493 14.8962 21.4493 14.899C21.4493 14.9018 21.4493 14.9046 21.4493 14.9073C21.4493 14.9101 21.4493 14.9129 21.4493 14.9157C21.4493 14.9185 21.4493 14.9213 21.4493 14.9241C21.4493 14.9269 21.4493 14.9297 21.4493 14.9325C21.4493 14.9353 21.4493 14.9381 21.4493 14.9409C21.4493 14.9437 21.4493 14.9465 21.4493 14.9493C21.4493 14.9521 21.4493 14.9549 21.4493 14.9577C21.4493 14.9605 21.4493 14.9633 21.4493 14.9661C21.4493 14.9689 21.4493 14.9717 21.4493 14.9746C21.4493 14.9774 21.4493 14.9802 21.4493 14.983C21.4493 14.9858 21.4493 14.9886 21.4493 14.9915C21.4493 14.9943 21.4493 14.9971 21.4493 14.9999C21.4493 15.0027 21.4493 15.0056 21.4493 15.0084C21.4493 15.0112 21.4493 15.014 21.4493 15.0169C21.4493 15.0197 21.4493 15.0225 21.4493 15.0254C21.4493 15.0282 21.4493 15.031 21.4493 15.0338C21.4493 15.0367 21.4493 15.0395 21.4493 15.0423C21.4493 15.0452 21.4493 15.048 21.4493 15.0509C21.4493 15.0537 21.4493 15.0565 21.4493 15.0594C21.4493 15.0622 21.4493 15.0651 21.4493 15.0679C21.4493 15.0707 21.4493 15.0736 21.4493 15.0764C21.4493 15.0793 21.4493 15.0821 21.4493 15.085C21.4493 15.0878 21.4493 15.0907 21.4493 15.0935C21.4493 15.0964 21.4493 15.0992 21.4493 15.1021C21.4493 15.1049 21.4493 15.1078 21.4493 15.1106C21.4493 15.1135 21.4493 15.1163 21.4493 15.1192C21.4493 15.1221 21.4493 15.1249 21.4493 15.1278C21.4493 15.1306 21.4493 15.1335 21.4493 15.1364C21.4493 15.1392 21.4493 15.1421 21.4493 15.1449C21.4493 15.1478 21.4493 15.1507 21.4493 15.1535C21.4493 15.1564 21.4493 15.1593 21.4493 15.1621C21.4493 15.165 21.4493 15.1679 21.4493 15.1707C21.4493 15.1736 21.4493 15.1765 21.4493 15.1793C21.4493 15.1822 21.4493 15.1851 21.4493 15.188C21.4493 15.1908 21.4493 15.1937 21.4493 15.1966C21.4493 15.1994 21.4493 15.2023 21.4493 15.2052C21.4493 15.2081 21.4493 15.2109 21.4493 15.2138C21.4493 15.2167 21.4493 15.2196 21.4493 15.2225C21.4493 15.2253 21.4493 15.2282 21.4493 15.2311C21.4493 15.234 21.4493 15.2369 21.4493 15.2397C21.4493 15.2426 21.4493 15.2455 21.4493 15.2484C21.4493 15.2513 21.4493 15.2542 21.4493 15.257C21.4493 15.2599 21.4493 15.2628 21.4493 15.2657C21.4493 15.2686 21.4493 15.2715 21.4493 15.2744C21.4493 15.2772 21.4493 15.2801 21.4493 15.283C21.4493 15.2859 21.4493 15.2888 21.4493 15.2917C21.4493 15.2946 21.4493 15.2975 21.4493 15.3004C21.4493 15.3033 21.4493 15.3061 21.4493 15.309C21.4493 15.3119 21.4493 15.3148 21.4493 15.3177C21.4493 15.3206 21.4493 15.3235 21.4493 15.3264C21.4493 15.3293 21.4493 15.3322 21.4493 15.3351C21.4493 15.338 21.4493 15.3409 21.4493 15.3438C21.4493 15.3467 21.4493 15.3496 21.4493 15.3525C21.4493 15.3554 21.4493 15.3583 21.4493 15.3612C21.4493 15.3641 21.4493 15.367 21.4493 15.3698C21.4493 15.3727 21.4493 15.3756 21.4493 15.3785C21.4493 15.3814 21.4493 15.3843 21.4493 15.3872C21.4493 15.3901 21.4493 15.393 21.4493 15.3959C21.4493 15.3988 21.4493 15.4017 21.4493 15.4046C21.4493 15.4076 21.4493 15.4105 21.4493 15.4134C21.4493 15.4163 21.4493 15.4192 21.4493 15.4221C21.4493 15.425 21.4493 15.4279 21.4493 15.4308C21.4493 15.4337 21.4493 15.4366 21.4493 15.4395C21.4493 15.4424 21.4493 15.4453 21.4493 15.4482C21.4493 15.4511 21.4493 15.454 21.4493 15.4569C21.4493 15.4598 21.4493 15.4627 21.4493 15.4656C21.4493 15.4685 21.4493 15.4714 21.4493 15.4743C21.4493 15.4772 21.4493 15.4801 21.4493 15.483C21.4493 15.4859 21.4493 15.4888 21.4493 15.4917C21.4493 15.4947 21.4493 15.4976 21.4493 15.5005C21.4493 15.5034 21.4493 15.5063 21.4493 15.5092C21.4493 15.5121 21.4493 15.515 21.4493 15.5179C21.4493 15.5208 21.4493 15.5237 21.4493 15.5266C21.4493 15.5295 21.4493 15.5324 21.4493 15.5353C21.4493 15.5382 21.4493 15.5411 21.4493 15.544C21.4493 15.5469 21.4493 15.5498 21.4493 15.5527C21.4493 15.5556 21.4493 15.5586 21.4493 15.5615C21.4493 15.5644 21.4493 15.5673 21.4493 15.5702C21.4493 15.5731 21.4493 15.576 21.4493 15.5789C21.4493 15.5818 21.4493 15.5847 21.4493 15.5876C21.4493 15.5905 21.4493 15.5934 21.4493 15.5963C21.4493 15.5992 21.4493 15.6021 21.4493 15.605C21.4493 15.6079 21.4493 15.6108 21.4493 15.6137C21.4493 15.6166 21.4493 15.6195 21.4493 15.6224C21.4493 15.6253 21.4493 15.6282 21.4493 15.6311C21.4493 15.634 21.4493 15.6369 21.4493 15.6398C21.4493 15.6427 21.4493 15.6456 21.4493 15.6485C21.4493 15.6514 21.4493 15.6543 21.4493 15.6572C21.4493 15.6601 21.4493 15.663 21.4493 15.6659C21.4493 15.6688 21.4493 15.6717 21.4493 15.6746C21.4493 15.6775 21.4493 15.6804 21.4493 15.6833C21.4493 15.6861 21.4493 15.689 21.4493 15.6919C21.4493 15.6948 21.4493 15.6977 21.4493 15.7006C21.4493 15.7035 21.4493 15.7064 21.4493 15.7093C21.4493 15.7122 21.4493 15.7151 21.4493 15.718C21.4493 15.7209 21.4493 15.7237 21.4493 15.7266C21.4493 15.7295 21.4493 15.7324 21.4493 15.7353C21.4493 15.7382 21.4493 15.7411 21.4493 15.744C21.4493 15.7468 21.4493 15.7497 21.4493 15.7526C21.4493 15.7555 21.4493 15.7584 21.4493 15.7613C21.4493 15.7642 21.4493 15.767 21.4493 15.7699C21.4493 15.7728 21.4493 15.7757 21.4493 15.7786C21.4493 15.7815 21.4493 15.7843 21.4493 15.7872C21.4493 15.7901 21.4493 15.793 21.4493 15.7958C21.4493 15.7987 21.4493 15.8016 21.4493 15.8045C21.4493 15.8074 21.4493 15.8102 21.4493 15.8131C21.4493 15.816 21.4493 15.8189 21.4493 15.8217C21.4493 15.8246 21.4493 15.8275 21.4493 15.8303C21.4493 15.8332 21.4493 15.8361 21.4493 15.839C21.4493 15.8418 21.4493 15.8447 21.4493 15.8476C21.4493 15.8504 21.4493 15.8533 21.4493 15.8562C21.4493 15.859 21.4493 15.8619 21.4493 15.8648C21.4493 15.8676 21.4493 15.8705 21.4493 15.8733C21.4493 15.8762 21.4493 15.8791 21.4493 15.8819C21.4493 15.8848 21.4493 15.8876 21.4493 15.8905C21.4493 15.8934 21.4493 15.8962 21.4493 15.8991C21.4493 15.9019 21.4493 15.9048 21.4493 15.9076C21.4493 15.9105 21.4493 15.9133 21.4493 15.9162C21.4493 15.919 21.4493 15.9219 21.4493 15.9247C21.4493 15.9276 21.4493 15.9304 21.4493 15.9333C21.4493 15.9361 21.4493 15.939 21.4493 15.9418C21.4493 15.9447 21.4493 15.9475 21.4493 15.9503C21.4493 15.9532 21.4493 15.956 21.4493 15.9589C21.4493 15.9617 21.4493 15.9645 21.4493 15.9674C21.4493 15.9702 21.4493 15.973 21.4493 15.9759C21.4493 15.9787 21.4493 15.9815 21.4493 15.9844C21.4493 15.9872 21.4493 15.99 21.4493 15.9929C21.4493 15.9957 21.4493 15.9985 21.4493 16.0013C21.4493 16.0042 21.4493 16.007 21.4493 16.0098C21.4493 16.0126 21.4493 16.0155 21.4493 16.0183C21.4493 16.0211 21.4493 16.0239 21.4493 16.0267C21.4493 16.0296 21.4493 16.0324 21.4493 16.0352C21.4493 16.038 21.4493 16.0408 21.4493 16.0436C21.4493 16.0464 21.4493 16.0492 21.4493 16.0521C21.4493 16.0549 21.4493 16.0577 21.4493 16.0605C21.4493 16.0633 21.4493 16.0661 21.4493 16.0689C21.4493 16.0717 21.4493 16.0745 21.4493 16.0773C21.4493 16.0801 21.4493 16.0829 21.4493 16.0857C21.4493 16.0885 21.4493 16.0913 21.4493 16.0941C21.4493 16.0969 21.4493 16.0996 21.4493 16.1024C21.4493 16.1052 21.4493 16.108 21.4493 16.1108C21.4493 16.1136 21.4493 16.1164 21.4493 16.1191C21.4493 16.1219 21.4493 16.1247 21.4493 16.1275C21.4493 16.1303 21.4493 16.133 21.4493 16.1358C21.4493 16.1386 21.4493 16.1414 21.4493 16.1441C21.4493 16.1469 21.4493 16.1497 21.4493 16.1525C21.4493 16.1552 21.4493 16.158 21.4493 16.1608C21.4493 16.1635 21.4493 16.1663 21.4493 16.169C21.4493 16.1718 21.4493 16.1746 21.4493 16.1773C21.4493 16.1801 21.4493 16.1828 21.4493 16.1856C21.4493 16.1883 21.4493 16.1911 21.4493 16.1938C21.4493 16.1966 21.4493 16.1993 21.4493 16.2021C21.4493 16.2048 21.4493 16.2076 21.4493 16.2103C21.4493 16.2131 21.4493 16.2158 21.4493 16.2185C21.4493 16.2213 21.4493 16.224 21.4493 16.2267C21.4493 16.2295 21.4493 16.2322 21.4493 16.2349C21.4493 16.2377 21.4493 16.2404 21.4493 16.2431C21.4493 16.2458 21.4493 16.2486 21.4493 16.2513C21.4493 16.254 21.4493 16.2567 21.4493 16.2594C21.4493 16.2622 21.4493 16.2649 21.4493 16.2676C21.4493 16.2703 21.4493 16.273 21.4493 16.2757C21.4493 16.2784 21.4493 16.2811 21.4493 16.2838C21.4493 16.2865 21.4493 16.2892 21.4493 16.2919C21.4493 16.2946 21.4493 16.2973 21.4493 16.3C21.4493 16.3027 21.4493 16.3054 21.4493 16.3081C21.4493 16.3108 21.4493 16.3135 21.4493 16.3162C21.4493 16.3189 21.4493 16.3216 21.4493 16.3242C21.4493 16.3269 21.4493 16.3296 21.4493 16.3323C21.4493 16.335 21.4493 16.3376 21.4493 16.3403C21.4493 16.343 21.4493 16.3456 21.4493 16.3483C21.4493 16.351 21.4493 16.3536 21.4493 16.3563C21.4493 16.359 21.4493 16.3616 21.4493 16.3643C21.4493 16.3669 21.4493 16.3696 21.4493 16.3723C21.4493 16.3749 21.4493 16.3776 21.4493 16.3802C21.4493 16.3829 21.4493 16.3855 21.4493 16.3881C21.4493 16.3908 21.4493 16.3934 21.4493 16.3961C21.4493 16.3987 21.4493 16.4013 21.4493 16.404C21.4493 16.4066 21.4493 16.4092 21.4493 16.4119C21.4493 16.4145 21.4493 16.4171 21.4493 16.4197C21.4493 16.4224 21.4493 16.425 21.4493 16.4276C21.4493 16.4302 21.4493 16.4328 21.4493 16.4354C21.4493 16.4381 21.4493 16.4407 21.4493 16.4433C21.4493 16.4459 21.4493 16.4485 21.4493 16.4511C21.4493 16.4537 21.4493 16.4563 21.4493 16.4589C21.4493 16.4615 21.4493 16.4641 21.4493 16.4667C21.4493 16.4693 21.4493 16.4718 21.4493 16.4744C21.4493 16.477 21.4493 16.4796 21.4493 16.4822C21.4493 16.4847 21.4493 16.4873 21.4493 16.4899C21.4493 16.4925 21.4493 16.495 21.4493 16.4976C21.4493 16.5002 21.4493 16.5027 21.4493 16.5053C21.4493 16.5079 21.4493 16.5104 21.4493 16.513C21.4493 16.5155 21.4493 16.5181 21.4493 16.5207C21.4493 16.5232 21.4493 16.5258 21.4493 16.5283C21.4493 16.5308 21.4493 16.5334 21.4493 16.5359C21.4493 16.5385 21.4493 16.541 21.4493 16.5435C21.4493 16.5461 21.4493 16.5486 21.4493 16.5511C21.4493 16.5536 21.4493 16.5562 21.4493 16.5587C21.4493 16.5612 21.4493 16.5637 21.4493 16.5662C21.4493 16.5688 21.4493 16.5713 21.4493 16.5738C21.4493 16.5763 21.4493 16.5788 21.4493 16.5813C21.4493 16.5838 21.4493 16.5863 21.4493 16.5888C21.4493 16.5913 21.4493 16.5938 21.4493 16.5963C21.4493 16.5988 21.4493 16.6013 21.4493 16.6037C21.4493 16.6062 21.4493 16.6087 21.4493 16.6112C21.4493 16.6137 21.4493 16.6161 21.4493 16.6186C21.4493 16.6211 21.4493 16.6235 21.4493 16.626C21.4493 16.6285 21.4493 16.6309 21.4493 16.6334C21.4493 16.6359 21.4493 16.6383 21.4493 16.6408C21.4493 16.6432 21.4493 16.6457 21.4493 16.6481C21.4493 16.6506 21.4493 16.653 21.4493 16.6554C21.4493 16.6579 21.4493 16.6603 21.4493 16.6627C21.4493 16.6652 21.4493 16.6676 21.4493 16.67C21.4493 16.6724 21.4493 16.6749 21.4493 16.6773C21.4493 16.6797 21.4493 16.6821 21.4493 16.6845C21.4493 16.6869 21.4493 16.6893 21.4493 16.6917C21.4493 16.6942 21.4493 16.6966 21.4493 16.699C21.4493 16.7013 21.4493 16.7037 21.4493 16.7061C21.4493 16.7085 21.4493 16.7109 21.4493 16.7133C21.4493 16.7157 21.4493 16.7181 21.4493 16.7204C21.4493 16.7228 21.4493 16.7252 21.4493 16.7275C21.4493 16.7299 21.4493 16.7323 21.4493 16.7346C21.4493 16.737 21.4493 16.7394 21.4493 16.7417C21.4493 16.7441 21.4493 16.7464 21.4493 16.7488C21.4493 16.7511 21.4493 16.7535 21.4493 16.7558C21.4493 16.7581 21.4493 16.7605 21.4493 16.7628C21.4493 16.7651 21.4493 16.7675 21.4493 16.7698C21.4493 16.7721 21.4493 16.7744 21.4493 16.7768C21.4493 16.7791 21.4493 16.7814 21.4493 16.7837C21.4493 16.786 21.4493 16.7883 21.4493 16.7906C21.4493 16.7929 21.4493 16.7952 21.4493 16.7975C21.4493 16.7998 21.4493 16.8021 21.4493 16.8044C21.4493 16.8067 21.4493 16.809 21.4493 16.8112C21.4493 16.8135 21.4493 16.8158 21.4493 16.8181C21.4493 16.8203 21.4493 16.8226 21.4493 16.8249C21.4493 16.8271 21.4493 16.8294 21.4493 16.8316H22.1993ZM22.1993 13.4866L22.5348 12.8158L21.1447 12.1208L20.8093 12.7916L20.4739 13.4625L21.8639 14.1575L22.1993 13.4866ZM17.5894 12.7916L17.9248 13.4625C18.7271 13.0613 19.6716 13.0613 20.4739 13.4625L20.8093 12.7916L21.1447 12.1208C19.9201 11.5085 18.4786 11.5085 17.254 12.1208L17.5894 12.7916Z" fill="#18B979"/>
</g>
</svg>
