<svg width="38" height="38" viewBox="0 0 38 38" fill="none" xmlns="http://www.w3.org/2000/svg">
<rect x="0.75" y="0.75" width="36.5" height="36.5" rx="18.25" stroke="#18B979" stroke-width="1.5"/>
<path d="M25.75 24.9531L22.4615 21.0769H20.3846L19 19.6923L21.7692 15.5385H26.6154M14.1538 12.0769L15.6224 13.5454C16.4114 14.3345 16.6544 15.518 16.2399 16.5541V16.5541C15.8163 17.6132 14.7905 18.3077 13.6498 18.3077H10.6923M28 19C28 23.9706 23.9706 28 19 28C14.0294 28 10 23.9706 10 19C10 14.0294 14.0294 10 19 10C23.9706 10 28 14.0294 28 19Z" stroke="#18B979" stroke-width="1.5" stroke-linecap="round" stroke-linejoin="round"/>
</svg>
