<svg width="46" height="47" viewBox="0 0 46 47" fill="none" xmlns="http://www.w3.org/2000/svg">
<path d="M30.9395 13.0674C31.4959 12.6138 32.3164 12.6465 32.835 13.165L32.9326 13.2725C33.356 13.7917 33.3559 14.5413 32.9326 15.0605L32.835 15.168L24.5029 23.5L32.835 31.832L32.9326 31.9395C33.3862 32.4959 33.3535 33.3164 32.835 33.835C32.3164 34.3535 31.4959 34.3862 30.9395 33.9326L30.832 33.835L22.5 25.5029L14.168 33.835C13.6493 34.3534 12.8288 34.3863 12.2725 33.9326L12.165 33.835C11.6119 33.2818 11.612 32.3853 12.165 31.832L20.4961 23.5L12.165 15.168C11.612 14.6147 11.6119 13.7182 12.165 13.165L12.2725 13.0674C12.8288 12.6137 13.6493 12.6466 14.168 13.165L22.5 21.4961L30.832 13.165L30.9395 13.0674Z" fill="#034833" stroke="#30325E" stroke-width="0.5" stroke-linecap="round" stroke-linejoin="round"/>
</svg>
